<svg width="250" height="84" viewBox="0 0 250 84" fill="none" xmlns="http://www.w3.org/2000/svg">
<g filter="url(#filter0_d_3_2770)">
<path d="M15 25.0864C15 19.5636 19.4772 15.0864 25 15.0864H225C230.523 15.0864 235 19.5636 235 25.0864V58.4554C235 63.9783 230.523 68.4554 225 68.4554H25C19.4772 68.4554 15 63.9783 15 58.4554V25.0864Z" fill="white" fill-opacity="0.95" shape-rendering="crispEdges"/>
<g clip-path="url(#clip0_3_2770)">
<path d="M111.597 46.1736C112.113 46.1736 112.578 46.1535 113.041 46.1736C113.383 46.1937 113.49 46.0889 113.488 45.7358C113.475 43.082 113.48 40.4252 113.48 37.7757C113.48 37.6609 113.467 37.5461 113.462 37.4355H111.596V40.6865H108.252V37.4399H106.458V46.1506H108.27V42.317H111.597V46.1736Z" fill="#B50000"/>
<path d="M138.371 39.979C138.451 38.8753 137.597 37.7515 136.505 37.4127C135.509 37.0962 134.439 37.0992 133.445 37.4213C133.039 37.553 132.672 37.7837 132.377 38.0928C132.082 38.4018 131.869 38.7794 131.757 39.1914C131.644 39.6034 131.636 40.037 131.733 40.4529C131.83 40.8688 132.03 41.2539 132.313 41.5736C132.699 42.0171 133.231 42.1477 133.748 42.2913C134.568 42.5324 135.403 42.7219 136.227 42.9458C136.601 43.0505 136.89 43.2744 136.932 43.7007C136.957 43.904 136.913 44.11 136.807 44.2851C136.701 44.4603 136.538 44.5942 136.346 44.6652C136.13 44.7643 135.898 44.8264 135.661 44.849C134.454 44.9394 133.508 44.8619 133.257 43.5328H131.558C131.615 44.5648 131.911 45.1762 132.607 45.6857C133.056 46.0144 133.569 46.1465 134.115 46.2598C135.102 46.4927 136.136 46.4068 137.071 46.0144C138.627 45.3685 138.894 44.038 138.551 42.7219C138.34 41.9066 137.605 41.4832 136.811 41.2521C136.276 41.0971 135.729 40.988 135.191 40.8431C134.743 40.7239 134.293 40.6062 133.86 40.4484C133.228 40.2173 133.299 39.2399 133.768 38.9786C134.47 38.5854 135.186 38.6055 135.9 38.8796C136.38 39.0648 136.593 39.4953 136.667 39.9675L138.371 39.979Z" fill="#B50000"/>
<path d="M115.264 37.4299C115.251 37.4603 115.24 37.492 115.233 37.5247C115.233 39.5211 115.221 41.5176 115.233 43.5141C115.233 44.526 115.642 45.3412 116.525 45.878C117.353 46.3833 118.281 46.478 119.21 46.3761C119.785 46.3126 120.344 46.1489 120.862 45.8924C121.944 45.3427 122.19 44.2906 122.211 43.1998C122.247 41.3956 122.221 39.5886 122.221 37.783C122.221 37.6682 122.21 37.5534 122.206 37.4385H120.353V37.839C120.353 39.6446 120.353 41.4502 120.353 43.2558C120.345 44.5475 119.026 45.2953 117.877 44.6824C117.225 44.3337 117.066 43.7438 117.061 43.0864C117.049 41.3296 117.061 39.5714 117.061 37.8132V37.4299H115.264Z" fill="#B50000"/>
<path d="M143.244 41.1431C143.149 40.9651 143.087 40.856 143.033 40.744C142.533 39.6934 142.037 38.6414 141.529 37.595C141.506 37.5531 141.475 37.5166 141.436 37.4881C141.398 37.4596 141.354 37.4397 141.308 37.43C140.656 37.4156 140.003 37.4214 139.324 37.4214C140.149 38.9499 140.936 40.4527 141.764 41.9282C142.117 42.5539 142.396 43.1625 142.311 43.9074C142.282 44.3489 142.279 44.7917 142.301 45.2336V46.1565H144.106C144.106 45.1662 144.106 44.2002 144.106 43.2343C144.103 43.0701 144.136 42.9072 144.204 42.7578C144.794 41.6095 145.397 40.4613 145.998 39.3131C146.321 38.6973 146.648 38.0816 147.003 37.4199C146.33 37.4199 145.711 37.4199 145.095 37.4285C145.049 37.4381 145.005 37.458 144.967 37.4868C144.93 37.5157 144.899 37.5526 144.877 37.595C144.668 38.0256 144.474 38.4562 144.276 38.8868C143.941 39.613 143.604 40.3436 143.244 41.1431Z" fill="#B50000"/>
<path d="M128.034 46.1564C128.034 45.1517 128.034 44.1771 128.034 43.2083C128.03 43.0433 128.063 42.8795 128.13 42.7289C128.785 41.463 129.451 40.2028 130.114 38.9412L130.922 37.4155C130.272 37.4155 129.686 37.4026 129.101 37.4255C129.031 37.4358 128.965 37.4613 128.907 37.5003C128.848 37.5392 128.799 37.5907 128.763 37.6509C128.449 38.3025 128.165 38.9685 127.865 39.6258C127.642 40.1153 127.411 40.6018 127.167 41.1243C127.125 41.0702 127.085 41.0137 127.05 40.9549C126.542 39.8698 126.033 38.7847 125.52 37.704C125.465 37.5906 125.344 37.4327 125.248 37.4284C124.598 37.404 123.947 37.4155 123.255 37.4155C123.319 37.559 123.357 37.6595 123.405 37.7513C124.212 39.2326 124.994 40.7267 125.838 42.1849C126.144 42.6945 126.287 43.2856 126.246 43.8786C126.217 44.391 126.246 44.9062 126.246 45.4201V46.1564H128.034Z" fill="#B50000"/>
<path d="M105.351 37.3293H98.3309V38.8651H100.438C100.869 38.8651 100.902 38.8952 100.902 39.3387C100.902 41.43 100.902 43.5197 100.894 45.611C100.894 45.9224 100.995 46.0415 101.299 46.0286C101.634 46.0143 101.968 46.0286 102.304 46.0286C102.734 46.0286 102.772 45.9913 102.772 45.5535C102.772 43.8685 102.772 42.184 102.772 40.4999C102.772 40.0937 102.772 39.6875 102.772 39.2813C102.772 38.9943 102.874 38.8249 103.214 38.8508C103.554 38.8766 103.881 38.8508 104.218 38.8508H105.354L105.351 37.3293Z" fill="#B50000"/>
<path d="M75.4453 42.3845H78.3618C78.3518 42.528 78.346 42.6385 78.3374 42.7461C78.2671 43.6418 78.0016 44.4556 77.2724 45.0426C76.919 45.3231 76.5071 45.5208 76.0672 45.6209C75.6272 45.721 75.1704 45.721 74.7304 45.621C74.2904 45.521 73.8785 45.3235 73.525 45.043C73.1715 44.7626 72.8855 44.4063 72.6881 44.0006C72.2087 43.0461 72.2087 42.0457 72.3135 41.0353C72.3896 40.299 72.5877 39.5799 73.0599 38.9843C73.8952 37.9293 75.0147 37.7026 76.2663 37.9796C76.6682 38.0524 77.0439 38.23 77.3553 38.4943C77.6668 38.7587 77.903 39.1004 78.0403 39.4852C78.1838 39.8942 78.3819 39.9904 78.758 39.9387C78.8383 39.9272 78.9216 39.9272 79.0034 39.9229C78.9876 39.1909 78.4379 38.2437 77.7116 37.7987C76.4328 36.9993 75.0808 36.9993 73.7057 37.4901C73.0113 37.7486 72.4327 38.2477 72.0753 38.8967C71.5011 39.9014 71.3863 41.0339 71.4538 42.1835C71.5141 43.204 71.6863 44.1929 72.3336 45.0254C73.2522 46.2038 74.4865 46.5367 75.9218 46.3372C76.9782 46.1937 77.8092 45.687 78.4508 44.6938V46.1105H79.134V41.5922H75.4453V42.3845Z" fill="#B50000"/>
<path d="M158.843 37.3868V46.1535H159.649V38.5781C159.745 38.6957 159.793 38.7359 159.817 38.7833C160.47 39.788 161.109 40.8027 161.773 41.806C162.695 43.2116 163.623 44.612 164.556 46.0071C164.584 46.048 164.62 46.083 164.661 46.1101C164.703 46.1371 164.749 46.1558 164.798 46.165C165.066 46.1851 165.339 46.1736 165.61 46.1736V37.4054H164.775V44.8689L164.677 44.8904C163.832 43.5829 162.992 42.271 162.139 40.9678C161.396 39.833 160.643 38.7029 159.882 37.5777C159.798 37.4751 159.679 37.4079 159.547 37.3896C159.313 37.3734 159.077 37.3725 158.843 37.3868Z" fill="#B50000"/>
<path d="M68.9693 44.7843L68.8746 44.8173C68.7942 44.7025 68.7124 44.5891 68.6363 44.4743L64.2328 37.8289C63.9271 37.3667 63.5525 37.2548 63.0057 37.4801V42.9242C63.0057 43.8686 63.0057 44.813 63.0129 45.7574C63.0129 45.8708 63.099 46.0531 63.1865 46.0832C63.6171 46.2268 63.8066 46.0832 63.8066 45.6311C63.8066 43.4552 63.8066 41.2793 63.8066 39.1034C63.8066 38.98 63.8166 38.8551 63.8252 38.6384C63.9429 38.7819 64.0104 38.8623 64.0649 38.9441L66.9455 43.2973C67.5053 44.1413 68.0622 44.9867 68.6248 45.8292C68.7899 46.0761 69.3425 46.2497 69.6195 46.0746C69.7429 45.9971 69.7802 45.7115 69.7817 45.5192C69.7917 42.9486 69.7817 40.378 69.7946 37.8088C69.7946 37.4701 69.6769 37.3782 69.364 37.3782C69.0511 37.3782 68.9621 37.4916 68.9635 37.8088C68.9765 40.0077 68.9707 42.2079 68.9707 44.4111L68.9693 44.7843Z" fill="#B50000"/>
<path d="M81.1606 37.4084V46.0202H81.9687V41.8234H87.0969V46.0331H87.8921V37.4099H87.0912V41.09H81.9486V37.4084H81.1606Z" fill="#B50000"/>
<path d="M150.75 37.4413C150.781 37.5332 150.812 37.6408 150.85 37.7485C151.137 38.5781 151.424 39.4062 151.711 40.2373C152.362 42.1462 153.002 44.0566 153.671 45.9612C153.704 46.0147 153.747 46.0605 153.799 46.0954C153.851 46.1304 153.91 46.1536 153.971 46.1636C154.2 46.1829 154.43 46.1863 154.659 46.1736C155.663 43.2413 156.657 40.3363 157.673 37.3868C157.533 37.3963 157.393 37.3963 157.254 37.3868C156.935 37.3394 156.77 37.4456 156.664 37.7743C156.081 39.5943 155.474 41.4056 154.871 43.2198C154.67 43.8226 154.458 44.4211 154.228 45.0857C154.171 44.9827 154.119 44.8768 154.073 44.7685C153.836 44.0738 153.6 43.3777 153.368 42.6801C152.855 41.1386 152.352 39.5928 151.828 38.0542C151.584 37.3366 151.566 37.3366 150.824 37.3897C150.805 37.3925 150.796 37.4055 150.75 37.4413Z" fill="#B50000"/>
<path d="M150.494 44.5732C150.568 43.7766 149.919 42.8896 148.852 42.8767C148.419 42.8884 148.007 43.064 147.699 43.3681C147.391 43.6721 147.21 44.0819 147.192 44.5144C147.198 44.9467 147.37 45.3602 147.672 45.6695C147.974 45.9788 148.384 46.1603 148.816 46.1764C149.785 46.185 150.494 45.5062 150.494 44.5732Z" fill="#B50000"/>
<path d="M45 37.4185C46.0148 37.4185 47.0295 37.397 48.0442 37.4056C48.7478 37.3875 49.4479 37.5095 50.1039 37.7644C50.4234 37.8986 50.7133 38.0944 50.9571 38.3407C51.201 38.587 51.3938 38.8789 51.5248 39.1997C52.1563 40.6077 52.1937 42.0387 51.8363 43.5228C51.5406 44.7514 50.2575 45.9714 48.8695 46.0274C47.5778 46.079 46.286 46.0805 44.9943 46.1049L45 37.4185ZM45.8066 38.04V40.5761C45.8066 42.0583 45.8066 43.5415 45.8066 45.0255C45.8066 45.1849 45.7564 45.3758 46.032 45.37C46.9046 45.347 47.7945 45.4403 48.6428 45.2925C50.0867 45.0385 50.6378 44.6753 51.0296 43.2716C51.41 41.9124 51.3483 40.5675 50.5991 39.2944C50.2804 38.7562 49.8455 38.3715 49.2743 38.2983C48.1447 38.1476 46.9994 38.1218 45.8066 38.04Z" fill="#B50000"/>
<path d="M171.736 25.0864H204.976C204.976 25.23 204.993 25.3735 204.993 25.5084C204.993 36.3439 204.993 47.1798 204.993 58.0162C204.993 58.3549 204.912 58.4554 204.562 58.4554C193.773 58.4449 182.985 58.4425 172.198 58.4482C171.73 58.4482 171.73 58.4482 171.73 57.9746V25.0864H171.736ZM190.538 48.9409V43.9777H195.508V39.5828H190.538V34.6411H186.222V39.5914H181.293V43.982H186.251V48.9409H190.538ZM202.658 41.1616H197.895V42.4132H202.658V41.1616ZM196.906 37.5591L201.076 35.1449L200.433 34.0613L196.271 36.4697C196.492 36.8472 196.688 37.1816 196.906 37.5562V37.5591ZM201.069 48.417L196.899 46.0029C196.683 46.3803 196.484 46.7205 196.272 47.098L200.434 49.5035L201.069 48.417ZM193.674 49.7088L192.589 50.3403L194.996 54.5098L196.077 53.8582C195.274 52.4631 194.484 51.1053 193.676 49.7045L193.674 49.7088ZM194.987 29.0521C194.169 30.4745 193.383 31.8409 192.589 33.2231L193.667 33.8546C194.481 32.4437 195.269 31.0773 196.068 29.6923L194.987 29.0521ZM187.811 27.4503V32.2313H188.998V27.4503H187.811ZM189.021 56.0613V55.371C189.021 54.118 189.021 52.865 189.021 51.612C189.021 51.5072 188.938 51.3249 188.877 51.3134C188.527 51.2861 188.173 51.2991 187.822 51.2991V56.0599L189.021 56.0613Z" fill="#B50000"/>
<path d="M111.597 46.1737V42.317H108.27V46.1507H106.458V37.4399H108.252V40.6923H111.589V37.4414H113.455C113.455 37.5519 113.473 37.6667 113.473 37.7815C113.473 40.4354 113.473 43.0921 113.48 45.7416C113.48 46.0947 113.376 46.1995 113.034 46.1794C112.57 46.1536 112.105 46.1737 111.597 46.1737Z" fill="#B50000"/>
<path d="M138.371 39.979H136.667C136.593 39.5068 136.38 39.0762 135.9 38.8911C135.182 38.6169 134.464 38.5968 133.768 38.9901C133.299 39.2513 133.228 40.2288 133.86 40.4598C134.291 40.6177 134.743 40.7354 135.191 40.8545C135.729 40.9981 136.276 41.1086 136.811 41.2636C137.605 41.4947 138.34 41.9181 138.551 42.7333C138.894 44.0495 138.627 45.38 137.071 46.0259C136.136 46.4183 135.102 46.5042 134.115 46.2713C133.569 46.1508 133.056 46.0187 132.607 45.6972C131.911 45.1877 131.615 44.5762 131.558 43.5443H133.254C133.501 44.8734 134.45 44.9509 135.657 44.8604C135.894 44.8379 136.125 44.7758 136.342 44.6767C136.534 44.6057 136.696 44.4717 136.803 44.2966C136.909 44.1215 136.953 43.9155 136.927 43.7122C136.886 43.2816 136.597 43.062 136.222 42.9572C135.399 42.729 134.563 42.5439 133.744 42.3028C133.228 42.152 132.696 42.0243 132.308 41.5851C132.025 41.2654 131.826 40.8802 131.729 40.4643C131.632 40.0484 131.64 39.6149 131.752 39.2029C131.865 38.7908 132.078 38.4133 132.373 38.1042C132.667 37.7952 133.035 37.5645 133.441 37.4328C134.435 37.1106 135.505 37.1076 136.501 37.4242C137.597 37.7515 138.451 38.8753 138.371 39.979Z" fill="#B50000"/>
<path d="M115.264 37.4299H117.051V37.8132C117.051 39.5714 117.043 41.3296 117.051 43.0864C117.051 43.7438 117.215 44.3337 117.867 44.6824C119.015 45.2953 120.335 44.549 120.342 43.2558C120.353 41.4502 120.342 39.6446 120.342 37.839V37.4299H122.193C122.193 37.5448 122.207 37.6596 122.208 37.7744C122.208 39.58 122.234 41.387 122.198 43.1912C122.177 44.282 121.931 45.3341 120.849 45.8838C120.333 46.1405 119.777 46.3051 119.204 46.3703C118.276 46.4722 117.347 46.3775 116.519 45.8723C115.638 45.3355 115.227 44.5203 115.227 43.5084C115.217 41.5119 115.227 39.5154 115.227 37.5189C115.236 37.488 115.249 37.4582 115.264 37.4299Z" fill="#B50000"/>
<path d="M143.244 41.143C143.608 40.3435 143.941 39.613 144.276 38.8824C144.474 38.4518 144.668 38.0213 144.877 37.5907C144.899 37.5494 144.93 37.5135 144.968 37.4857C145.006 37.4579 145.049 37.4388 145.095 37.4299C145.713 37.4156 146.33 37.4213 147.003 37.4213C146.653 38.083 146.325 38.6987 145.998 39.3144C145.397 40.4627 144.794 41.6109 144.204 42.7591C144.136 42.9086 144.103 43.0715 144.106 43.2356C144.098 44.2016 144.106 45.1675 144.106 46.1579H142.299V45.235C142.278 44.7931 142.281 44.3503 142.31 43.9088C142.394 43.1639 142.116 42.5553 141.763 41.9295C140.929 40.4541 140.142 38.9513 139.323 37.4227C140.002 37.4227 140.655 37.4227 141.306 37.4313C141.355 37.4408 141.4 37.461 141.44 37.4906C141.479 37.5202 141.512 37.5583 141.534 37.6021C142.043 38.6485 142.539 39.7005 143.039 40.7512C143.087 40.8559 143.149 40.965 143.244 41.143Z" fill="#B50000"/>
<path d="M128.034 46.1564H126.237V45.4201C126.237 44.9063 126.214 44.391 126.237 43.8786C126.278 43.2857 126.136 42.6945 125.83 42.185C124.989 40.7311 124.206 39.2326 123.4 37.7514C123.351 37.6595 123.314 37.5605 123.249 37.4155C123.941 37.4155 124.592 37.4041 125.243 37.4285C125.339 37.4285 125.459 37.5906 125.514 37.704C126.033 38.7848 126.542 39.8699 127.054 40.955C127.09 41.0137 127.129 41.0703 127.172 41.1243C127.416 40.6019 127.647 40.1196 127.869 39.6259C128.169 38.9685 128.453 38.3025 128.768 37.6509C128.804 37.5912 128.854 37.5404 128.913 37.5021C128.972 37.4639 129.038 37.4392 129.108 37.4299C129.693 37.4069 130.279 37.4198 130.929 37.4198L130.113 38.9413C129.449 40.2029 128.783 41.463 128.129 42.729C128.061 42.8796 128.029 43.0434 128.033 43.2084C128.03 44.1757 128.034 45.146 128.034 46.1564Z" fill="#B50000"/>
<path d="M105.351 37.3293V38.8651H104.216C103.881 38.8651 103.545 38.8909 103.211 38.8651C102.876 38.8393 102.77 38.9986 102.769 39.2957C102.769 39.7019 102.769 40.1081 102.769 40.5142C102.769 42.1974 102.769 43.8819 102.769 45.5679C102.769 45.9985 102.732 46.0415 102.301 46.043C101.965 46.043 101.631 46.0315 101.296 46.043C100.992 46.0559 100.89 45.9368 100.891 45.6253C100.904 43.5341 100.899 41.4443 100.899 39.3531C100.899 38.9096 100.867 38.8795 100.435 38.8795H98.3309V37.3293H105.351Z" fill="#B50000"/>
<path d="M75.4453 42.3844V41.5921H79.134V46.1047H78.4508V44.6881C77.8092 45.6813 76.9782 46.1836 75.9218 46.3315C74.4865 46.531 73.2493 46.198 72.3336 45.0196C71.6863 44.1886 71.514 43.1982 71.4538 42.1777C71.3863 41.0295 71.5069 39.8956 72.0752 38.8909C72.4338 38.2441 73.0122 37.7471 73.7057 37.4901C75.0836 36.9935 76.4328 37.0007 77.7131 37.7901C78.4307 38.235 78.9833 39.1823 79.0048 39.9143C78.923 39.9143 78.8398 39.9143 78.7594 39.9301C78.3905 39.9817 78.1967 39.8856 78.0417 39.4765C77.9045 39.0918 77.6682 38.75 77.3568 38.4857C77.0453 38.2213 76.6697 38.0438 76.2677 37.9709C75.0162 37.6982 73.8966 37.925 73.0613 38.9756C72.5891 39.5713 72.391 40.2903 72.3149 41.0266C72.2102 42.0313 72.2102 43.036 72.6895 43.9919C72.8867 44.3977 73.1725 44.754 73.5257 45.0346C73.8789 45.3152 74.2906 45.5129 74.7305 45.6132C75.1703 45.7135 75.627 45.7137 76.067 45.614C76.5069 45.5142 76.9189 45.317 77.2724 45.0368C78.0015 44.4541 78.2671 43.6403 78.3374 42.7404C78.346 42.6327 78.3518 42.5265 78.3618 42.3787L75.4453 42.3844Z" fill="#B50000"/>
<path d="M158.843 37.3869C159.077 37.3745 159.313 37.3774 159.547 37.3956C159.679 37.4138 159.798 37.481 159.882 37.5836C160.647 38.7088 161.4 39.8389 162.139 40.9737C162.992 42.277 163.832 43.5888 164.677 44.8964L164.775 44.8748V37.4113H165.61V46.1795C165.339 46.1795 165.066 46.191 164.798 46.1709C164.749 46.1617 164.703 46.1431 164.661 46.116C164.62 46.0889 164.584 46.0539 164.556 46.013C163.624 44.6151 162.697 43.2147 161.773 41.8119C161.115 40.8072 160.47 39.8025 159.817 38.7892C159.787 38.7419 159.745 38.7017 159.649 38.584V46.1594H158.843V37.3869Z" fill="#B50000"/>
<path d="M68.9693 44.7842V44.4039C68.9693 42.205 68.9693 40.0047 68.9621 37.8016C68.9621 37.4887 69.0568 37.381 69.3626 37.371C69.6683 37.3609 69.7931 37.4614 69.7931 37.8016C69.7802 40.3707 69.7931 42.9413 69.7802 45.5119C69.7802 45.7042 69.7415 45.9899 69.618 46.0674C69.3396 46.2425 68.7884 46.0674 68.6234 45.8219C68.0607 44.9794 67.5039 44.134 66.9441 43.2901L64.0678 38.944C64.0132 38.8622 63.9458 38.789 63.8281 38.6383C63.8195 38.8551 63.8094 38.9799 63.8094 39.1034C63.8094 41.2793 63.8094 43.4552 63.8094 45.631C63.8094 46.0817 63.6185 46.231 63.1894 46.0832C63.1018 46.053 63.0186 45.8707 63.0157 45.7574C63.0028 44.8129 63.0085 43.8685 63.0085 42.9241V37.4801C63.5554 37.2576 63.93 37.3667 64.2357 37.8288L68.6377 44.4742C68.7138 44.589 68.7956 44.7024 68.876 44.8172L68.9693 44.7842Z" fill="#B50000"/>
<path d="M53.2959 41.8319C53.2647 40.6793 53.6126 39.5483 54.2863 38.6125C54.5631 38.222 54.9204 37.8954 55.3341 37.6548C55.7478 37.4141 56.2084 37.265 56.6846 37.2174C57.6276 37.094 58.5649 37.1959 59.4117 37.6882C60.547 38.3456 61.0795 39.3919 61.2962 40.6449C61.4539 41.5119 61.4314 42.4021 61.2302 43.26C60.7034 45.4574 58.6826 46.6846 56.4765 46.2353C54.6107 45.8535 53.7667 44.4972 53.3993 42.8595C53.3438 42.5194 53.3093 42.1762 53.2959 41.8319ZM60.5757 41.7673C60.5959 41.0718 60.4646 40.3803 60.1911 39.7407C59.6614 38.5235 58.7256 37.9222 57.4195 37.8891C56.1134 37.8561 55.1632 38.4489 54.6049 39.6115C54.0466 40.7741 54.0035 42.0228 54.3537 43.2528C54.7111 44.5087 55.502 45.3311 56.8511 45.5694C57.496 45.6839 58.1606 45.5886 58.7473 45.2974C59.334 45.0063 59.8119 44.5346 60.1107 43.9518C60.4537 43.2614 60.5556 42.5237 60.5757 41.7673Z" fill="#B50000"/>
<path d="M89.4738 41.7745C89.4601 40.5981 89.8344 39.45 90.5388 38.5078C91.035 37.8555 91.7538 37.4085 92.5582 37.2519C93.738 37.0007 94.8676 37.1486 95.8594 37.8389C96.9316 38.5781 97.388 39.6833 97.5315 40.9392C97.6269 41.6237 97.6026 42.3197 97.4597 42.9959C97.2889 43.7451 97.0292 44.4312 96.4723 45.0053C95.9154 45.5794 95.3082 46.0373 94.4987 46.2038C92.6659 46.5813 90.5847 45.8794 89.9173 43.8844C89.787 43.5563 89.6763 43.2208 89.5858 42.8797C89.5281 42.5136 89.4907 42.1447 89.4738 41.7745ZM96.7564 41.6066C96.7658 40.9443 96.6322 40.2878 96.3646 39.6818C95.4905 37.5289 92.4965 37.2605 91.166 38.9872C90.3823 40.0033 90.2589 41.1918 90.3795 42.4232C90.4728 43.3834 90.7986 44.2575 91.5449 44.8848C92.9802 46.0976 95.4905 45.789 96.3546 43.827C96.6517 43.1258 96.789 42.3673 96.7564 41.6066Z" fill="#B50000"/>
<path d="M81.1606 37.4084H81.9486V41.09H87.0912V37.4099H87.8921V46.0331H87.0969V41.8234H81.9687V46.0259H81.1606V37.4084Z" fill="#B50000"/>
<path d="M150.75 37.4413C150.796 37.4054 150.805 37.3925 150.815 37.3925C151.56 37.3452 151.579 37.3394 151.82 38.0571C152.344 39.5957 152.846 41.1415 153.36 42.683C153.591 43.3805 153.828 44.0767 154.065 44.7713C154.111 44.8797 154.163 44.9855 154.22 45.0885C154.449 44.4183 154.662 43.8197 154.863 43.2227C155.465 41.4085 156.073 39.5971 156.655 37.7772C156.761 37.4485 156.927 37.3466 157.245 37.3897C157.385 37.3991 157.525 37.3991 157.664 37.3897C156.66 40.3392 155.655 43.2442 154.65 46.1765C154.421 46.1891 154.191 46.1858 153.963 46.1664C153.901 46.1565 153.842 46.1332 153.79 46.0983C153.739 46.0633 153.695 46.0175 153.663 45.9641C153 44.0594 152.354 42.1491 151.702 40.2401C151.415 39.4091 151.128 38.5809 150.841 37.7514C150.812 37.6408 150.781 37.5332 150.75 37.4413Z" fill="#B50000"/>
<path d="M150.494 44.5734C150.494 45.5063 149.776 46.1809 148.814 46.1766C148.382 46.1601 147.973 45.9784 147.672 45.6692C147.37 45.3599 147.198 44.9466 147.192 44.5145C147.212 44.0828 147.394 43.6744 147.702 43.3718C148.011 43.0692 148.422 42.8949 148.854 42.884C149.919 42.884 150.571 43.7768 150.494 44.5734Z" fill="#B50000"/>
</g>
</g>
<defs>
<filter id="filter0_d_3_2770" x="0" y="0.0864258" width="250" height="83.3689" filterUnits="userSpaceOnUse" color-interpolation-filters="sRGB">
<feFlood flood-opacity="0" result="BackgroundImageFix"/>
<feColorMatrix in="SourceAlpha" type="matrix" values="0 0 0 0 0 0 0 0 0 0 0 0 0 0 0 0 0 0 127 0" result="hardAlpha"/>
<feOffset/>
<feGaussianBlur stdDeviation="7.5"/>
<feComposite in2="hardAlpha" operator="out"/>
<feColorMatrix type="matrix" values="0 0 0 0 0 0 0 0 0 0 0 0 0 0 0 0 0 0 0.15 0"/>
<feBlend mode="normal" in2="BackgroundImageFix" result="effect1_dropShadow_3_2770"/>
<feBlend mode="normal" in="SourceGraphic" in2="effect1_dropShadow_3_2770" result="shape"/>
</filter>
<clipPath id="clip0_3_2770">
<rect width="160" height="33.369" fill="white" transform="translate(45 25.0864)"/>
</clipPath>
</defs>
</svg>
