<svg width="114" height="61" viewBox="0 0 114 61" fill="none" xmlns="http://www.w3.org/2000/svg">
<g clip-path="url(#clip0_3_2384)">
<path d="M16.047 42.3168H10.2697L9.09919 45.3753H7.41888L12.4787 32.5559H14.0268L18.9922 45.3753H17.1986L16.047 42.3168ZM10.8172 40.9197H15.5372L13.1961 34.7648L10.8172 40.9197Z" fill="white"/>
<path d="M2.34022 33.9153V38.5408H4.60579C4.60579 38.5408 5.00227 38.5219 5.22882 38.5219C5.9085 38.5219 6.36161 38.3709 6.79585 37.9744C7.23008 37.5779 7.41888 36.8983 7.41888 36.1997C7.44686 35.5467 7.2162 34.909 6.77697 34.425C6.32385 33.9341 5.49314 33.8964 5.36098 33.8964H5.13443L2.34022 33.9153ZM0.716553 32.5559H5.13443C5.79522 32.5559 6.98465 32.707 7.7776 33.3677C8.19838 33.7116 8.53464 34.1474 8.76049 34.6417C8.98634 35.1359 9.09575 35.6754 9.0803 36.2186C9.0803 36.9927 8.89151 38.0499 8.11743 38.8051C7.11681 39.7869 6.05954 39.9379 4.60579 39.9379H2.34022V45.3942H0.716553V32.5559Z" fill="white"/>
<path d="M59.4138 32.5559H61.0375V38.0499H66.7958V32.5559H68.4195V45.3753H66.7958V39.4659H61.0375V45.3753H59.4138" fill="white"/>
<path d="M72.4598 32.5559H70.8361V45.3753H72.4598V32.5559Z" fill="white"/>
<path d="M74.8953 32.5559H76.5189V43.9593H82.0696V45.3753H74.8953" fill="white"/>
<path d="M26.1287 32.5559V33.9719H22.2206V45.3753H20.597V33.9719H16.6888V32.5559" fill="white"/>
<path d="M34.4359 32.5559L33.624 33.9719H28.7719V37.9933H33.3031V39.4093H28.7719V43.9593H33.5107L34.3226 45.3753H27.1483V32.5559" fill="white"/>
<path d="M37.3622 38.5598L42.8751 32.5371L44.8953 32.556L40.6662 37.1249L44.9897 45.3753H43.1394L39.5523 38.3143L37.3622 40.6743V45.3753H35.7386V32.556H37.3622" fill="white"/>
<path d="M60.3389 59.743H63.4541L64.0016 60.687H59.2817V52.2666H64.7191L67.1734 59.2332L69.7222 52.2666H70.8172L67.6077 60.687H66.5882L63.8695 53.1917H60.3389V55.8349H63.322V56.76H60.3389" fill="white"/>
<path d="M51.4277 33.9153V38.5408H53.6933C53.6933 38.5408 54.0897 38.5219 54.2974 38.5219C54.9771 38.5219 55.4302 38.3709 55.8644 37.9744C56.2987 37.5779 56.4875 36.8983 56.4875 36.1997C56.5154 35.5467 56.2848 34.909 55.8456 34.425C55.3924 33.9341 54.5617 33.8964 54.4296 33.8964H54.203L51.4277 33.9153ZM49.804 32.5559H54.2219C54.8827 32.5559 56.0721 32.707 56.8839 33.3677C57.3047 33.7116 57.641 34.1474 57.8668 34.6417C58.0927 35.1359 58.2021 35.6754 58.1867 36.2186C58.1867 36.9927 57.9979 38.0499 57.2238 38.8051C56.2232 39.7869 55.1659 39.9379 53.7121 39.9379H51.4466V45.3942H49.8229V32.5559H49.804Z" fill="white"/>
<path d="M84.7506 32.5559H83.1269V45.3753H84.7506V32.5559Z" fill="white"/>
<path d="M88.7908 33.9153V38.5408H91.0564C91.0564 38.5408 91.4529 38.5219 91.6605 38.5219C92.3402 38.5219 92.7933 38.3709 93.2276 37.9744C93.6618 37.5779 93.8506 36.8983 93.8506 36.1997C93.8786 35.5467 93.6479 34.909 93.2087 34.425C92.7556 33.9341 91.9249 33.8964 91.7927 33.8964H91.5661L88.7908 33.9153ZM87.1671 32.5559H91.585C92.2458 32.5559 93.4352 32.707 94.2282 33.3677C94.649 33.7116 94.9852 34.1474 95.2111 34.6417C95.4369 35.1359 95.5463 35.6754 95.5309 36.2186C95.5309 36.9927 95.3421 38.0499 94.568 38.8051C93.5674 39.7869 92.5101 39.9379 91.0564 39.9379H88.7908V45.3942H87.1671V32.5559Z" fill="white"/>
<path d="M98.5706 33.9153V38.5408H100.836C100.836 38.5408 101.233 38.5219 101.44 38.5219C102.12 38.5219 102.592 38.3709 103.007 37.9744C103.423 37.5779 103.63 36.8983 103.63 36.1997C103.658 35.5467 103.428 34.909 102.988 34.425C102.535 33.9341 101.705 33.8964 101.572 33.8964H101.346L98.5706 33.9153ZM96.9469 32.5559H101.365C102.026 32.5559 103.215 32.707 104.008 33.3677C104.429 33.7116 104.765 34.1474 104.991 34.6417C105.217 35.1359 105.326 35.6754 105.311 36.2186C105.311 36.9927 105.122 38.0499 104.348 38.8051C103.347 39.7869 102.29 39.9379 100.836 39.9379H98.5706V45.3942H96.9469V32.5559Z" fill="white"/>
<path d="M113.995 32.5559L113.184 33.9719H108.331V37.9933H112.882V39.4093H108.331V43.9593H113.089L113.901 45.3753H106.708V32.5559" fill="white"/>
<path d="M62.2081 13.072C63.0765 13.072 63.945 12.5434 63.945 11.8448C63.945 11.5994 63.7373 11.1085 63.0199 11.1085C62.1137 11.1085 61.3018 12.0525 60.49 12.0525C59.7726 12.0525 59.6593 11.4861 59.6593 11.4861C60.0935 11.4861 60.2446 11.4672 60.7921 11.2029C61.3018 10.9575 61.9626 10.2589 62.4157 9.76804C62.8688 9.27716 63.5863 8.67301 64.4548 8.67301C65.3232 8.67301 66.1728 9.22052 66.1728 10.24C66.1728 11.5805 65.0967 12.0147 65.0967 12.4867C65.0967 12.6378 65.1722 12.8077 65.4554 12.8077C65.8896 12.8077 66.7392 12.1847 67.551 12.1847C68.6649 12.1847 69.6467 13.4496 69.6467 13.4496C69.6467 13.4496 68.6649 14.7145 67.551 14.7145C66.7392 14.7145 65.8896 14.0915 65.4554 14.0915C65.4085 14.0859 65.361 14.0906 65.3162 14.1054C65.2714 14.1202 65.2304 14.1447 65.1962 14.1772C65.1619 14.2096 65.1353 14.2492 65.1181 14.2931C65.1009 14.3371 65.0935 14.3843 65.0967 14.4313C65.0967 14.9033 66.1728 15.3376 66.1728 16.678C66.1728 17.6787 65.3232 18.2451 64.4548 18.2451C63.5863 18.2451 62.8688 17.622 62.4157 17.15C61.9626 16.678 61.3018 15.9606 60.7921 15.7152C60.4517 15.5085 60.0568 15.4098 59.6593 15.432C59.6593 15.432 59.7537 14.8656 60.49 14.8656C61.3018 14.8656 62.0948 15.8096 63.0199 15.8096C63.7373 15.8096 63.945 15.3376 63.945 15.0733C63.945 14.3747 63.0765 13.8461 62.2081 13.8461H57.3937V18.6604C57.3937 19.5289 57.9223 20.3974 58.6209 20.3974C58.8663 20.3974 59.3572 20.1897 59.3572 19.4723C59.3572 18.5471 58.4132 17.7542 58.4132 16.9424C58.4132 16.2249 58.9796 16.1117 58.9796 16.1117C58.9593 16.5006 59.0511 16.8872 59.2439 17.2256C59.4894 17.7353 60.1879 18.415 60.6788 18.8492C61.1697 19.2835 61.7738 20.0198 61.7738 20.8882C61.7738 21.7567 61.2263 22.6063 60.2068 22.6063C58.8663 22.6063 58.451 21.5302 57.9601 21.5302C57.8091 21.5302 57.6391 21.6057 57.6391 21.8889C57.6391 22.3231 58.2622 23.1538 58.2622 23.9845C58.2622 25.0984 56.9972 26.0802 56.9972 26.0802C56.9972 26.0802 55.7323 25.0984 55.7323 23.9845C55.7323 23.1727 56.3553 22.3231 56.3553 21.8889C56.3616 21.8435 56.358 21.7973 56.3447 21.7535C56.3313 21.7096 56.3086 21.6692 56.278 21.6351C56.2475 21.6009 56.2098 21.5739 56.1678 21.5557C56.1257 21.5376 56.0802 21.5289 56.0344 21.5302C55.5624 21.5302 55.1281 22.6063 53.7877 22.6063C52.787 22.6063 52.2206 21.7567 52.2206 20.8882C52.2206 20.0198 52.8437 19.3023 53.3157 18.8492C53.7877 18.3961 54.5051 17.7353 54.7505 17.2256C54.996 16.7158 55.0337 16.527 55.0149 16.1117C55.0149 16.1117 55.5813 16.206 55.5813 16.9424C55.5813 17.7542 54.6373 18.5471 54.6373 19.4723C54.6373 20.1897 55.1093 20.3974 55.3736 20.3974C56.0721 20.3974 56.6008 19.5289 56.6008 18.6604V13.8461H51.7864C50.9179 13.8461 50.0683 14.3747 50.0683 15.0733C50.0683 15.3187 50.276 15.8096 50.9935 15.8096C51.8997 15.8096 52.7115 14.8656 53.5233 14.8656C54.2408 14.8656 54.3541 15.432 54.3541 15.432C53.9198 15.432 53.7688 15.4509 53.2402 15.7152C52.7115 15.9795 52.0696 16.6592 51.6165 17.15C51.1634 17.6409 50.4459 18.2451 49.5775 18.2451C48.709 18.2451 47.8594 17.6976 47.8594 16.678C47.8594 15.3376 48.9356 14.9222 48.9356 14.4313C48.9387 14.3843 48.9314 14.3371 48.9142 14.2931C48.897 14.2492 48.8703 14.2096 48.836 14.1772C48.8018 14.1447 48.7608 14.1202 48.716 14.1054C48.6712 14.0906 48.6237 14.0859 48.5768 14.0915C48.1426 14.0915 47.3119 14.7145 46.4812 14.7145C45.3673 14.7145 44.3855 13.4496 44.3855 13.4496C44.3855 13.4496 45.3673 12.1847 46.4812 12.1847C47.293 12.1847 48.1426 12.8077 48.5768 12.8077C48.6222 12.814 48.6684 12.8104 48.7123 12.797C48.7561 12.7837 48.7965 12.7609 48.8306 12.7304C48.8648 12.6998 48.8918 12.6622 48.91 12.6201C48.9281 12.578 48.9368 12.5325 48.9356 12.4867C48.9356 12.0147 47.8594 11.5805 47.8594 10.24C47.8594 9.2394 48.709 8.67301 49.5775 8.67301C50.4459 8.67301 51.1634 9.29604 51.6165 9.76804C52.0696 10.24 52.7304 10.9575 53.2402 11.2029C53.5745 11.4072 53.9627 11.5059 54.3541 11.4861C54.3541 11.4861 54.2597 12.0525 53.5233 12.0525C52.7115 12.0525 51.9186 11.1085 50.9935 11.1085C50.276 11.1085 50.0683 11.5805 50.0683 11.8448C50.0683 12.5434 50.9368 13.072 51.7864 13.072H56.6008V8.25765C56.6008 7.38918 56.0721 6.53959 55.3736 6.53959C55.1281 6.53959 54.6373 6.74727 54.6373 7.44582C54.6373 8.37093 55.5813 9.16388 55.5813 9.97572C55.5813 10.6931 55.0149 10.8064 55.0149 10.8064C55.0149 10.3722 54.996 10.2212 54.7317 9.69252C54.4673 9.16388 53.7877 8.50309 53.2968 8.06885C52.8059 7.63462 52.2018 6.89831 52.2018 6.02984C52.2018 5.16136 52.7493 4.31178 53.7688 4.31178C55.1093 4.31178 55.5246 5.38792 56.0155 5.38792C56.1665 5.38792 56.3364 5.31241 56.3364 5.02921C56.3364 4.59497 55.7134 3.74538 55.7134 2.93355C55.7134 1.81964 56.9784 0.837891 56.9784 0.837891C56.9784 0.837891 58.2433 1.81964 58.2433 2.93355C58.2433 3.74538 57.6203 4.59497 57.6203 5.02921C57.6139 5.07459 57.6176 5.12079 57.6309 5.16462C57.6443 5.20845 57.667 5.24884 57.6976 5.28299C57.7281 5.31713 57.7657 5.3442 57.8078 5.36233C57.8499 5.38045 57.8954 5.38919 57.9412 5.38792C58.4132 5.38792 58.8475 4.31178 60.1879 4.31178C61.1885 4.31178 61.7549 5.16136 61.7549 6.02984C61.7549 6.89831 61.1319 7.61574 60.6599 8.06885C60.1879 8.52197 59.4705 9.18276 59.225 9.69252C58.9796 10.2023 58.9419 10.3911 58.9607 10.8064C58.9607 10.8064 58.3943 10.712 58.3943 9.97572C58.3943 9.16388 59.3383 8.37093 59.3383 7.44582C59.3383 6.72839 58.8663 6.53959 58.602 6.53959C57.9035 6.53959 57.3748 7.40806 57.3748 8.25765V13.072" fill="white"/>
<path d="M44.7631 56.3822V59.4407C44.0834 60.1015 43.1961 60.8378 41.4591 60.8378C39.4956 60.8378 37.7398 59.1764 37.7398 56.5521C37.7398 54.06 39.4012 52.1153 41.6857 52.1153C42.3034 52.1042 42.9138 52.2509 43.4589 52.5416C44.0041 52.8324 44.466 53.2575 44.8009 53.7768L44.0268 54.4942C44.0268 54.4942 43.2527 53.0216 41.6857 53.0216C40.1187 53.0216 38.9104 54.3998 38.9104 56.6087C38.9104 58.7044 40.2319 59.9315 41.629 59.9315C42.4148 59.9118 43.1637 59.5946 43.7247 59.0442V57.2884H41.1571V56.3633" fill="white"/>
<path d="M51.0312 52.2666L50.5026 53.1917H47.3119V55.8349H50.276V56.76H47.3119V59.743H50.4271L50.9557 60.687H46.2357V52.2666" fill="white"/>
<path d="M56.7896 52.2666H57.8091V60.687H56.714L52.9003 53.7959V60.687H51.8808V52.2666H53.2779L56.7896 58.6102" fill="white"/>
<path d="M76.3113 52.2666L75.7638 53.1917H72.592V55.8349H75.5561V56.76H72.592V59.743H75.7072L76.2358 60.687H71.5158V52.2666" fill="white"/>
</g>
<defs>
<clipPath id="clip0_3_2384">
<rect width="113.279" height="60" fill="white" transform="translate(0.716553 0.837891)"/>
</clipPath>
</defs>
</svg>
