<svg width="70" height="51" viewBox="0 0 70 51" fill="none" xmlns="http://www.w3.org/2000/svg">
<g filter="url(#filter0_d_3_2634)">
<rect x="5" y="5.3418" width="60" height="40" rx="5" fill="white"/>
<g clip-path="url(#clip0_3_2634)">
<path d="M22.6867 40.2764V38.2855C22.6867 37.5239 22.2228 37.0252 21.4264 37.0252C21.0282 37.0252 20.5953 37.1566 20.2976 37.5896C20.0656 37.2262 19.7331 37.0252 19.2344 37.0252C18.902 37.0252 18.5695 37.1257 18.3066 37.4891V37.0909H17.6107V40.2764H18.3066V38.5174C18.3066 37.953 18.6043 37.6862 19.0682 37.6862C19.5321 37.6862 19.7641 37.9839 19.7641 38.5174V40.2764H20.4599V38.5174C20.4599 37.953 20.7924 37.6862 21.2215 37.6862C21.6855 37.6862 21.9174 37.9839 21.9174 38.5174V40.2764H22.6867ZM33.0089 37.0909H31.88V36.1282H31.1842V37.0909H30.554V37.721H31.1842V39.1824C31.1842 39.913 31.4819 40.3422 32.2782 40.3422C32.5759 40.3422 32.9084 40.2417 33.1404 40.1102L32.9393 39.511C32.7383 39.6424 32.5063 39.6772 32.3401 39.6772C32.0076 39.6772 31.8762 39.4762 31.8762 39.1476V37.721H33.005V37.0909H33.0089ZM38.9161 37.0213C38.5179 37.0213 38.2512 37.2223 38.0849 37.4852V37.087H37.3891V40.2726H38.0849V38.4788C38.0849 37.9491 38.3169 37.6476 38.7499 37.6476C38.8813 37.6476 39.0476 37.6824 39.1829 37.7133L39.3839 37.0484C39.2447 37.0213 39.0476 37.0213 38.9161 37.0213ZM29.9896 37.3538C29.6571 37.1218 29.1932 37.0213 28.6945 37.0213C27.8981 37.0213 27.3685 37.4195 27.3685 38.0496C27.3685 38.5793 27.7666 38.8808 28.4625 38.9775L28.795 39.0123C29.1584 39.078 29.3594 39.1785 29.3594 39.3447C29.3594 39.5767 29.0927 39.7429 28.6288 39.7429C28.1648 39.7429 27.7976 39.5767 27.5656 39.4105L27.2331 39.9401C27.5965 40.2069 28.0953 40.3383 28.594 40.3383C29.5218 40.3383 30.0553 39.9053 30.0553 39.31C30.0553 38.7455 29.6223 38.4478 28.9612 38.3473L28.6288 38.3125C28.3311 38.2777 28.0991 38.212 28.0991 38.0148C28.0991 37.7829 28.3311 37.6514 28.6983 37.6514C29.0965 37.6514 29.4947 37.8177 29.6958 37.9182L29.9896 37.3538ZM48.5038 37.0213C48.1056 37.0213 47.8388 37.2223 47.6726 37.4852V37.087H46.9767V40.2726H47.6726V38.4788C47.6726 37.9491 47.9045 37.6476 48.3375 37.6476C48.469 37.6476 48.6352 37.6824 48.7705 37.7133L48.9715 37.0561C48.8362 37.0213 48.6391 37.0213 48.5038 37.0213ZM39.612 38.6837C39.612 39.6463 40.277 40.3422 41.3053 40.3422C41.7692 40.3422 42.1017 40.2417 42.4342 39.9788L42.1017 39.4143C41.8349 39.6154 41.5721 39.712 41.2705 39.712C40.7061 39.712 40.3079 39.3138 40.3079 38.6837C40.3079 38.0844 40.7061 37.6862 41.2705 37.6553C41.5682 37.6553 41.8349 37.7558 42.1017 37.953L42.4342 37.3886C42.1017 37.1218 41.7692 37.0252 41.3053 37.0252C40.277 37.0213 39.612 37.721 39.612 38.6837ZM46.0489 38.6837V37.0909H45.353V37.4891C45.121 37.1914 44.7886 37.0252 44.3556 37.0252C43.4587 37.0252 42.7628 37.721 42.7628 38.6837C42.7628 39.6463 43.4587 40.3422 44.3556 40.3422C44.8195 40.3422 45.152 40.1759 45.353 39.8783V40.2764H46.0489V38.6837ZM43.4934 38.6837C43.4934 38.1192 43.8569 37.6553 44.4561 37.6553C45.0205 37.6553 45.4187 38.0883 45.4187 38.6837C45.4187 39.2481 45.0205 39.712 44.4561 39.712C43.8607 39.6772 43.4934 39.2442 43.4934 38.6837ZM35.1661 37.0213C34.2383 37.0213 33.5733 37.6862 33.5733 38.6798C33.5733 39.6772 34.2383 40.3383 35.2009 40.3383C35.6648 40.3383 36.1288 40.2069 36.496 39.9053L36.1636 39.4066C35.8968 39.6076 35.5643 39.7391 35.2357 39.7391C34.8027 39.7391 34.3736 39.538 34.2731 38.9775H36.6275C36.6275 38.877 36.6275 38.8112 36.6275 38.7107C36.6584 37.6862 36.0592 37.0213 35.1661 37.0213ZM35.1661 37.6205C35.5991 37.6205 35.8968 37.8873 35.9625 38.3821H34.304C34.3697 37.953 34.6674 37.6205 35.1661 37.6205ZM52.4548 38.6837V35.8306H51.7589V37.4891C51.527 37.1914 51.1945 37.0252 50.7615 37.0252C49.8646 37.0252 49.1687 37.721 49.1687 38.6837C49.1687 39.6463 49.8646 40.3422 50.7615 40.3422C51.2254 40.3422 51.5579 40.1759 51.7589 39.8783V40.2764H52.4548V38.6837ZM49.8994 38.6837C49.8994 38.1192 50.2628 37.6553 50.862 37.6553C51.4264 37.6553 51.8246 38.0883 51.8246 38.6837C51.8246 39.2481 51.4264 39.712 50.862 39.712C50.2628 39.6772 49.8994 39.2442 49.8994 38.6837ZM26.603 38.6837V37.0909H25.9071V37.4891C25.6751 37.1914 25.3427 37.0252 24.9097 37.0252C24.0128 37.0252 23.3169 37.721 23.3169 38.6837C23.3169 39.6463 24.0128 40.3422 24.9097 40.3422C25.3736 40.3422 25.7061 40.1759 25.9071 39.8783V40.2764H26.603V38.6837ZM24.0166 38.6837C24.0166 38.1192 24.38 37.6553 24.9793 37.6553C25.5437 37.6553 25.9419 38.0883 25.9419 38.6837C25.9419 39.2481 25.5437 39.712 24.9793 39.712C24.38 39.6772 24.0166 39.2442 24.0166 38.6837Z" fill="black"/>
<path d="M40.2112 12.8979H29.7576V31.6789H40.2112V12.8979Z" fill="#FF5A00"/>
<path d="M30.4536 22.2877C30.4536 18.472 32.2474 15.0854 35 12.8972C32.9742 11.3044 30.4188 10.3418 27.6314 10.3418C21.0283 10.3418 15.6855 15.6846 15.6855 22.2877C15.6855 28.8908 21.0283 34.2335 27.6314 34.2335C30.4188 34.2335 32.9742 33.2709 35 31.6781C32.2435 29.5209 30.4536 26.1034 30.4536 22.2877Z" fill="#EB001B"/>
<path d="M54.3145 22.2877C54.3145 28.8908 48.9717 34.2335 42.3686 34.2335C39.5812 34.2335 37.0258 33.2709 35 31.6781C37.7874 29.4861 39.5464 26.1034 39.5464 22.2877C39.5464 18.472 37.7526 15.0854 35 12.8972C37.0219 11.3044 39.5773 10.3418 42.3647 10.3418C48.9717 10.3418 54.3145 15.7194 54.3145 22.2877Z" fill="#F79E1B"/>
</g>
</g>
<defs>
<filter id="filter0_d_3_2634" x="0" y="0.341797" width="70" height="50" filterUnits="userSpaceOnUse" color-interpolation-filters="sRGB">
<feFlood flood-opacity="0" result="BackgroundImageFix"/>
<feColorMatrix in="SourceAlpha" type="matrix" values="0 0 0 0 0 0 0 0 0 0 0 0 0 0 0 0 0 0 127 0" result="hardAlpha"/>
<feOffset/>
<feGaussianBlur stdDeviation="2.5"/>
<feColorMatrix type="matrix" values="0 0 0 0 0 0 0 0 0 0 0 0 0 0 0 0 0 0 0.1 0"/>
<feBlend mode="normal" in2="BackgroundImageFix" result="effect1_dropShadow_3_2634"/>
<feBlend mode="normal" in="SourceGraphic" in2="effect1_dropShadow_3_2634" result="shape"/>
</filter>
<clipPath id="clip0_3_2634">
<rect width="38.6289" height="30" fill="white" transform="translate(15.6855 10.3418)"/>
</clipPath>
</defs>
</svg>
