<svg width="70" height="51" viewBox="0 0 70 51" fill="none" xmlns="http://www.w3.org/2000/svg">
<g filter="url(#filter0_d_3_2595)">
<rect x="5" y="5.3418" width="60" height="40" rx="5" fill="white"/>
<path d="M44.9719 20.4744C44.9719 20.4743 44.9719 20.4742 44.9718 20.4741L41.1958 10.9927C41.1156 10.7912 40.8873 10.6929 40.6858 10.773C40.6857 10.7731 40.6855 10.7731 40.6854 10.7732L25.3663 16.8731C25.3038 16.9001 25.2496 16.9432 25.2093 16.998C25.0819 17.0642 25.0014 17.1952 25 17.3388V27.5465C25 27.7633 25.1758 27.9391 25.3926 27.9391H41.882C42.0988 27.9391 42.2746 27.7633 42.2746 27.5465V21.9715L44.7528 20.9845C44.9542 20.9042 45.0523 20.6758 44.9719 20.4744ZM41.4894 27.1539H25.7852V17.7314H41.4894V27.1539ZM31.5506 16.9481L38.1244 14.3287C38.7111 14.9453 39.524 15.2958 40.3752 15.2992L41.0309 16.9481H31.5506ZM42.2746 21.1282V17.3388C42.2746 17.1219 42.0988 16.9462 41.882 16.9462H41.8757L41.0438 14.8567C41.0346 14.8393 41.0238 14.8227 41.0116 14.8072C40.9695 14.6182 40.7944 14.4891 40.6013 14.5049C39.8094 14.5771 39.0346 14.2435 38.5429 13.6184C38.4206 13.4674 38.2055 13.4299 38.0392 13.5305C38.0206 13.5327 38.0021 13.5361 37.9838 13.5407L29.9582 16.7365C29.8611 16.7746 29.7834 16.8501 29.7427 16.9462H27.3054L40.6116 11.6479L44.0975 20.4011L42.2746 21.1282Z" fill="#B2071D"/>
<path d="M26.8508 24.5035C27.613 24.7288 28.2095 25.3245 28.4357 26.0864C28.4853 26.2528 28.6383 26.3667 28.8118 26.3668C28.8322 26.3655 28.8524 26.3624 28.8723 26.3577C28.8899 26.3627 28.9079 26.3664 28.9261 26.3687H38.3486C38.3648 26.3666 38.3808 26.3633 38.3965 26.3589C38.5926 26.4066 38.7903 26.2863 38.8381 26.0902C38.8382 26.0894 38.8384 26.0887 38.8386 26.088C39.0642 25.3253 39.6608 24.7287 40.4235 24.5031C40.6085 24.4465 40.7234 24.2622 40.6928 24.0712C40.6981 24.0521 40.7019 24.0327 40.7042 24.0131V20.8722C40.7019 20.8526 40.698 20.8331 40.6924 20.8141C40.7232 20.6231 40.6082 20.4387 40.4231 20.3823C39.6604 20.1567 39.064 19.5599 38.839 18.7969C38.7821 18.6107 38.596 18.4954 38.4039 18.5276C38.3858 18.5225 38.3673 18.5189 38.3486 18.5166H28.9261C28.9063 18.519 28.8867 18.5229 28.8676 18.5284C28.6766 18.498 28.4924 18.6128 28.4357 18.7977C28.2099 19.5603 27.6134 20.1567 26.8508 20.3823C26.6658 20.4388 26.5509 20.6231 26.5814 20.8141C26.5763 20.8332 26.5726 20.8526 26.5704 20.8722V24.0131C26.5727 24.0315 26.5764 24.0498 26.5814 24.0677C26.5492 24.2599 26.6644 24.4463 26.8508 24.5035ZM27.3556 21.0316C28.144 20.715 28.7688 20.0902 29.0855 19.3018H38.1888C38.5056 20.0902 39.1306 20.715 39.919 21.0316V23.8537C39.1309 24.1707 38.5062 24.7954 38.1892 25.5835H29.0855C28.7685 24.7954 28.1438 24.1707 27.3556 23.8537V21.0316Z" fill="#B2071D"/>
<path d="M33.6373 24.7987C34.9383 24.7987 35.9929 23.744 35.9929 22.443C35.9929 21.142 34.9383 20.0874 33.6373 20.0874C32.3363 20.0874 31.2817 21.142 31.2817 22.443C31.283 23.7435 32.3369 24.7974 33.6373 24.7987ZM33.6373 20.8726C34.5046 20.8726 35.2077 21.5757 35.2077 22.443C35.2077 23.3103 34.5046 24.0135 33.6373 24.0135C32.77 24.0135 32.0669 23.3103 32.0669 22.443C32.0669 21.5757 32.77 20.8726 33.6373 20.8726Z" fill="#B2071D"/>
<path d="M29.3186 23.0318C29.6439 23.0318 29.9076 22.7681 29.9076 22.4429C29.9076 22.1177 29.6439 21.854 29.3186 21.854C28.9934 21.854 28.7297 22.1177 28.7297 22.4429C28.7297 22.7682 28.9934 23.0318 29.3186 23.0318ZM29.3186 22.2466C29.4271 22.2466 29.5149 22.3345 29.5149 22.4429C29.5149 22.5513 29.4271 22.6392 29.3186 22.6392C29.2102 22.6392 29.1223 22.5513 29.1223 22.4429C29.1223 22.3345 29.2102 22.2466 29.3186 22.2466Z" fill="#B2071D"/>
<path d="M37.956 23.0318C38.2812 23.0318 38.5449 22.7681 38.5449 22.4429C38.5449 22.1177 38.2812 21.854 37.956 21.854C37.6307 21.854 37.3671 22.1177 37.3671 22.4429C37.3671 22.7682 37.6307 23.0318 37.956 23.0318ZM37.956 22.2466C38.0644 22.2466 38.1523 22.3345 38.1523 22.4429C38.1523 22.5513 38.0644 22.6392 37.956 22.6392C37.8476 22.6392 37.7597 22.5513 37.7597 22.4429C37.7597 22.3345 37.8476 22.2466 37.956 22.2466Z" fill="#B2071D"/>
<path d="M20.868 32.9338H19.524V32.1418H23.184V32.9338H21.84V36.3418H20.868V32.9338ZM23.707 32.1418H24.679V36.3418H23.707V32.1418ZM28.9277 35.5618V36.3418H25.6757V32.1418H28.8497V32.9218H26.6417V33.8338H28.5917V34.5898H26.6417V35.5618H28.9277ZM27.7817 31.7998L27.2657 31.4578L26.7497 31.7998H26.0597L26.8577 31.1158H27.6737L28.4717 31.7998H27.7817ZM27.4037 30.4978H28.3577L29.0177 31.2238H28.3457L27.4037 30.4978ZM33.5531 32.1418V36.3418H32.7551L30.6611 33.7918V36.3418H29.7011V32.1418H30.5051L32.5931 34.6918V32.1418H33.5531ZM40.068 36.3418L40.062 33.8218L38.826 35.8978H38.388L37.158 33.8758V36.3418H36.246V32.1418H37.05L38.622 34.7518L40.17 32.1418H40.968L40.98 36.3418H40.068ZM44.7425 35.4418H42.7925L42.4205 36.3418H41.4245L43.2965 32.1418H44.2565L46.1345 36.3418H45.1145L44.7425 35.4418ZM44.4365 34.7038L43.7705 33.0958L43.1045 34.7038H44.4365ZM43.7765 37.6018C43.6565 37.6018 43.5565 37.5638 43.4765 37.4878C43.4005 37.4158 43.3625 37.3198 43.3625 37.1998C43.3625 37.0798 43.4005 36.9798 43.4765 36.8998C43.5565 36.8198 43.6565 36.7798 43.7765 36.7798C43.8925 36.7798 43.9905 36.8198 44.0705 36.8998C44.1505 36.9798 44.1905 37.0798 44.1905 37.1998C44.1905 37.3198 44.1505 37.4158 44.0705 37.4878C43.9945 37.5638 43.8965 37.6018 43.7765 37.6018ZM43.7765 31.8478C43.4605 31.8478 43.2005 31.7658 42.9965 31.6018C42.7925 31.4378 42.6845 31.2158 42.6725 30.9358H43.2605C43.2645 31.0638 43.3145 31.1678 43.4105 31.2478C43.5105 31.3238 43.6325 31.3618 43.7765 31.3618C43.9205 31.3618 44.0405 31.3238 44.1365 31.2478C44.2365 31.1678 44.2885 31.0638 44.2925 30.9358H44.8805C44.8685 31.2158 44.7605 31.4378 44.5565 31.6018C44.3525 31.7658 44.0925 31.8478 43.7765 31.8478ZM47.2293 32.9338H45.8853V32.1418H49.5453V32.9338H48.2013V36.3418H47.2293V32.9338Z" fill="black"/>
</g>
<defs>
<filter id="filter0_d_3_2595" x="0" y="0.341797" width="70" height="50" filterUnits="userSpaceOnUse" color-interpolation-filters="sRGB">
<feFlood flood-opacity="0" result="BackgroundImageFix"/>
<feColorMatrix in="SourceAlpha" type="matrix" values="0 0 0 0 0 0 0 0 0 0 0 0 0 0 0 0 0 0 127 0" result="hardAlpha"/>
<feOffset/>
<feGaussianBlur stdDeviation="2.5"/>
<feColorMatrix type="matrix" values="0 0 0 0 0 0 0 0 0 0 0 0 0 0 0 0 0 0 0.1 0"/>
<feBlend mode="normal" in2="BackgroundImageFix" result="effect1_dropShadow_3_2595"/>
<feBlend mode="normal" in="SourceGraphic" in2="effect1_dropShadow_3_2595" result="shape"/>
</filter>
</defs>
</svg>
