<svg width="238" height="51" viewBox="0 0 238 51" fill="none" xmlns="http://www.w3.org/2000/svg">
<g clip-path="url(#clip0_3_2533)">
<path d="M99.0634 31.721C99.8299 31.721 100.522 31.6909 101.211 31.721C101.719 31.7511 101.879 31.5941 101.875 31.065C101.856 27.0885 101.865 23.1077 101.865 19.1376C101.865 18.9656 101.845 18.7935 101.837 18.6279H99.0613V23.4991H94.0868V18.6344H91.4181V31.6866H94.1145V25.9422H99.0634V31.721Z" fill="white"/>
<path d="M138.889 22.439C139.009 20.7852 137.739 19.1013 136.114 18.5937C134.633 18.1193 133.041 18.1239 131.562 18.6066C130.958 18.8039 130.412 19.1496 129.973 19.6127C129.535 20.0757 129.218 20.6414 129.05 21.2588C128.883 21.8762 128.871 22.5258 129.016 23.149C129.16 23.7722 129.456 24.3494 129.878 24.8284C130.452 25.4929 131.244 25.6886 132.013 25.9037C133.232 26.265 134.474 26.5489 135.7 26.8844C136.257 27.0414 136.686 27.3769 136.748 28.0156C136.786 28.3202 136.721 28.6288 136.563 28.8913C136.405 29.1537 136.163 29.3544 135.877 29.4608C135.555 29.6093 135.211 29.7024 134.859 29.7361C133.063 29.8716 131.656 29.7555 131.283 27.764H128.755C128.84 29.3103 129.28 30.2265 130.315 30.9899C130.984 31.4824 131.746 31.6803 132.559 31.8502C134.026 32.1991 135.565 32.0704 136.955 31.4824C139.269 30.5146 139.667 28.521 139.156 26.5489C138.842 25.3273 137.749 24.6929 136.569 24.3466C135.772 24.1144 134.959 23.9509 134.158 23.7337C133.492 23.5552 132.824 23.3789 132.179 23.1423C131.24 22.796 131.344 21.3315 132.043 20.94C133.087 20.3508 134.152 20.3809 135.213 20.7916C135.928 21.0691 136.244 21.7143 136.355 22.4218L138.889 22.439Z" fill="white"/>
<path d="M104.518 18.6196C104.498 18.6651 104.482 18.7127 104.471 18.7616C104.471 21.7531 104.454 24.7446 104.471 27.7362C104.471 29.2523 105.08 30.4739 106.393 31.2782C107.625 32.0353 109.006 32.1772 110.387 32.0245C111.242 31.9294 112.074 31.6841 112.845 31.2997C114.455 30.4761 114.82 28.8996 114.852 27.2652C114.905 24.5618 114.867 21.8542 114.867 19.1487C114.867 18.9766 114.85 18.8046 114.843 18.6325H112.087V19.2326C112.087 21.9381 112.087 24.6435 112.087 27.349C112.076 29.2846 110.114 30.4051 108.404 29.4868C107.435 28.9642 107.198 28.0803 107.191 27.0953C107.172 24.4629 107.191 21.8284 107.191 19.1938V18.6196H104.518Z" fill="white"/>
<path d="M146.138 24.1832C145.997 23.9166 145.905 23.7531 145.824 23.5854C145.081 22.0111 144.342 20.4347 143.586 18.8669C143.553 18.804 143.506 18.7493 143.449 18.7066C143.392 18.6639 143.327 18.6342 143.258 18.6195C142.288 18.598 141.317 18.6066 140.307 18.6066C141.535 20.8971 142.705 23.1488 143.937 25.3596C144.462 26.2973 144.876 27.2092 144.75 28.3253C144.708 28.9869 144.703 29.6504 144.735 30.3125V31.6954H147.421C147.421 30.2115 147.421 28.7641 147.421 27.3167C147.415 27.0707 147.465 26.8267 147.566 26.6027C148.444 24.8822 149.34 23.1617 150.235 21.4412C150.715 20.5186 151.202 19.5959 151.729 18.6045C150.728 18.6045 149.808 18.6045 148.892 18.6174C148.823 18.6317 148.757 18.6616 148.701 18.7048C148.645 18.748 148.599 18.8034 148.567 18.8669C148.256 19.5121 147.967 20.1572 147.673 20.8024C147.175 21.8907 146.674 22.9853 146.138 24.1832Z" fill="white"/>
<path d="M123.513 31.6955C123.513 30.1901 123.513 28.7298 123.513 27.2781C123.507 27.0309 123.556 26.7855 123.656 26.5598C124.63 24.663 125.621 22.7747 126.607 20.8843L127.809 18.5982C126.842 18.5982 125.971 18.5788 125.1 18.6133C124.996 18.6286 124.898 18.6668 124.811 18.7252C124.724 18.7836 124.651 18.8607 124.598 18.9509C124.13 19.9273 123.708 20.9252 123.261 21.9102C122.93 22.6435 122.587 23.3726 122.224 24.1554C122.16 24.0745 122.102 23.9897 122.049 23.9017C121.293 22.2758 120.537 20.6499 119.773 19.0305C119.692 18.8606 119.512 18.624 119.369 18.6176C118.402 18.581 117.433 18.5982 116.404 18.5982C116.5 18.8133 116.555 18.9638 116.628 19.1014C117.828 21.3209 118.991 23.5597 120.247 25.7447C120.702 26.5082 120.914 27.394 120.853 28.2825C120.81 29.0503 120.853 29.8223 120.853 30.5923V31.6955H123.513Z" fill="white"/>
<path d="M89.772 18.4688H79.3298V20.7699H82.4639C83.1044 20.7699 83.1536 20.8151 83.1536 21.4796C83.1536 24.6131 83.1535 27.7444 83.1429 30.8779C83.1429 31.3446 83.2923 31.5231 83.7449 31.5037C84.2424 31.4822 84.7399 31.5037 85.2394 31.5037C85.8799 31.5037 85.9355 31.4478 85.9355 30.7919C85.9355 28.267 85.9355 25.7429 85.9355 23.2195C85.9355 22.6109 85.9355 22.0022 85.9355 21.3936C85.9355 20.9635 86.087 20.7097 86.593 20.7484C87.099 20.7871 87.5858 20.7484 88.0875 20.7484H89.7763L89.772 18.4688Z" fill="white"/>
<path d="M45.2874 26.0435H49.6257C49.6107 26.2586 49.6022 26.4242 49.5894 26.5855C49.4847 27.9275 49.0898 29.1469 48.0052 30.0265C47.4795 30.4468 46.8668 30.7429 46.2124 30.893C45.5579 31.043 44.8784 31.043 44.2239 30.8932C43.5694 30.7433 42.9567 30.4474 42.4309 30.0271C41.9051 29.6069 41.4797 29.0731 41.186 28.4651C40.473 27.035 40.473 25.536 40.6288 24.0219C40.742 22.9187 41.0366 21.8412 41.739 20.9487C42.9816 19.368 44.6469 19.0282 46.5086 19.4432C47.1065 19.5524 47.6652 19.8185 48.1285 20.2146C48.5918 20.6106 48.9432 21.1227 49.1474 21.6992C49.3609 22.3122 49.6555 22.4563 50.2149 22.3788C50.3345 22.3616 50.4583 22.3616 50.58 22.3552C50.5565 21.2584 49.7388 19.839 48.6585 19.1723C46.7562 17.9744 44.7451 17.9744 42.6998 18.7099C41.6668 19.0971 40.8061 19.845 40.2744 20.8175C39.4204 22.3229 39.2496 24.0198 39.35 25.7424C39.4396 27.2715 39.6958 28.7533 40.6587 30.0007C42.0251 31.7663 43.8612 32.2653 45.9962 31.9664C47.5675 31.7513 48.8037 30.9921 49.758 29.5039V31.6266H50.7743V24.8564H45.2874V26.0435Z" fill="white"/>
<path d="M169.341 18.5551V31.6912H170.541V20.3401C170.684 20.5165 170.754 20.5767 170.791 20.6477C171.762 22.1531 172.712 23.6736 173.701 25.1769C175.071 27.2831 176.451 29.3814 177.84 31.4718C177.882 31.533 177.935 31.5855 177.996 31.6261C178.058 31.6667 178.127 31.6946 178.199 31.7084C178.598 31.7385 179.004 31.7213 179.407 31.7213V18.5831H178.165V29.7663L178.02 29.7986C176.762 27.8394 175.513 25.8737 174.245 23.9209C173.139 22.2205 172.02 20.5272 170.887 18.8411C170.762 18.6874 170.584 18.5868 170.389 18.5594C170.04 18.5351 169.69 18.5337 169.341 18.5551Z" fill="white"/>
<path d="M35.6543 29.6394L35.5134 29.6889C35.3938 29.5168 35.2721 29.3469 35.159 29.1749L28.6088 19.2174C28.1541 18.5249 27.5968 18.3572 26.7834 18.6948V26.8522C26.7834 28.2673 26.7834 29.6824 26.7941 31.0975C26.7941 31.2674 26.9222 31.5406 27.0524 31.5857C27.6929 31.8008 27.9747 31.5857 27.9747 30.9083C27.9747 27.6479 27.9747 24.3876 27.9747 21.1272C27.9747 20.9422 27.9897 20.7551 28.0025 20.4304C28.1776 20.6455 28.2779 20.7659 28.359 20.8885L32.644 27.4113C33.4766 28.6759 34.305 29.9426 35.1419 31.2051C35.3874 31.575 36.2094 31.8352 36.6214 31.5728C36.805 31.4567 36.8606 31.0287 36.8627 30.7405C36.8776 26.8887 36.8627 23.037 36.8819 19.1873C36.8819 18.6798 36.7068 18.5421 36.2414 18.5421C35.776 18.5421 35.6436 18.712 35.6457 19.1873C35.665 22.4821 35.6564 25.779 35.6564 29.0802L35.6543 29.6394Z" fill="white"/>
<path d="M53.7889 18.5874V31.4912H54.9909V25.2027H62.6192V31.5105H63.802V18.5896H62.6107V24.1038H54.961V18.5874H53.7889Z" fill="white"/>
<path d="M157.304 18.6366C157.349 18.7743 157.396 18.9356 157.451 19.0969C157.878 20.3399 158.305 21.5808 158.732 22.8261C159.701 25.6864 160.654 28.5489 161.648 31.4028C161.697 31.4829 161.761 31.5515 161.838 31.6039C161.915 31.6563 162.003 31.6911 162.095 31.706C162.435 31.735 162.777 31.74 163.117 31.7211C164.612 27.3273 166.089 22.9744 167.601 18.5549C167.393 18.5691 167.185 18.5691 166.977 18.5549C166.503 18.4839 166.258 18.6431 166.1 19.1356C165.233 21.8626 164.33 24.5767 163.433 27.2951C163.134 28.1983 162.818 29.0951 162.477 30.0909C162.392 29.9365 162.315 29.7779 162.246 29.6156C161.894 28.5747 161.542 27.5316 161.198 26.4864C160.434 24.1767 159.686 21.8604 158.907 19.5549C158.544 18.4796 158.516 18.4796 157.413 18.5592C157.385 18.5635 157.372 18.5829 157.304 18.6366Z" fill="white"/>
<path d="M156.922 29.3233C157.033 28.1297 156.068 26.8006 154.479 26.7812C153.836 26.7987 153.223 27.0619 152.764 27.5175C152.306 27.9731 152.037 28.5871 152.011 29.2351C152.02 29.8829 152.275 30.5025 152.725 30.966C153.174 31.4294 153.783 31.7013 154.426 31.7255C155.867 31.7385 156.922 30.7212 156.922 29.3233Z" fill="white"/>
<path d="M-1.25961e-05 18.6025C1.50942 18.6025 3.01886 18.5702 4.5283 18.5831C5.57481 18.5561 6.61623 18.7388 7.59201 19.1208C8.06728 19.3218 8.49857 19.6153 8.86123 19.9843C9.2239 20.3533 9.51083 20.7907 9.70565 21.2714C10.645 23.3812 10.7006 25.5254 10.1689 27.7491C9.72913 29.5901 7.82045 31.4181 5.75592 31.502C3.83443 31.5794 1.91294 31.5815 -0.00855255 31.6181L-1.25961e-05 18.6025ZM1.19985 19.5337V23.3339C1.19985 25.5548 1.19985 27.7771 1.19985 30.0008C1.19985 30.2396 1.12513 30.5256 1.53504 30.517C2.83312 30.4826 4.15681 30.6224 5.41859 30.4008C7.56639 30.0202 8.38622 29.4761 8.96908 27.3728C9.53485 25.3361 9.44304 23.321 8.32858 21.4134C7.85461 20.6069 7.20771 20.0305 6.35798 19.9208C4.67775 19.695 2.97403 19.6563 1.19985 19.5337Z" fill="white"/>
<path d="M188.519 0.124023H237.964C237.964 0.339086 237.989 0.554149 237.989 0.756309C237.989 16.9921 237.989 33.2287 237.989 49.4659C237.989 49.9735 237.87 50.124 237.349 50.124C221.299 50.1082 205.252 50.1047 189.207 50.1133C188.511 50.1133 188.511 50.1133 188.511 49.4036V0.124023H188.519ZM216.488 35.8675V28.4306H223.881V21.8454H216.488V14.4408H210.068V21.8583H202.736V28.4371H210.111V35.8675H216.488ZM234.516 24.2111H227.432V26.0864H234.516V24.2111ZM225.961 18.813L232.163 15.1956L231.206 13.5719L225.015 17.1807C225.344 17.7463 225.636 18.2474 225.961 18.8087V18.813ZM232.152 35.0825L225.95 31.4652C225.628 32.0308 225.333 32.5405 225.017 33.1061L231.209 36.7105L232.152 35.0825ZM221.153 37.0181L219.539 37.9644L223.119 44.2119L224.727 43.2356C223.533 41.1451 222.357 39.1106 221.155 37.0116L221.153 37.0181ZM223.106 6.06621C221.889 8.19749 220.719 10.2449 219.539 12.3159L221.142 13.2622C222.353 11.1482 223.525 9.10075 224.714 7.0254L223.106 6.06621ZM212.431 3.66611V10.8299H214.197V3.66611H212.431ZM214.231 46.5368V45.5023C214.231 43.6248 214.231 41.7473 214.231 39.8698C214.231 39.7128 214.107 39.4397 214.018 39.4225C213.497 39.3816 212.969 39.401 212.448 39.401V46.5346L214.231 46.5368Z" fill="white"/>
<path d="M99.0634 31.7213V25.9426H94.1145V31.6869H91.4181V18.6348H94.0868V23.5081H99.0506V18.6369H101.826C101.826 18.8025 101.854 18.9746 101.854 19.1466C101.854 23.1231 101.854 27.1039 101.865 31.074C101.865 31.6031 101.709 31.7601 101.201 31.73C100.511 31.6912 99.8192 31.7213 99.0634 31.7213Z" fill="white"/>
<path d="M138.889 22.4389H136.355C136.244 21.7314 135.928 21.0862 135.213 20.8087C134.146 20.398 133.078 20.3679 132.043 20.9571C131.344 21.3485 131.24 22.8131 132.179 23.1594C132.82 23.3959 133.492 23.5723 134.158 23.7508C134.959 23.9659 135.772 24.1315 136.569 24.3637C137.749 24.71 138.842 25.3444 139.156 26.566C139.667 28.5381 139.269 30.5317 136.955 31.4995C135.565 32.0875 134.026 32.2162 132.559 31.8673C131.746 31.6866 130.984 31.4888 130.315 31.007C129.28 30.2436 128.84 29.3274 128.755 27.7811H131.278C131.645 29.7726 133.057 29.8887 134.852 29.7532C135.205 29.7195 135.549 29.6264 135.871 29.4779C136.156 29.3715 136.398 29.1708 136.556 28.9084C136.715 28.6459 136.78 28.3373 136.742 28.0327C136.68 27.3875 136.251 27.0585 135.693 26.9015C134.468 26.5595 133.225 26.2821 132.006 25.9208C131.24 25.695 130.448 25.5036 129.871 24.8455C129.45 24.3664 129.154 23.7893 129.009 23.1661C128.865 22.5429 128.877 21.8933 129.044 21.2759C129.211 20.6585 129.528 20.0928 129.967 19.6297C130.405 19.1667 130.951 18.821 131.556 18.6237C133.035 18.1409 134.626 18.1364 136.108 18.6108C137.739 19.1011 139.009 20.7851 138.889 22.4389Z" fill="white"/>
<path d="M104.518 18.6196H107.176V19.1938C107.176 21.8284 107.164 24.4629 107.176 27.0953C107.176 28.0803 107.42 28.9642 108.389 29.4868C110.097 30.4051 112.061 29.2868 112.072 27.349C112.087 24.6435 112.072 21.9381 112.072 19.2326V18.6196H114.824C114.824 18.7917 114.845 18.9637 114.847 19.1358C114.847 21.8413 114.886 24.5489 114.833 27.2523C114.8 28.8867 114.435 30.4632 112.826 31.2868C112.058 31.6715 111.23 31.9182 110.379 32.0159C108.998 32.1686 107.616 32.0267 106.384 31.2696C105.073 30.4653 104.463 29.2438 104.463 27.7276C104.448 24.736 104.463 21.7445 104.463 18.753C104.477 18.7067 104.495 18.662 104.518 18.6196Z" fill="white"/>
<path d="M146.138 24.1833C146.68 22.9854 147.175 21.8907 147.673 20.796C147.967 20.1508 148.256 19.5056 148.567 18.8605C148.6 18.7986 148.647 18.7448 148.703 18.7032C148.759 18.6615 148.823 18.633 148.892 18.6196C149.81 18.5981 150.728 18.6067 151.729 18.6067C151.208 19.5981 150.722 20.5207 150.235 21.4434C149.34 23.1639 148.444 24.8844 147.566 26.6049C147.465 26.8288 147.415 27.0729 147.421 27.3189C147.408 28.7663 147.421 30.2136 147.421 31.6976H144.733V30.3147C144.701 29.6526 144.706 28.9891 144.748 28.3275C144.874 27.2114 144.46 26.2995 143.934 25.3618C142.694 23.151 141.524 20.8993 140.305 18.6088C141.315 18.6088 142.286 18.6088 143.256 18.6217C143.328 18.6358 143.396 18.6662 143.454 18.7105C143.513 18.7548 143.561 18.812 143.595 18.8777C144.351 20.4455 145.09 22.0219 145.832 23.5961C145.905 23.7531 145.997 23.9166 146.138 24.1833Z" fill="white"/>
<path d="M123.513 31.6951H120.84V30.5919C120.84 29.8219 120.806 29.0499 120.84 28.2821C120.901 27.3936 120.689 26.5078 120.234 25.7443C118.983 23.5657 117.819 21.3205 116.619 19.101C116.547 18.9634 116.491 18.815 116.395 18.5978C117.424 18.5978 118.394 18.5806 119.361 18.6171C119.504 18.6171 119.683 18.8602 119.764 19.0301C120.537 20.6495 121.293 22.2754 122.055 23.9012C122.108 23.9893 122.167 24.0741 122.23 24.155C122.593 23.3722 122.937 22.6496 123.268 21.9098C123.714 20.9248 124.137 19.9269 124.604 18.9505C124.659 18.861 124.733 18.7848 124.82 18.7276C124.908 18.6703 125.007 18.6333 125.11 18.6193C125.981 18.5849 126.852 18.6042 127.82 18.6042L126.605 20.8839C125.618 22.7743 124.628 24.6626 123.654 26.5594C123.554 26.7851 123.505 27.0305 123.511 27.2777C123.507 28.7273 123.513 30.1811 123.513 31.6951Z" fill="white"/>
<path d="M89.772 18.4688V20.7699H88.0832C87.5858 20.7699 87.0862 20.8086 86.5887 20.7699C86.0913 20.7312 85.9333 20.9699 85.9312 21.4151C85.9312 22.0237 85.9312 22.6324 85.9312 23.241C85.9312 25.763 85.9312 28.2871 85.9312 30.8134C85.9312 31.4586 85.8756 31.5231 85.2352 31.5252C84.7356 31.5252 84.2381 31.508 83.7407 31.5252C83.288 31.5446 83.1365 31.3661 83.1386 30.8994C83.1578 27.7659 83.1493 24.6346 83.1493 21.5011C83.1493 20.8366 83.1023 20.7914 82.4597 20.7914H79.3298V18.4688H89.772Z" fill="white"/>
<path d="M45.2874 26.0436V24.8564H50.7743V31.618H49.758V29.4953C48.8037 30.9836 47.5675 31.7363 45.9962 31.9578C43.8612 32.2568 42.0208 31.7578 40.6587 29.9921C39.6958 28.7469 39.4396 27.263 39.35 25.7339C39.2496 24.0134 39.429 22.3144 40.2744 20.8089C40.8077 19.8397 41.6682 19.095 42.6998 18.7099C44.7494 17.9658 46.7562 17.9766 48.6607 19.1594C49.7281 19.8261 50.5501 21.2455 50.5821 22.3423C50.4604 22.3423 50.3366 22.3423 50.2171 22.366C49.6684 22.4434 49.3801 22.2993 49.1496 21.6864C48.9454 21.1099 48.5939 20.5978 48.1307 20.2017C47.6674 19.8056 47.1086 19.5396 46.5107 19.4304C44.649 19.0218 42.9837 19.3616 41.7412 20.9358C41.0387 21.8283 40.7441 22.9058 40.631 24.0091C40.4751 25.5145 40.4751 27.02 41.1882 28.4523C41.4815 29.0602 41.9065 29.5941 42.432 30.0146C42.9574 30.435 43.5698 30.7313 44.224 30.8815C44.8783 31.0318 45.5577 31.0322 46.2121 30.8827C46.8665 30.7333 47.4793 30.4377 48.0052 30.0179C49.0898 29.1448 49.4848 27.9254 49.5894 26.5769C49.6022 26.4156 49.6107 26.2565 49.6257 26.035L45.2874 26.0436Z" fill="white"/>
<path d="M169.341 18.5548C169.69 18.5362 170.04 18.5405 170.389 18.5677C170.584 18.595 170.762 18.6957 170.887 18.8494C172.025 20.5355 173.145 22.2288 174.245 23.9292C175.513 25.882 176.762 27.8476 178.02 29.8069L178.165 29.7746V18.5913H179.407V31.7295C179.004 31.7295 178.598 31.7467 178.199 31.7166C178.127 31.7029 178.058 31.6749 177.996 31.6343C177.935 31.5937 177.882 31.5413 177.84 31.4801C176.454 29.3854 175.074 27.287 173.701 25.1852C172.721 23.6797 171.762 22.1743 170.791 20.6559C170.746 20.585 170.684 20.5247 170.541 20.3484V31.6994H169.341V18.5548Z" fill="white"/>
<path d="M35.6543 29.6394V29.0695C35.6543 25.7748 35.6543 22.4778 35.6436 19.1766C35.6436 18.7078 35.7845 18.5465 36.2393 18.5314C36.6941 18.5164 36.8798 18.6669 36.8798 19.1766C36.8606 23.0262 36.8798 26.878 36.8606 30.7298C36.8606 31.018 36.8029 31.446 36.6193 31.5621C36.2051 31.8245 35.3853 31.5621 35.1398 31.1943C34.3029 29.9319 33.4745 28.6652 32.6418 27.4006L28.3633 20.8885C28.2822 20.7659 28.1818 20.6563 28.0068 20.4304C27.994 20.7552 27.979 20.9423 27.979 21.1272C27.979 24.3876 27.979 27.648 27.979 30.9083C27.979 31.5836 27.6951 31.8073 27.0567 31.5858C26.9265 31.5406 26.8026 31.2675 26.7984 31.0976C26.7791 29.6825 26.7877 28.2673 26.7877 26.8522V18.6949C27.6011 18.3615 28.1584 18.525 28.6131 19.2175L35.1611 29.1749C35.2743 29.347 35.396 29.5169 35.5155 29.6889L35.6543 29.6394Z" fill="white"/>
<path d="M12.3402 25.2153C12.2938 23.4883 12.8113 21.7936 13.8134 20.3914C14.2251 19.8063 14.7565 19.3169 15.372 18.9563C15.9874 18.5957 16.6725 18.3723 17.3809 18.301C18.7836 18.1161 20.1778 18.2688 21.4374 19.0064C23.1262 19.9914 23.9183 21.5592 24.2406 23.4367C24.4752 24.7358 24.4417 26.0697 24.1424 27.3552C23.3589 30.6478 20.3528 32.4866 17.0713 31.8135C14.2959 31.2414 13.0405 29.209 12.4939 26.7552C12.4115 26.2455 12.3601 25.7313 12.3402 25.2153ZM23.1689 25.1185C23.1989 24.0765 23.0037 23.0403 22.5967 22.0818C21.8089 20.2581 20.4169 19.357 18.474 19.3075C16.5312 19.2581 15.1178 20.1463 14.2873 21.8883C13.4568 23.6303 13.3928 25.5013 13.9137 27.3444C14.4453 29.2262 15.6217 30.4586 17.6286 30.8156C18.5878 30.9871 19.5764 30.8443 20.4491 30.4081C21.3218 29.9718 22.0326 29.2651 22.4771 28.3918C22.9874 27.3573 23.139 26.2519 23.1689 25.1185Z" fill="white"/>
<path d="M66.1548 25.1293C66.1344 23.3666 66.6912 21.6463 67.7389 20.2344C68.477 19.257 69.5462 18.5872 70.7429 18.3526C72.4978 17.9763 74.1781 18.1978 75.6533 19.2323C77.2482 20.3398 77.9271 21.9958 78.1406 23.8776C78.2825 24.9034 78.2464 25.9462 78.0338 26.9595C77.7798 28.0821 77.3933 29.1101 76.565 29.9703C75.7366 30.8306 74.8335 31.5167 73.6294 31.7661C70.903 32.3317 67.8073 31.2801 66.8145 28.2907C66.6206 27.7992 66.456 27.2965 66.3213 26.7853C66.2355 26.2368 66.1799 25.6839 66.1548 25.1293ZM76.9877 24.8777C77.0017 23.8853 76.8029 22.9016 76.4048 21.9937C75.1046 18.7677 70.6511 18.3656 68.6719 20.9528C67.5062 22.4754 67.3226 24.2561 67.502 26.1014C67.6407 27.5401 68.1254 28.8499 69.2356 29.7897C71.3705 31.607 75.1046 31.1446 76.3899 28.2047C76.8319 27.1541 77.0361 26.0176 76.9877 24.8777Z" fill="white"/>
<path d="M53.7889 18.5874H54.961V24.1038H62.6107V18.5896H63.802V31.5105H62.6192V25.2027H54.9909V31.4998H53.7889V18.5874Z" fill="white"/>
<path d="M157.304 18.6367C157.372 18.583 157.385 18.5636 157.4 18.5636C158.508 18.4927 158.536 18.484 158.894 19.5594C159.674 21.8648 160.421 24.1811 161.185 26.4908C161.529 27.5361 161.881 28.5791 162.233 29.62C162.302 29.7823 162.379 29.9409 162.464 30.0953C162.806 29.091 163.122 28.1941 163.421 27.2995C164.317 24.5811 165.22 21.867 166.087 19.14C166.245 18.6475 166.491 18.4948 166.965 18.5593C167.172 18.5735 167.38 18.5735 167.588 18.5593C166.094 22.9789 164.599 27.3317 163.105 31.7255C162.764 31.7444 162.422 31.7394 162.082 31.7104C161.99 31.6955 161.903 31.6607 161.826 31.6083C161.749 31.556 161.684 31.4873 161.636 31.4072C160.649 28.5533 159.689 25.6908 158.719 22.8305C158.292 21.5853 157.865 20.3443 157.438 19.1013C157.396 18.9357 157.349 18.7744 157.304 18.6367Z" fill="white"/>
<path d="M156.922 29.3233C156.922 30.7212 155.854 31.732 154.424 31.7255C153.781 31.7008 153.173 31.4286 152.724 30.9652C152.275 30.5018 152.02 29.8825 152.011 29.2351C152.04 28.5882 152.311 27.9763 152.769 27.5229C153.228 27.0694 153.841 26.8082 154.483 26.792C156.068 26.792 157.037 28.1297 156.922 29.3233Z" fill="white"/>
</g>
<defs>
<clipPath id="clip0_3_2533">
<rect width="238" height="50" fill="white" transform="translate(0 0.124023)"/>
</clipPath>
</defs>
</svg>
