<svg width="70" height="51" viewBox="0 0 70 51" fill="none" xmlns="http://www.w3.org/2000/svg">
<g filter="url(#filter0_d_3_2609)">
<rect x="5" y="5.3418" width="60" height="40" rx="5" fill="white"/>
<g clip-path="url(#clip0_3_2609)">
<path d="M42.9167 12.6753H27.0833C25.935 12.6753 25 13.6103 25 14.7587V23.9253C25 25.0737 25.935 26.0087 27.0833 26.0087H42.9166C44.065 26.0087 45 25.0737 45 23.9253V14.7587C45 13.6103 44.065 12.6753 42.9167 12.6753ZM44.1667 23.9253C44.1667 24.6145 43.6059 25.1753 42.9167 25.1753H27.0833C26.3941 25.1753 25.8333 24.6145 25.8333 23.9253V14.7587C25.8333 14.0695 26.3941 13.5087 27.0833 13.5087H42.9166C43.6058 13.5087 44.1666 14.0695 44.1666 14.7587V23.9253H44.1667Z" fill="#B2071D"/>
<path d="M44.5833 15.1753H25.4167C25.1867 15.1753 25 15.362 25 15.592V18.092C25 18.322 25.1867 18.5087 25.4167 18.5087H44.5834C44.8134 18.5087 45 18.322 45 18.092V15.592C45 15.362 44.8133 15.1753 44.5833 15.1753ZM44.1667 17.6753H25.8333V16.0086H44.1666V17.6753H44.1667Z" fill="#B2071D"/>
<path d="M32.9167 21.0083H27.9167C27.6867 21.0083 27.5 21.195 27.5 21.425C27.5 21.655 27.6867 21.8416 27.9167 21.8416H32.9167C33.1467 21.8416 33.3334 21.6549 33.3334 21.4249C33.3334 21.1949 33.1467 21.0083 32.9167 21.0083Z" fill="#B2071D"/>
<path d="M32.9167 22.6753H27.9167C27.6867 22.6753 27.5 22.862 27.5 23.092C27.5 23.322 27.6867 23.5087 27.9167 23.5087H32.9167C33.1467 23.5087 33.3334 23.322 33.3334 23.092C33.3333 22.862 33.1467 22.6753 32.9167 22.6753Z" fill="#B2071D"/>
<path d="M41.2499 20.1753H40.4166C39.7274 20.1753 39.1666 20.7361 39.1666 21.4253V22.2586C39.1666 22.9478 39.7274 23.5086 40.4166 23.5086H41.2499C41.9391 23.5086 42.4999 22.9478 42.4999 22.2586V21.4253C42.4999 20.7362 41.9391 20.1753 41.2499 20.1753ZM41.6666 22.2587C41.6666 22.4887 41.4799 22.6753 41.2499 22.6753H40.4166C40.1866 22.6753 39.9999 22.4887 39.9999 22.2587V21.4253C39.9999 21.1953 40.1866 21.0087 40.4166 21.0087H41.2499C41.4799 21.0087 41.6666 21.1953 41.6666 21.4253V22.2587Z" fill="#B2071D"/>
</g>
<path d="M22.3172 32.9338H20.9732V32.1418H24.6332V32.9338H23.2892V36.3418H22.3172V32.9338ZM29.0082 32.1418V36.3418H28.0362V34.6198H26.1282V36.3418H25.1562V32.1418H26.1282V33.7978H28.0362V32.1418H29.0082ZM33.2539 35.5618V36.3418H30.0019V32.1418H33.1759V32.9218H30.9679V33.8338H32.9179V34.5898H30.9679V35.5618H33.2539ZM31.4779 31.5478C31.5899 31.4958 31.6679 31.4398 31.7119 31.3798C31.7599 31.3198 31.7839 31.2538 31.7839 31.1818C31.7839 31.1058 31.7579 31.0458 31.7059 31.0018C31.6539 30.9538 31.5859 30.9298 31.5019 30.9298C31.3819 30.9298 31.2639 30.9678 31.1479 31.0438L30.9559 30.6658C31.1279 30.5298 31.3439 30.4618 31.6039 30.4618C31.8159 30.4618 31.9879 30.5218 32.1199 30.6418C32.2559 30.7578 32.3239 30.9118 32.3239 31.1038C32.3239 31.4398 32.1399 31.6918 31.7719 31.8598L31.4779 31.5478ZM38.4925 35.4418H36.5425L36.1705 36.3418H35.1745L37.0465 32.1418H38.0065L39.8845 36.3418H38.8645L38.4925 35.4418ZM38.1865 34.7038L37.5205 33.0958L36.8545 34.7038H38.1865ZM40.9793 32.9338H39.6353V32.1418H43.2953V32.9338H41.9513V36.3418H40.9793V32.9338ZM47.6403 36.3418L47.6343 33.8218L46.3983 35.8978H45.9603L44.7303 33.8758V36.3418H43.8183V32.1418H44.6223L46.1943 34.7518L47.7423 32.1418H48.5403L48.5523 36.3418H47.6403Z" fill="black"/>
</g>
<defs>
<filter id="filter0_d_3_2609" x="0" y="0.341797" width="70" height="50" filterUnits="userSpaceOnUse" color-interpolation-filters="sRGB">
<feFlood flood-opacity="0" result="BackgroundImageFix"/>
<feColorMatrix in="SourceAlpha" type="matrix" values="0 0 0 0 0 0 0 0 0 0 0 0 0 0 0 0 0 0 127 0" result="hardAlpha"/>
<feOffset/>
<feGaussianBlur stdDeviation="2.5"/>
<feColorMatrix type="matrix" values="0 0 0 0 0 0 0 0 0 0 0 0 0 0 0 0 0 0 0.1 0"/>
<feBlend mode="normal" in2="BackgroundImageFix" result="effect1_dropShadow_3_2609"/>
<feBlend mode="normal" in="SourceGraphic" in2="effect1_dropShadow_3_2609" result="shape"/>
</filter>
<clipPath id="clip0_3_2609">
<rect width="20" height="20" fill="white" transform="translate(25 9.3418)"/>
</clipPath>
</defs>
</svg>
