<svg width="129" height="56" viewBox="0 0 129 56" fill="none" xmlns="http://www.w3.org/2000/svg">
<path fill-rule="evenodd" clip-rule="evenodd" d="M128.333 17.9981H115.506V13.4179H126.636V9.17286H115.506V4.76025H126.172L128.152 0.496582H110.355V22.2431H126.333L128.333 17.9981Z" fill="white"/>
<path fill-rule="evenodd" clip-rule="evenodd" d="M103.891 17.905H92.1543V0.496582H86.9628V22.2431H101.851L103.891 17.905Z" fill="white"/>
<path fill-rule="evenodd" clip-rule="evenodd" d="M80.5189 17.905H68.7421V0.496582H63.5506V22.2431H78.4787L80.5189 17.905Z" fill="white"/>
<path fill-rule="evenodd" clip-rule="evenodd" d="M22.4831 19.1709V9.73123H14.1605L12.2415 13.8646H17.4734V16.9739C16.1603 17.849 14.4635 18.2772 12.5849 18.2772C8.40338 18.2772 5.43391 15.3541 5.43391 11.3697V11.3138C5.43391 7.60871 8.44378 4.53664 12.2011 4.53664C14.9281 4.53664 16.5441 5.33724 18.3622 6.73363L20.4428 2.24655C18.3218 0.868768 15.9381 0.124023 12.3829 0.124023C5.23191 0.124023 0 5.18829 0 11.3697V11.4255C0 17.849 5.05011 22.6153 12.4031 22.6153C16.726 22.6153 20.059 21.07 22.4831 19.1709Z" fill="white"/>
<path fill-rule="evenodd" clip-rule="evenodd" d="M55.4098 20.2323C56.036 19.953 56.3794 19.6551 56.3794 19.3386C56.3794 18.8731 55.6522 18.4635 54.3997 18.0911L52.7231 14.4419C56.844 15.2797 59.5307 16.6389 59.5307 18.147C59.5307 19.2455 58.1166 20.2695 55.7936 21.0515L55.4098 20.2323Z" fill="#00AEEF"/>
<path fill-rule="evenodd" clip-rule="evenodd" d="M42.8047 5.02091C41.0473 8.96805 40.0979 11.1464 39.1484 13.2876C37.189 13.4179 35.3508 13.6227 33.7145 13.9206L39.9161 0.496582H45.8348L54.8644 20.0648L55.4098 21.2936H55.43L55.8744 22.2431H50.4809C47.9356 16.5086 45.3702 10.7741 42.8047 5.02091Z" fill="white"/>
<path fill-rule="evenodd" clip-rule="evenodd" d="M30.8461 20.1388L31.6541 18.3887C32.1591 18.2584 32.7449 18.128 33.4115 18.0163C34.5225 17.8115 35.8356 17.6626 37.2698 17.5322L36.6436 18.9659L35.5931 21.349L35.2093 22.2241C33.3711 21.9635 31.7551 21.6097 30.4016 21.1815L30.8461 20.1388Z" fill="white"/>
<path fill-rule="evenodd" clip-rule="evenodd" d="M42.8855 13.5479C44.0167 13.5479 45.1278 13.5851 46.1984 13.6409L47.7336 17.104C46.2388 17.0109 44.6025 16.9364 42.9057 16.9364C35.4517 16.9364 29.4118 18.0163 29.4118 19.3382C29.4118 19.6548 29.7552 19.9527 30.3814 20.2319L30.0178 21.0698C27.6746 20.2692 26.2808 19.2638 26.2808 18.1653C26.2404 15.6145 33.6741 13.5479 42.8855 13.5479Z" fill="#00AEEF"/>
<path fill-rule="evenodd" clip-rule="evenodd" d="M100.396 55.2349V50.4499H97.8509V49.668H103.891V50.4499H101.346V55.2349H100.396Z" fill="white"/>
<path fill-rule="evenodd" clip-rule="evenodd" d="M84.3772 52.6469V55.2349H83.4278V49.668H84.3772V51.8277H88.6193V49.668H89.5485V55.2349H88.6193V52.6469H84.3772Z" fill="white"/>
<path fill-rule="evenodd" clip-rule="evenodd" d="M74.7012 55.2351V48.0483H75.2264L80.2765 53.4105V48.0483H81.2461V55.2351H80.7613L75.6708 49.8543V55.2351H74.7012Z" fill="white"/>
<path fill-rule="evenodd" clip-rule="evenodd" d="M68.1764 52.9078C68.0754 53.0381 67.9542 53.1871 67.8128 53.3174C67.6916 53.4477 67.5502 53.5781 67.3886 53.6898L68.7825 55.1793H67.53L66.6614 54.267C66.1362 54.6766 65.6312 54.9558 65.1464 55.142C64.6616 55.3282 64.1566 55.4213 63.6313 55.4213C62.7425 55.4213 62.0557 55.2165 61.5103 54.7883C60.9851 54.3601 60.7225 53.8015 60.7225 53.094C60.7225 52.5354 60.9043 52.0327 61.2881 51.5859C61.6719 51.139 62.2577 50.748 63.0657 50.3757L60.9245 48.0483H66.0352L66.5806 48.8303H62.9243L66.7422 52.9823C66.9442 52.7961 67.1058 52.6471 67.2068 52.5354C67.328 52.4237 67.429 52.312 67.5098 52.1817L68.1764 52.9078ZM66.0958 53.6153L63.6919 51.0087C63.0455 51.2694 62.5607 51.5673 62.2577 51.9024C61.9345 52.2375 61.7729 52.6285 61.7729 53.0567C61.7729 53.5036 61.9345 53.876 62.2981 54.1739C62.6415 54.4531 63.0859 54.6021 63.6515 54.6021C64.0758 54.6021 64.4798 54.5276 64.904 54.3601C65.2878 54.1925 65.6918 53.9318 66.0958 53.6153Z" fill="white"/>
<path fill-rule="evenodd" clip-rule="evenodd" d="M52.4201 55.2349V50.4499H49.8547V49.668H55.8946V50.4499H53.3493V55.2349H52.4201Z" fill="white"/>
<path fill-rule="evenodd" clip-rule="evenodd" d="M44.1985 49.6683L45.3096 47.8809H46.4004L47.4912 49.6683H46.7842L45.855 48.4394L44.9257 49.6683H44.1985Z" fill="white"/>
<path fill-rule="evenodd" clip-rule="evenodd" d="M42.4613 55.2349L45.5318 49.668H46.1176L49.2082 55.2349H48.1982C46.7438 52.6097 47.2892 53.6337 45.8348 50.9527C44.5823 53.2055 44.6632 53.0566 43.4511 55.2349H42.4613Z" fill="white"/>
<path fill-rule="evenodd" clip-rule="evenodd" d="M36.381 52.6469V55.2349H35.4518V49.668H36.381V51.8277H40.6231V49.668H41.5725V55.2349H40.6231V52.6469H36.381Z" fill="white"/>
<path fill-rule="evenodd" clip-rule="evenodd" d="M33.0681 52.9451L33.8559 53.485C33.4923 54.118 33.0075 54.5835 32.3813 54.9186C31.7551 55.2538 31.0481 55.4213 30.2602 55.4213C29.0886 55.4213 28.119 55.0676 27.3716 54.3601C26.604 53.6526 26.2404 52.7589 26.2404 51.6604C26.2404 50.5619 26.6242 49.6682 27.3918 48.9607C28.1594 48.2532 29.1088 47.8994 30.2804 47.8994C31.0077 47.8994 31.6541 48.0484 32.2601 48.3276C32.8459 48.6255 33.3307 49.0351 33.7145 49.5751L32.9065 50.115C32.6641 49.6868 32.3005 49.3517 31.8561 49.1096C31.3915 48.8676 30.8865 48.7373 30.3006 48.7373C29.432 48.7373 28.7048 49.0165 28.119 49.5751C27.5534 50.1336 27.2504 50.8225 27.2504 51.679C27.2504 52.5168 27.5332 53.2243 28.119 53.7829C28.6846 54.3415 29.4118 54.6021 30.3006 54.6021C30.9067 54.6021 31.4521 54.4532 31.9369 54.1925C32.3611 53.876 32.7651 53.4664 33.0681 52.9451Z" fill="white"/>
<path fill-rule="evenodd" clip-rule="evenodd" d="M48.8648 47.8809H49.7941L48.4406 49.6683H47.7538L48.8648 47.8809Z" fill="white"/>
<path fill-rule="evenodd" clip-rule="evenodd" d="M92.1948 49.6682L93.3058 47.8809H94.3764L95.4874 49.6682H94.7602L93.831 48.4394L92.9018 49.6682H92.1948ZM96.861 47.8809H97.7903L96.4368 49.6682H95.75L96.861 47.8809ZM90.4575 55.2352H91.4473C92.6392 53.0568 92.5584 53.2244 93.831 50.9529C95.3056 53.634 94.7602 52.61 96.1944 55.2352H97.2045L94.1138 49.6682H93.528L90.4575 55.2352Z" fill="white"/>
<path fill-rule="evenodd" clip-rule="evenodd" d="M31.9167 39.428L27.9372 28.7223H26.2202L31.1895 41.6623H32.5025L36.3406 31.2358L40.1585 41.6623H41.4917L46.461 28.7223H44.8449L40.8655 39.428L37.0476 28.6851H35.7548L31.9167 39.428ZM55.9754 28.6292H54.5008L48.1376 41.5692H49.7537L51.4101 38.1806H59.0055L60.6417 41.5692H62.3385L55.9754 28.6292ZM58.3994 36.8773H52.0363L55.228 30.3235L58.3994 36.8773ZM70.3581 30.0629H75.0446V28.7223H64.096V30.0629H68.7825V41.5692H70.3783V30.0629H70.3581ZM89.9525 39.5397L88.9223 38.6088C87.5891 39.7818 86.3366 40.4707 84.4176 40.4707C81.3471 40.4707 79.0241 38.1433 79.0241 35.1457C79.0241 32.1481 81.3269 29.8581 84.4176 29.8581C86.3164 29.8581 87.6295 30.5842 88.8011 31.6268L89.8717 30.5656C88.4779 29.3554 86.9628 28.5361 84.4378 28.5361C80.3371 28.5361 77.3878 31.5337 77.3878 35.2016C77.3878 38.9067 80.3573 41.8298 84.3772 41.8298C86.9022 41.7926 88.4981 40.8989 89.9525 39.5397ZM102.315 35.7974V41.5878H103.891V28.7409H102.315V34.4568H94.2754V28.7409H92.6998V41.5878H94.2754V35.7974H102.315Z" fill="white"/>
</svg>
