<svg width="200" height="50" viewBox="0 0 200 50" fill="none" xmlns="http://www.w3.org/2000/svg">
<g clip-path="url(#clip0_3_2586)">
<path fill-rule="evenodd" clip-rule="evenodd" d="M8.76153 26.9724V24.1629H15.8855V33.3507H13.5153L13.1557 31.2201C12.6313 31.864 12.0169 32.429 11.3315 32.8979C10.277 33.522 9.06776 33.8358 7.84284 33.8033C6.82683 33.8344 5.8157 33.6513 4.87512 33.2659C3.93453 32.8805 3.08558 32.3014 2.38348 31.5663C1.56301 30.6711 0.929534 29.6211 0.520245 28.4778C0.110956 27.3346 -0.0659538 26.1211 -5.72064e-05 24.9085C-0.0853665 22.6448 0.631456 20.4237 2.02394 18.6369C3.54581 17.0023 5.6359 16.0128 7.86478 15.8717C10.0937 15.7305 12.292 16.4485 14.008 17.878C15.0387 18.8198 15.6838 20.1101 15.8189 21.4998H12.2635C12.1826 20.8475 11.8537 20.2514 11.3448 19.8353C10.979 19.4634 10.5412 19.17 10.0581 18.9731C9.57505 18.7762 9.05685 18.6799 8.53527 18.6902C7.90068 18.6811 7.27143 18.8083 6.69024 19.0633C6.10905 19.3183 5.58944 19.6951 5.16639 20.1682C4.09435 21.4909 3.56167 23.1698 3.67506 24.8686C3.59401 25.6999 3.6846 26.5389 3.94114 27.3337C4.19768 28.1285 4.61468 28.8621 5.16639 29.4891C6.09504 30.3222 7.31612 30.7531 8.56193 30.6875C9.29717 30.6889 10.0175 30.4811 10.6391 30.0883C11.1832 29.7356 11.6469 29.2724 12.0002 28.7286C12.3535 28.1849 12.5885 27.573 12.6897 26.9325L8.76153 26.9724ZM22.8095 29.7688L21.6244 33.284H17.8828L23.9547 16.2401H28.0558L34.0611 33.284H30.1997L29.1078 29.7688H22.8095ZM25.9387 20.0883L23.8082 26.826H28.1491L26.032 20.0883H25.9387ZM39.9067 16.2401V30.1949H48.3754V33.284H36.3914V16.2401H39.9067ZM54.4074 16.2401V30.1949H62.8761V33.284H50.892V16.2401H54.4074ZM77.8694 16.2401V19.2628H68.8283V22.8313H77.1372V25.8407H68.8283V30.2614H78.2823V33.2708H65.3394V16.2268L77.8694 16.2401ZM95.0999 21.1535H93.4487C92.8185 18.4904 91.0431 17.1589 88.1225 17.1589C87.2384 17.1224 86.3596 17.3125 85.5696 17.7109C84.7796 18.1094 84.1046 18.7032 83.6085 19.4359C82.629 21.0327 82.1641 22.8921 82.277 24.7621C82.196 26.629 82.6585 28.4792 83.6085 30.0883C84.1233 30.8738 84.8366 31.5092 85.6761 31.9301C86.5156 32.351 87.4514 32.5425 88.3888 32.4851C89.7022 32.5223 90.9782 32.0445 91.9441 31.1536C92.8935 30.2482 93.5399 29.0715 93.795 27.7847H95.4859C94.5405 31.7793 92.0772 33.8567 88.0692 33.8567C86.9806 33.9199 85.8933 33.7092 84.9071 33.244C83.9208 32.7788 83.067 32.0739 82.4234 31.1935C81.2051 29.3166 80.6087 27.1036 80.719 24.8686C80.6216 23.6172 80.7726 22.3588 81.1634 21.1659C81.5541 19.973 82.1769 18.8691 82.9959 17.9179C83.7548 17.2128 84.6488 16.6688 85.6237 16.3187C86.5986 15.9685 87.6343 15.8195 88.6683 15.8806C90.2677 15.8197 91.8391 16.3136 93.1159 17.2787C94.3315 18.2772 95.1101 19.7102 95.2863 21.2734L95.0999 21.1535ZM98.5219 33.284H96.8575L103.582 16.2002H105.406L111.957 33.284H110.359L108.389 27.9578H100.599L98.5885 33.284H98.5219ZM104.434 17.5716L101.079 26.5463H107.736L104.394 17.5716H104.434ZM115.845 24.1495H120.879C121.944 24.2136 123 23.9284 123.888 23.3373C124.297 23.047 124.625 22.6576 124.841 22.2058C125.058 21.7539 125.156 21.2543 125.126 20.7541C125.126 18.6369 123.795 17.5716 120.972 17.5716H115.845V24.1629V24.1495ZM120.919 25.4811H115.845V33.2441H114.234V16.1735H120.892C124.78 16.1735 126.711 17.6649 126.711 20.6609C126.757 21.5577 126.535 22.4478 126.072 23.2174C125.527 23.9434 124.788 24.5017 123.941 24.8287C124.375 24.9776 124.767 25.2281 125.085 25.5594C125.402 25.8906 125.635 26.2929 125.766 26.7328C126.001 27.601 126.122 28.4963 126.125 29.3959C126.125 31.4864 126.418 32.6981 126.831 33.031V33.1909H125.047C124.704 32.3077 124.528 31.3686 124.527 30.4212C124.407 28.6769 124.327 27.7581 124.288 27.5184C124.239 27.1522 124.102 26.8031 123.889 26.5016C123.675 26.2 123.392 25.9548 123.063 25.7873C122.374 25.5114 121.633 25.3888 120.892 25.4279L120.919 25.4811ZM141.691 33.2441H130.08V16.1735H141.451V17.5051H131.664V23.6835H140.466V25.0151H131.664V31.806H141.651V33.1376L141.691 33.2441ZM168.322 17.372H169.774V18.8366H168.322V17.3852V17.372ZM169.787 16.1869C169.903 13.5173 170.794 10.9392 172.35 8.76706C173.906 6.59491 176.061 4.92252 178.551 3.9539C181.042 2.98528 183.76 2.76223 186.375 3.31201C188.99 3.86179 191.388 5.16064 193.278 7.05011C195.167 8.93958 196.466 11.338 197.016 13.9529C197.566 16.5679 197.343 19.2863 196.374 21.7767C195.405 24.267 193.733 26.4218 191.561 27.978C189.389 29.5343 186.811 30.4248 184.141 30.541V30.541V31.9791C187.101 31.8732 189.965 30.906 192.384 29.1962C194.802 27.4864 196.669 25.1081 197.755 22.353C198.842 19.5979 199.101 16.5856 198.501 13.6854C197.901 10.7852 196.467 8.12308 194.377 6.02536C192.286 3.92763 189.629 2.48547 186.731 1.87562C183.833 1.26576 180.819 1.51475 178.061 2.59203C175.302 3.6693 172.917 5.52802 171.199 7.94045C169.481 10.3529 168.505 13.2142 168.389 16.1735H169.84L169.787 16.1869ZM170.959 18.85V17.3985H172.41V18.8366L170.959 18.85ZM168.296 20.0351H169.747V21.4998H168.296V20.0483V20.0351ZM167.11 17.372C164.153 17.4882 161.295 18.4639 158.883 20.1797C156.472 21.8956 154.614 24.2771 153.535 27.0328C152.457 29.7886 152.205 32.7989 152.811 35.6955C153.416 38.5921 154.854 41.2494 156.946 43.3419C159.039 45.4344 161.696 46.8715 164.592 47.4773C167.489 48.0831 170.499 47.8313 173.255 46.7527C176.011 45.6742 178.392 43.8156 180.108 41.4045C181.824 38.9935 182.8 36.1345 182.916 33.1775H181.465C181.351 35.8514 180.461 38.4343 178.903 40.6103C177.346 42.7864 175.187 44.4611 172.692 45.4299C170.198 46.3986 167.475 46.6192 164.856 46.0648C162.238 45.5104 159.838 44.205 157.95 42.3082C156.062 40.4114 154.768 38.0055 154.226 35.3847C153.684 32.764 153.917 30.042 154.897 27.5517C155.878 25.0615 157.563 22.911 159.746 21.3632C161.929 19.8154 164.516 18.9374 167.19 18.8366V18.8366V17.3985L167.11 17.372ZM167.11 16.1735C163.919 16.2897 160.83 17.335 158.224 19.1812C155.618 21.0273 153.608 23.5939 152.439 26.5663C151.271 29.5387 150.996 32.7876 151.647 35.9141C152.299 39.0407 153.849 41.9091 156.107 44.1674C158.366 46.4257 161.234 47.9757 164.361 48.6272C167.487 49.2788 170.736 49.0035 173.708 47.8352C176.681 46.6669 179.247 44.6563 181.094 42.0502C182.94 39.4441 183.985 36.3559 184.101 33.1642V33.1642C187.297 33.0661 190.395 32.0359 193.014 30.2003C195.633 28.3648 197.658 25.8039 198.84 22.8326C200.022 19.8614 200.311 16.6094 199.669 13.4765C199.028 10.3437 197.485 7.46658 195.23 5.19915C192.975 2.93171 190.106 1.37276 186.977 0.714078C183.847 0.055398 180.594 0.325678 177.616 1.49169C174.638 2.6577 172.066 4.66866 170.217 7.2771C168.367 9.88555 167.319 12.9778 167.204 16.1735H167.11ZM172.437 16.1735H170.985C171.102 13.7387 171.922 11.3901 173.348 9.41301C174.774 7.43596 176.744 5.91561 179.018 5.03676C181.291 4.15792 183.771 3.95846 186.156 4.4625C188.541 4.96654 190.728 6.15243 192.452 7.87608C194.175 9.59973 195.361 11.7869 195.865 14.1718C196.369 16.5567 196.17 19.0367 195.291 21.3104C194.412 23.5841 192.892 25.5535 190.915 26.9794C188.938 28.4053 186.589 29.2264 184.154 29.3427V27.9045C186.898 27.7651 189.491 26.6065 191.425 24.6555V24.6555C192.459 23.6228 193.28 22.3962 193.84 21.0459C194.401 19.6955 194.689 18.248 194.689 16.7861C194.689 15.3242 194.401 13.8766 193.84 12.5263C193.28 11.1759 192.459 9.94925 191.425 8.91652C189.334 6.83655 186.504 5.66898 183.555 5.66898C180.606 5.66898 177.777 6.83655 175.686 8.91652V8.91652C173.735 10.8506 172.576 13.4433 172.437 16.1869V16.1735ZM170.972 19.9951H172.423V21.4998H170.972V20.0483V19.9951ZM173.635 18.81V17.3586H175.086V18.8366L173.635 18.81ZM175.1 16.1469H173.648C173.792 13.7151 174.825 11.4211 176.551 9.70218V9.70218C178.418 7.84175 180.946 6.79711 183.582 6.79711C186.217 6.79711 188.746 7.84175 190.612 9.70218V9.70218C192.47 11.573 193.513 14.1027 193.513 16.7394C193.513 19.3761 192.47 21.9059 190.612 23.7768V23.7768C188.9 25.5051 186.61 26.539 184.181 26.6795V25.2414C186.227 25.0972 188.152 24.2175 189.6 22.7648V22.7648C190.961 21.1337 191.662 19.0529 191.566 16.9312C191.47 14.8096 190.584 12.8005 189.082 11.2988C187.581 9.79701 185.572 8.9112 183.45 8.81534C181.328 8.71947 179.248 9.42054 177.616 10.7807V10.7807C176.164 12.229 175.284 14.1539 175.14 16.2002L175.1 16.1469ZM176.272 18.81V17.3586H177.723V18.8366L176.272 18.81ZM173.608 19.9951H175.06V21.4998H173.608V20.0483V19.9951ZM177.723 16.1735H176.272C176.404 14.442 177.156 12.816 178.389 11.593C179.068 10.9136 179.875 10.3748 180.762 10.0071C181.65 9.63945 182.601 9.45023 183.562 9.45023C184.523 9.45023 185.474 9.63945 186.361 10.0071C187.249 10.3748 188.056 10.9136 188.735 11.593C189.414 12.2723 189.953 13.0788 190.321 13.9664C190.689 14.854 190.878 15.8053 190.878 16.7661C190.878 17.7268 190.689 18.6781 190.321 19.5657C189.953 20.4533 189.414 21.2599 188.735 21.9392V21.9392C187.512 23.1721 185.886 23.9236 184.154 24.0563V22.605C185.496 22.4718 186.749 21.8735 187.696 20.9139V20.9139C188.714 19.7976 189.262 18.3323 189.227 16.8223C189.192 15.3124 188.577 13.8739 187.509 12.8059C186.441 11.738 185.002 11.1226 183.492 11.0876C181.982 11.0527 180.517 11.6009 179.401 12.6183V12.6183C178.441 13.5655 177.843 14.8184 177.71 16.1602L177.723 16.1735ZM176.245 19.9951H177.696V21.4998H176.245V20.0483V19.9951ZM178.908 18.81V17.3586H180.359V18.8366L178.908 18.81ZM180.413 16.1469H178.948C179.117 15.0378 179.68 14.0267 180.533 13.2982C181.387 12.5697 182.473 12.1724 183.595 12.1789C184.211 12.1771 184.82 12.2972 185.389 12.5323C185.958 12.7674 186.474 13.1128 186.909 13.5485C187.343 13.9843 187.687 14.5018 187.921 15.0712C188.154 15.6405 188.272 16.2506 188.269 16.866C188.274 18.0031 187.863 19.1028 187.112 19.9567C186.361 20.8107 185.323 21.3597 184.194 21.4998V20.0351C184.835 19.9156 185.425 19.6045 185.885 19.1429V19.1429C186.431 18.5257 186.72 17.7238 186.695 16.9006C186.669 16.0774 186.331 15.2947 185.749 14.7123C185.166 14.13 184.384 13.7916 183.561 13.7662C182.737 13.7408 181.935 14.0303 181.318 14.5756C180.857 15.0361 180.545 15.6258 180.426 16.2667L180.413 16.1469ZM181.544 18.81V17.3586H182.996V18.8366L181.544 18.81ZM178.881 19.9951H180.333V21.4998H178.881V20.0483V19.9951ZM183.595 16.1735H181.638C181.742 15.853 181.92 15.5612 182.157 15.3213V15.3213C182.558 14.9837 183.072 14.8122 183.595 14.842C184.138 14.8483 184.657 15.0628 185.046 15.4412C185.427 15.8287 185.642 16.3493 185.646 16.8925C185.643 17.4321 185.428 17.9488 185.046 18.3306C184.807 18.5676 184.515 18.7454 184.194 18.85V16.1735H183.595ZM181.558 19.9951H183.009V21.4998H181.558V20.0483V19.9951ZM168.375 22.6582H169.827V24.1629H168.375V22.7114V22.6582ZM167.19 19.9951V21.4998C164.445 21.6473 161.851 22.8044 159.907 24.7488V24.7488C157.819 26.8385 156.647 29.6713 156.647 32.6249C156.647 35.5785 157.819 38.4114 159.907 40.5011V40.5011C161.996 42.5884 164.829 43.7608 167.783 43.7608C170.737 43.7608 173.569 42.5884 175.659 40.5011V40.5011C177.598 38.5535 178.754 35.9615 178.908 33.2175H180.359C180.243 35.6523 179.422 38.0009 177.996 39.978C176.57 41.955 174.601 43.4754 172.327 44.3542C170.054 45.2331 167.574 45.4326 165.189 44.9286C162.804 44.4245 160.617 43.2386 158.893 41.515C157.169 39.7913 155.983 37.6041 155.479 35.2192C154.975 32.8342 155.175 30.3543 156.054 28.0806C156.932 25.8069 158.453 23.8375 160.43 22.4115C162.407 20.9856 164.756 20.1646 167.19 20.0483V19.9951ZM171.012 22.6582H172.463V24.1629H171.012V22.7114V22.6582ZM173.675 22.6582H175.126V24.1629H173.675V22.7114V22.6582ZM176.338 22.6582H177.79V24.1629H176.338V22.7114V22.6582ZM179.001 22.6582H180.453V24.1629H179.001V22.7114V22.6582ZM181.664 22.6582H183.116V24.1629H181.664V22.7114V22.6582ZM168.482 25.3213H169.933V26.826H168.482V25.3746V25.3213ZM167.297 22.6582V24.1629C165.252 24.3023 163.327 25.1773 161.877 26.6262V26.6262C160.517 28.2573 159.816 30.3381 159.912 32.4598C160.008 34.5814 160.894 36.5905 162.396 38.0922C163.897 39.594 165.906 40.4798 168.028 40.5756C170.15 40.6715 172.23 39.9704 173.861 38.6102V38.6102C175.31 37.1607 176.185 35.2356 176.325 33.1909H177.776C177.634 35.6203 176.606 37.9131 174.887 39.6356V39.6356C173.963 40.5604 172.866 41.294 171.658 41.7946C170.451 42.2951 169.157 42.5528 167.85 42.5528C166.542 42.5528 165.248 42.2951 164.04 41.7946C162.833 41.294 161.736 40.5604 160.812 39.6356V39.6356C159.887 38.7118 159.154 37.6148 158.653 36.4073C158.153 35.1998 157.895 33.9055 157.895 32.5983C157.895 31.2912 158.153 29.9968 158.653 28.7893C159.154 27.5818 159.887 26.4848 160.812 25.561C162.537 23.8432 164.828 22.8114 167.257 22.6582H167.297ZM171.118 25.3213H172.57V26.826H171.118V25.3746V25.3213ZM173.782 25.3213H175.233V26.826H173.782V25.3746V25.3213ZM176.445 25.3213H177.896V26.826H176.445V25.3746V25.3213ZM179.108 25.3213H180.559V26.826H179.108V25.3746V25.3213ZM181.771 25.3213H183.222V26.826H181.771V25.3746V25.3213ZM168.588 27.9844H170.04V29.4359H168.588V27.9844ZM167.403 25.3213V26.826C166.059 26.9649 164.804 27.562 163.848 28.5171C162.831 29.6334 162.283 31.0987 162.318 32.6086C162.352 34.1186 162.968 35.557 164.036 36.6249C165.104 37.6929 166.542 38.3084 168.052 38.3434C169.562 38.3783 171.028 37.8301 172.144 36.8127V36.8127C173.099 35.8569 173.696 34.6015 173.835 33.2574H175.286C175.142 34.986 174.392 36.6082 173.169 37.838C171.797 39.21 169.936 39.9807 167.996 39.9807C166.056 39.9807 164.195 39.21 162.823 37.838C161.451 36.466 160.68 34.6052 160.68 32.6649C160.68 30.7246 161.451 28.8638 162.823 27.4918V27.4918C164.049 26.2638 165.673 25.5131 167.403 25.3746V25.3213ZM171.225 27.9844H172.676V29.4359H171.225V27.9844ZM173.888 27.9844H175.34V29.4359H173.888V27.9844ZM176.551 27.9844H178.003V29.4359H176.551V27.9844ZM179.214 27.9844H180.666V29.4359H179.214V27.9844ZM181.877 27.9844H183.329V29.4359H181.877V27.9844ZM168.695 30.6476H170.146V32.099H168.695V30.6476ZM167.51 27.9844V29.4891C166.869 29.6086 166.279 29.9196 165.819 30.3812C165.274 30.9984 164.984 31.8004 165.009 32.6236C165.035 33.4468 165.373 34.2294 165.956 34.8118C166.538 35.3942 167.321 35.7325 168.144 35.7579C168.967 35.7833 169.769 35.4938 170.386 34.9485C170.848 34.488 171.159 33.8984 171.278 33.2574H172.743C172.6 34.386 172.051 35.4238 171.198 36.1764C170.345 36.929 169.247 37.3446 168.109 37.3453C166.866 37.3453 165.674 36.8515 164.795 35.9725C163.916 35.0935 163.422 33.9013 163.422 32.6582C163.423 31.5207 163.838 30.4224 164.591 29.5693C165.344 28.7163 166.381 28.167 167.51 28.0244V27.9844ZM171.332 30.6476H172.783V32.099H171.332V30.6476ZM173.995 30.6476H175.446V32.099H173.995V30.6476ZM176.658 30.6476H178.109V32.099H176.658V30.6476ZM179.321 30.6476H180.772V32.099H179.321V30.6476ZM181.984 30.6476H183.435V32.099H181.984V30.6476ZM168.216 33.3107H170.16C170.065 33.6327 169.891 33.9258 169.654 34.1629V34.1629C169.271 34.5461 168.751 34.7613 168.209 34.7613C167.667 34.7613 167.147 34.5461 166.764 34.1629C166.381 33.7797 166.166 33.26 166.166 32.7181C166.166 32.1762 166.381 31.6566 166.764 31.2734V31.2734C167.001 31.0358 167.294 30.8618 167.616 30.7674V33.3107H168.216ZM137.869 36.826H138.309C138.309 37.0657 138.469 37.1856 138.775 37.1856C139.081 37.1856 139.228 37.0923 139.228 36.8926C139.226 36.8571 139.215 36.8228 139.196 36.7925C139.178 36.7623 139.152 36.7372 139.121 36.7195C139.028 36.6744 138.93 36.643 138.828 36.6262H138.602C138.433 36.5957 138.271 36.5372 138.122 36.4531C138.048 36.4011 137.988 36.3311 137.949 36.2495C137.909 36.168 137.891 36.0776 137.896 35.9871C137.892 35.8257 137.949 35.6687 138.056 35.5477C138.148 35.461 138.257 35.3948 138.376 35.3535C138.496 35.3122 138.622 35.2967 138.748 35.308C138.871 35.2978 138.995 35.3153 139.11 35.359C139.225 35.4028 139.329 35.4718 139.414 35.561C139.533 35.682 139.599 35.8444 139.6 36.0138H139.161C139.161 35.8007 138.988 35.6809 138.708 35.6809C138.62 35.6792 138.532 35.7022 138.455 35.7474C138.416 35.7635 138.382 35.7911 138.358 35.8268C138.334 35.8624 138.322 35.9043 138.322 35.9471C138.322 36.067 138.402 36.1336 138.562 36.1736L139.094 36.3067C139.238 36.3377 139.373 36.3965 139.494 36.4798C139.553 36.53 139.6 36.5937 139.63 36.6654C139.66 36.7372 139.673 36.815 139.667 36.8926C139.676 37.0191 139.647 37.1454 139.583 37.2548C139.518 37.3642 139.422 37.4515 139.308 37.5051C139.148 37.5762 138.976 37.6125 138.802 37.6116C138.661 37.6225 138.521 37.6045 138.388 37.5587C138.255 37.5129 138.133 37.4403 138.029 37.3453C137.92 37.2155 137.863 37.0491 137.869 36.8792V36.826ZM142.117 35.308V37.4785H141.691V35.6409L141.278 37.4785H140.826L140.426 35.6409V37.4785H140V35.2814H140.666L141.065 37.0124L141.451 35.2814L142.117 35.308Z" fill="white"/>
</g>
<defs>
<clipPath id="clip0_3_2586">
<rect width="200" height="48.6285" fill="white" transform="translate(0 0.421387)"/>
</clipPath>
</defs>
</svg>
