<svg width="205" height="58" viewBox="0 0 205 58" fill="none" xmlns="http://www.w3.org/2000/svg">
<rect y="0.124023" width="205" height="57" rx="28.5" fill="#B50000"/>
<path d="M54 25.624H52C51.9992 24.8286 51.6829 24.066 51.1204 23.5036C50.558 22.9411 49.7954 22.6248 49 22.624V20.624C50.3256 20.6256 51.5964 21.1529 52.5338 22.0902C53.4711 23.0276 53.9984 24.2984 54 25.624Z" fill="white"/>
<path d="M58 25.624H56C55.9979 23.7682 55.2597 21.9889 53.9474 20.6766C52.6351 19.3643 50.8559 18.6261 49 18.624V16.624C51.3861 16.6267 53.6738 17.5757 55.361 19.263C57.0483 20.9502 57.9974 23.2379 58 25.624Z" fill="white"/>
<path d="M50.333 34.106L52.573 31.866C52.8728 31.5661 53.2541 31.3608 53.6695 31.2755C54.0849 31.1901 54.5162 31.2286 54.91 31.386L57.638 32.478C58.0401 32.6389 58.3847 32.9166 58.6275 33.2752C58.8703 33.6338 59 34.057 59 34.49V39.451C59.0007 39.7459 58.9412 40.0378 58.8252 40.3089C58.7092 40.5799 58.5391 40.8245 58.3252 41.0275C58.1114 41.2306 57.8584 41.3879 57.5817 41.4897C57.305 41.5916 57.0104 41.636 56.716 41.62C37.594 40.43 33.732 24.234 33.015 18.032C32.9803 17.7288 33.0101 17.4217 33.1026 17.1309C33.1951 16.84 33.3481 16.5721 33.5516 16.3446C33.755 16.1171 34.0044 15.9353 34.2831 15.8111C34.5619 15.6869 34.8638 15.6232 35.169 15.624H40.042C40.4751 15.624 40.8982 15.7538 41.2568 15.9965C41.6155 16.2393 41.8931 16.584 42.054 16.986L43.145 19.714C43.3025 20.1078 43.3409 20.5391 43.2556 20.9545C43.1702 21.3699 42.9649 21.7512 42.665 22.051L40.425 24.291C40.425 24.291 41.667 33.023 50.333 34.106Z" fill="white"/>
<path d="M78.144 29.636L73.008 33.26L74.544 36.116L76.8 34.436L75.36 46.124H79.128L81.144 29.636H78.144ZM86.9374 46.34C90.6334 46.34 93.2254 44.276 93.2254 40.628C93.2254 38.828 92.3374 37.652 91.1374 37.148V37.124C92.4814 36.428 93.3454 34.676 93.3454 32.996C93.3454 30.62 91.4974 29.444 89.3134 29.444C86.0734 29.444 83.8654 31.604 83.8654 34.508C83.8654 35.9 84.5374 36.836 85.2334 37.22V37.268C83.3134 38.18 82.1134 40.196 82.1134 42.356C82.1134 44.852 84.1054 46.34 86.9374 46.34ZM88.4014 35.78C87.6814 35.78 87.2494 35.204 87.2494 34.364C87.2494 33.38 87.8734 32.396 88.7854 32.396C89.5534 32.396 89.9614 32.924 89.9614 33.764C89.9614 34.796 89.2894 35.78 88.4014 35.78ZM87.3694 43.22C86.4334 43.22 85.8814 42.524 85.8814 41.42C85.8814 40.196 86.7454 38.9 87.9694 38.9C88.9774 38.9 89.4574 39.716 89.4574 40.7C89.4574 42.068 88.5214 43.22 87.3694 43.22ZM100.272 46.34C104.904 46.34 107.256 41.228 107.256 35.948C107.256 31.748 105.408 29.444 102.144 29.444C97.4404 29.444 95.1364 34.58 95.1364 39.836C95.1364 44.108 97.0084 46.34 100.272 46.34ZM100.464 42.836C99.4804 42.836 98.9524 41.828 98.9524 40.1C98.9524 37.292 99.7204 32.924 101.904 32.924C102.936 32.924 103.416 33.932 103.416 35.756C103.416 38.564 102.672 42.836 100.464 42.836ZM114.101 46.34C118.733 46.34 121.085 41.228 121.085 35.948C121.085 31.748 119.237 29.444 115.973 29.444C111.269 29.444 108.965 34.58 108.965 39.836C108.965 44.108 110.837 46.34 114.101 46.34ZM114.293 42.836C113.309 42.836 112.781 41.828 112.781 40.1C112.781 37.292 113.549 32.924 115.733 32.924C116.765 32.924 117.245 33.932 117.245 35.756C117.245 38.564 116.501 42.836 114.293 42.836ZM131.666 46.34C135.506 46.34 137.834 43.532 137.834 39.716C137.834 36.884 136.13 35.516 134.186 35.516C133.25 35.516 132.29 35.828 131.426 36.356L131.402 36.332C132.41 34.484 134.162 33.14 136.754 32.132L136.154 29.132C130.442 30.356 126.866 35.468 126.866 41.012C126.866 44.444 128.882 46.34 131.666 46.34ZM131.954 43.052C130.898 43.052 130.322 41.996 130.322 40.604C130.322 40.268 130.346 39.956 130.394 39.62C131.018 38.924 131.906 38.468 132.626 38.468C133.754 38.468 134.234 39.092 134.234 40.172C134.234 41.732 133.226 43.052 131.954 43.052ZM139.962 29.636L139.554 32.996H144.714L138.858 45.836L142.554 46.508L148.962 32.06L149.25 29.636H139.962ZM153.734 46.34C157.43 46.34 160.022 44.276 160.022 40.628C160.022 38.828 159.134 37.652 157.934 37.148V37.124C159.278 36.428 160.142 34.676 160.142 32.996C160.142 30.62 158.294 29.444 156.11 29.444C152.87 29.444 150.662 31.604 150.662 34.508C150.662 35.9 151.334 36.836 152.03 37.22V37.268C150.11 38.18 148.91 40.196 148.91 42.356C148.91 44.852 150.902 46.34 153.734 46.34ZM155.198 35.78C154.478 35.78 154.046 35.204 154.046 34.364C154.046 33.38 154.67 32.396 155.582 32.396C156.35 32.396 156.758 32.924 156.758 33.764C156.758 34.796 156.086 35.78 155.198 35.78ZM154.166 43.22C153.23 43.22 152.678 42.524 152.678 41.42C152.678 40.196 153.542 38.9 154.766 38.9C155.774 38.9 156.254 39.716 156.254 40.7C156.254 42.068 155.318 43.22 154.166 43.22ZM171.893 33.02L172.301 29.636H163.949L162.389 38.468L164.309 39.236C164.861 38.804 165.653 38.372 166.541 38.372C167.405 38.372 168.005 38.924 168.005 40.076C168.005 41.612 167.117 42.98 165.461 42.98C164.645 42.98 163.925 42.476 163.517 41.588L160.661 43.652C161.765 45.524 163.541 46.34 165.605 46.34C169.205 46.34 171.773 43.724 171.773 39.86C171.773 37.052 170.237 35.444 167.909 35.444C167.477 35.444 166.877 35.516 166.277 35.684L166.733 33.02H171.893Z" fill="white"/>
<path d="M74.576 19.124H76.228L77.264 10.668H79.798L79.98 9.18402H73.26L73.092 10.668H75.612L74.576 19.124ZM86.6385 11.214L86.5125 12.236C86.3865 13.202 86.2885 13.986 85.6725 13.986C85.6305 13.986 85.5885 13.986 85.5465 13.972L85.7565 12.292H84.2165L83.8665 15.204C83.6705 16.744 82.4525 17.836 81.7245 17.836C81.1085 17.836 80.8565 17.472 81.0105 16.352L81.5565 12.292H80.0305L79.4425 16.492C79.1765 18.438 79.8345 19.236 81.2485 19.236C82.2425 19.236 82.9845 18.69 83.5025 17.906H83.5305L83.3765 19.124H84.9165L85.4345 14.91C85.5465 14.938 85.6445 14.938 85.7285 14.938C86.8905 14.938 87.7025 14.168 87.9265 12.488L88.0945 11.214H86.6385ZM93.3944 19.236C95.0044 19.236 96.5724 18.172 97.1184 15.526C97.3284 14.49 97.3284 13.23 97.1604 12.292H95.5924C95.7324 13.258 95.7464 14.21 95.5784 15.12C95.2144 17.024 94.2344 17.836 93.5624 17.836C92.9324 17.836 92.8064 17.29 92.9464 16.086L93.4224 12.292H91.8824L91.3924 16.212C91.1544 18.172 91.7564 19.236 93.3944 19.236ZM103.948 10.108H105.082L107.238 8.07802H105.558L103.948 10.108ZM100.098 11.368H101.638L102.408 10.304H102.436L102.94 11.368H104.424L103.206 9.31002H101.75L100.098 11.368ZM100.56 19.236C101.274 19.236 102.1 18.788 102.744 17.864L102.786 17.878L102.632 19.124H104.158L104.998 12.306H103.472L103.402 12.838L103.36 12.852C102.912 12.39 102.268 12.194 101.568 12.194C99.5241 12.194 98.2081 14.308 98.2081 16.464C98.2081 17.99 98.9361 19.236 100.56 19.236ZM100.854 17.878C100.14 17.878 99.7621 17.332 99.7621 16.492C99.7621 15.106 100.476 13.594 101.68 13.594C102.212 13.594 102.828 13.832 103.234 14.224L103.206 14.476C102.94 16.576 101.806 17.878 100.854 17.878ZM106.111 19.124H107.651L107.959 16.576C108.183 14.868 109.471 13.58 110.311 13.58C110.983 13.58 111.109 14.14 110.969 15.134L110.437 19.124H111.963L112.523 15.008C112.775 13.132 112.285 12.194 110.829 12.194C109.919 12.194 109.093 12.614 108.379 13.482L108.351 13.468L108.491 12.292H106.965L106.111 19.124ZM119.688 19.236C122.348 19.236 123.594 17.108 123.594 15.092C123.594 13.51 122.852 12.194 121.27 12.194C120.458 12.194 119.674 12.6 119.016 13.454L118.988 13.44L119.548 8.82002H118.022L116.832 18.452C117.7 18.998 118.582 19.236 119.688 19.236ZM119.534 17.85C119.254 17.85 118.876 17.822 118.456 17.696L118.554 16.94C118.82 14.854 119.856 13.594 120.934 13.594C121.648 13.594 122.026 14.238 122.026 14.924C122.026 16.478 121.144 17.85 119.534 17.85ZM127.77 11.34H129.324L131.13 9.31002L129.436 9.32402L127.77 11.34ZM127.07 19.236C127.784 19.236 128.61 18.788 129.254 17.864L129.296 17.878L129.142 19.124H130.668L131.508 12.306H129.982L129.912 12.838L129.87 12.852C129.422 12.39 128.778 12.194 128.078 12.194C126.034 12.194 124.718 14.308 124.718 16.464C124.718 17.99 125.446 19.236 127.07 19.236ZM127.364 17.878C126.65 17.878 126.272 17.332 126.272 16.492C126.272 15.106 126.986 13.594 128.19 13.594C128.722 13.594 129.338 13.832 129.744 14.224L129.716 14.476C129.45 16.576 128.316 17.878 127.364 17.878ZM132.621 19.124H134.161L134.469 16.576C134.693 14.868 135.981 13.58 136.821 13.58C137.493 13.58 137.619 14.14 137.479 15.134L136.947 19.124H138.473L139.033 15.008C139.285 13.132 138.795 12.194 137.339 12.194C136.429 12.194 135.603 12.614 134.889 13.482L134.861 13.468L135.001 12.292H133.475L132.621 19.124ZM143.244 19.124H144.784L145.092 16.618C145.302 14.882 146.604 13.58 147.444 13.58C148.116 13.58 148.242 14.14 148.102 15.134L147.556 19.124H149.096L149.656 15.008C149.908 13.132 149.418 12.194 147.962 12.194C147.066 12.194 146.198 12.614 145.498 13.482L145.47 13.468L146.044 8.82002H144.518L143.244 19.124ZM154.44 11.34H155.994L154.832 9.32402L153.124 9.31002L154.44 11.34ZM153.334 19.236C154.048 19.236 154.874 18.788 155.518 17.864L155.56 17.878L155.406 19.124H156.932L157.772 12.306H156.246L156.176 12.838L156.134 12.852C155.686 12.39 155.042 12.194 154.342 12.194C152.298 12.194 150.982 14.308 150.982 16.464C150.982 17.99 151.71 19.236 153.334 19.236ZM153.628 17.878C152.914 17.878 152.536 17.332 152.536 16.492C152.536 15.106 153.25 13.594 154.454 13.594C154.986 13.594 155.602 13.832 156.008 14.224L155.98 14.476C155.714 16.576 154.58 17.878 153.628 17.878ZM158.885 19.124H160.425L160.733 16.576C160.957 14.868 162.245 13.58 163.085 13.58C163.757 13.58 163.883 14.14 163.743 15.134L163.211 19.124H164.737L165.297 15.008C165.549 13.132 165.059 12.194 163.603 12.194C162.693 12.194 161.867 12.614 161.153 13.482L161.125 13.468L161.265 12.292H159.739L158.885 19.124ZM168.848 21.994C170.724 21.994 172.334 21.322 172.712 18.27L173.44 12.292H171.914L171.844 12.824L171.816 12.838C171.354 12.39 170.696 12.194 169.996 12.194C167.952 12.194 166.65 14.308 166.65 16.24C166.65 17.766 167.364 19.012 168.988 19.012C169.744 19.012 170.584 18.536 171.228 17.57L171.256 17.584L171.186 18.158C170.934 20.202 170.108 20.594 168.918 20.594C168.204 20.594 167.63 20.384 167.042 20.006L166.538 21.336C167.252 21.798 168.05 21.994 168.848 21.994ZM169.282 17.654C168.582 17.654 168.204 17.108 168.204 16.268C168.204 15.106 168.904 13.594 170.122 13.594C170.64 13.594 171.256 13.832 171.662 14.238L171.592 14.7C171.326 16.464 170.192 17.654 169.282 17.654Z" fill="white"/>
</svg>
