<svg width="70" height="51" viewBox="0 0 70 51" fill="none" xmlns="http://www.w3.org/2000/svg">
<g filter="url(#filter0_d_3_2606)">
<rect x="5" y="5.3418" width="60" height="40" rx="5" fill="white"/>
<path d="M23.5482 17.6285C24.1804 17.0814 24.8081 16.5344 25.4404 15.9964C26.7989 14.8396 28.1575 13.6872 29.5161 12.5304C29.5654 12.4856 29.6147 12.4228 29.673 12.4049C29.803 12.3735 29.96 12.3107 30.0586 12.3601C30.1572 12.4094 30.2514 12.5753 30.2559 12.6919C30.2738 13.3061 30.2649 13.9159 30.2649 14.5302C30.2649 14.6244 30.2649 14.723 30.2649 14.853C30.3725 14.853 30.4666 14.853 30.5563 14.853C33.6725 14.853 36.7887 14.853 39.9094 14.853C39.9677 14.853 40.0304 14.8485 40.0887 14.853C40.2995 14.8665 40.4519 15.0144 40.4564 15.2028C40.4609 15.4 40.3084 15.5615 40.0842 15.5659C39.7659 15.5749 39.4431 15.5659 39.1202 15.5659C36.1072 15.5659 33.0941 15.5659 30.081 15.5659C29.6416 15.5659 29.5475 15.4673 29.5475 15.0234C29.5475 14.5167 29.5475 14.0101 29.5475 13.4362C27.8347 14.9023 26.1578 16.3282 24.4584 17.7675C26.1533 19.2067 27.8257 20.6281 29.5475 22.0898C29.5475 21.8746 29.5475 21.7087 29.5475 21.5428C29.5475 21.1751 29.5475 20.8119 29.5475 20.4442C29.5475 20.0766 29.664 19.96 30.0272 19.96C33.1658 19.96 36.3045 19.96 39.4476 19.96C39.5372 19.96 39.6224 19.96 39.739 19.96C39.739 19.8076 39.739 19.6775 39.739 19.5475C39.739 18.987 39.7435 18.4266 39.739 17.8661C39.739 17.6912 39.7659 17.5388 39.9363 17.4491C40.1246 17.3549 40.2636 17.4401 40.4026 17.5567C41.9809 18.9018 43.5636 20.2425 45.1464 21.5876C45.5096 21.897 45.8728 22.2064 46.2359 22.5157C46.5319 22.7668 46.5364 22.9686 46.2449 23.2152C44.3079 24.8652 42.3665 26.5107 40.4295 28.1608C40.4026 28.1832 40.3712 28.2101 40.3443 28.2325C40.2188 28.3356 40.0618 28.3894 39.9363 28.2863C39.8421 28.2056 39.7525 28.0621 39.748 27.9411C39.73 27.3133 39.739 26.6856 39.739 26.0579C39.739 25.9772 39.739 25.8965 39.739 25.7889C39.6404 25.7889 39.5597 25.7889 39.4789 25.7889C36.3403 25.7889 33.2017 25.7889 30.0586 25.7889C29.9913 25.7889 29.9241 25.7978 29.8568 25.7844C29.664 25.744 29.5519 25.6274 29.5475 25.4302C29.5385 25.2463 29.6865 25.0984 29.8837 25.0759C29.951 25.067 30.0183 25.0715 30.0855 25.0715C33.3676 25.0715 36.6497 25.0715 39.9273 25.0715C40.3533 25.0715 40.4519 25.1746 40.4519 25.6005C40.4519 26.1162 40.4519 26.6273 40.4519 27.2012C42.1647 25.744 43.8416 24.3227 45.541 22.8789C43.8506 21.4441 42.1737 20.0183 40.4519 18.5521C40.4519 18.9287 40.4519 19.2561 40.4519 19.5789C40.4519 19.7941 40.4519 20.0138 40.4519 20.229C40.4474 20.5608 40.3219 20.6864 39.9856 20.6864C38.0621 20.6864 36.1386 20.6864 34.215 20.6864C32.9686 20.6864 31.7221 20.6864 30.4801 20.6864C30.4128 20.6864 30.35 20.6909 30.2604 20.6998C30.2604 21.1572 30.2604 21.6055 30.2604 22.0494C30.2604 22.2871 30.2559 22.5292 30.2604 22.7668C30.2649 22.9462 30.2424 23.1121 30.0541 23.2017C29.8658 23.2914 29.7268 23.2017 29.5878 23.0852C28.7807 22.3992 27.9737 21.7131 27.1666 21.0271C26.0457 20.0766 24.9247 19.1215 23.8083 18.171C23.7141 18.0903 23.6289 17.9961 23.5392 17.9109C23.5482 17.8078 23.5482 17.7181 23.5482 17.6285Z" fill="#B2071D"/>
<path d="M11.3928 37.4138C10.9648 37.4138 10.5768 37.3218 10.2288 37.1378C9.88477 36.9498 9.61277 36.6918 9.41277 36.3638C9.21677 36.0318 9.11877 35.6578 9.11877 35.2418C9.11877 34.8258 9.21677 34.4538 9.41277 34.1258C9.61277 33.7938 9.88477 33.5358 10.2288 33.3518C10.5768 33.1638 10.9668 33.0698 11.3988 33.0698C11.7628 33.0698 12.0908 33.1338 12.3828 33.2618C12.6788 33.3898 12.9268 33.5738 13.1268 33.8138L12.5028 34.3898C12.2188 34.0618 11.8668 33.8978 11.4468 33.8978C11.1868 33.8978 10.9548 33.9558 10.7508 34.0718C10.5468 34.1838 10.3868 34.3418 10.2708 34.5458C10.1588 34.7498 10.1028 34.9818 10.1028 35.2418C10.1028 35.5018 10.1588 35.7338 10.2708 35.9378C10.3868 36.1418 10.5468 36.3018 10.7508 36.4178C10.9548 36.5298 11.1868 36.5858 11.4468 36.5858C11.8668 36.5858 12.2188 36.4198 12.5028 36.0878L13.1268 36.6638C12.9268 36.9078 12.6788 37.0938 12.3828 37.2218C12.0868 37.3498 11.7568 37.4138 11.3928 37.4138ZM17.6352 33.1418V37.3418H16.6632V35.6198H14.7552V37.3418H13.7832V33.1418H14.7552V34.7978H16.6632V33.1418H17.6352ZM20.4949 37.4138C19.8949 37.4138 19.4269 37.2478 19.0909 36.9158C18.7589 36.5838 18.5929 36.1098 18.5929 35.4938V33.1418H19.5649V35.4578C19.5649 36.2098 19.8769 36.5858 20.5009 36.5858C20.8049 36.5858 21.0369 36.4958 21.1969 36.3158C21.3569 36.1318 21.4369 35.8458 21.4369 35.4578V33.1418H22.3969V35.4938C22.3969 36.1098 22.2289 36.5838 21.8929 36.9158C21.5609 37.2478 21.0949 37.4138 20.4949 37.4138ZM25.3148 35.8538V37.3418H24.3428V35.8418L22.7168 33.1418H23.7488L24.8708 35.0078L25.9928 33.1418H26.9468L25.3148 35.8538ZM30.5645 36.5618V37.3418H27.3125V33.1418H30.4865V33.9218H28.2785V34.8338H30.2285V35.5898H28.2785V36.5618H30.5645ZM29.4185 32.7998L28.9025 32.4578L28.3865 32.7998H27.6965L28.4945 32.1158H29.3105L30.1085 32.7998H29.4185ZM29.7425 32.1158C29.8905 32.0438 29.9645 31.9598 29.9645 31.8638C29.9645 31.8118 29.9445 31.7698 29.9045 31.7378C29.8685 31.7058 29.8205 31.6898 29.7605 31.6898C29.6765 31.6898 29.5885 31.7138 29.4965 31.7618L29.3405 31.4738C29.4765 31.3858 29.6425 31.3418 29.8385 31.3418C30.0065 31.3418 30.1405 31.3858 30.2405 31.4738C30.3405 31.5578 30.3905 31.6718 30.3905 31.8158C30.3905 31.9318 30.3505 32.0358 30.2705 32.1278C30.1945 32.2198 30.0945 32.2898 29.9705 32.3378L29.7425 32.1158ZM35.1898 33.1418V37.3418H34.3918L32.2978 34.7918V37.3418H31.3378V33.1418H32.1418L34.2298 35.6918V33.1418H35.1898ZM39.4128 35.6918L38.8488 36.2798V37.3418H37.8828V33.1418H38.8488V35.1038L40.7088 33.1418H41.7888L40.0488 35.0138L41.8908 37.3418H40.7568L39.4128 35.6918ZM46.1762 33.1418V37.3418H45.2042V35.6198H43.2962V37.3418H42.3242V33.1418H43.2962V34.7978H45.2042V33.1418H46.1762ZM49.2039 37.4138C48.7679 37.4138 48.3739 37.3198 48.0219 37.1318C47.6739 36.9438 47.3999 36.6858 47.1999 36.3578C47.0039 36.0258 46.9059 35.6538 46.9059 35.2418C46.9059 34.8298 47.0039 34.4598 47.1999 34.1318C47.3999 33.7998 47.6739 33.5398 48.0219 33.3518C48.3739 33.1638 48.7679 33.0698 49.2039 33.0698C49.6399 33.0698 50.0319 33.1638 50.3799 33.3518C50.7279 33.5398 51.0019 33.7998 51.2019 34.1318C51.4019 34.4598 51.5019 34.8298 51.5019 35.2418C51.5019 35.6538 51.4019 36.0258 51.2019 36.3578C51.0019 36.6858 50.7279 36.9438 50.3799 37.1318C50.0319 37.3198 49.6399 37.4138 49.2039 37.4138ZM49.2039 36.5858C49.4519 36.5858 49.6759 36.5298 49.8759 36.4178C50.0759 36.3018 50.2319 36.1418 50.3439 35.9378C50.4599 35.7338 50.5179 35.5018 50.5179 35.2418C50.5179 34.9818 50.4599 34.7498 50.3439 34.5458C50.2319 34.3418 50.0759 34.1838 49.8759 34.0718C49.6759 33.9558 49.4519 33.8978 49.2039 33.8978C48.9559 33.8978 48.7319 33.9558 48.5319 34.0718C48.3319 34.1838 48.1739 34.3418 48.0579 34.5458C47.9459 34.7498 47.8899 34.9818 47.8899 35.2418C47.8899 35.5018 47.9459 35.7338 48.0579 35.9378C48.1739 36.1418 48.3319 36.3018 48.5319 36.4178C48.7319 36.5298 48.9559 36.5858 49.2039 36.5858ZM54.9398 36.4418H52.9898L52.6178 37.3418H51.6218L53.4938 33.1418H54.4538L56.3318 37.3418H55.3118L54.9398 36.4418ZM54.6338 35.7038L53.9678 34.0958L53.3018 35.7038H54.6338ZM53.8598 32.5478C53.9718 32.4958 54.0498 32.4398 54.0938 32.3798C54.1418 32.3198 54.1658 32.2538 54.1658 32.1818C54.1658 32.1058 54.1398 32.0458 54.0878 32.0018C54.0358 31.9538 53.9678 31.9298 53.8838 31.9298C53.7638 31.9298 53.6458 31.9678 53.5298 32.0438L53.3378 31.6658C53.5098 31.5298 53.7258 31.4618 53.9858 31.4618C54.1978 31.4618 54.3698 31.5218 54.5018 31.6418C54.6378 31.7578 54.7058 31.9118 54.7058 32.1038C54.7058 32.4398 54.5218 32.6918 54.1538 32.8598L53.8598 32.5478ZM60.6195 33.1418V37.3418H59.8215L57.7275 34.7918V37.3418H56.7675V33.1418H57.5715L59.6595 35.6918V33.1418H60.6195Z" fill="black"/>
</g>
<defs>
<filter id="filter0_d_3_2606" x="0" y="0.341797" width="70" height="50" filterUnits="userSpaceOnUse" color-interpolation-filters="sRGB">
<feFlood flood-opacity="0" result="BackgroundImageFix"/>
<feColorMatrix in="SourceAlpha" type="matrix" values="0 0 0 0 0 0 0 0 0 0 0 0 0 0 0 0 0 0 127 0" result="hardAlpha"/>
<feOffset/>
<feGaussianBlur stdDeviation="2.5"/>
<feColorMatrix type="matrix" values="0 0 0 0 0 0 0 0 0 0 0 0 0 0 0 0 0 0 0.1 0"/>
<feBlend mode="normal" in2="BackgroundImageFix" result="effect1_dropShadow_3_2606"/>
<feBlend mode="normal" in="SourceGraphic" in2="effect1_dropShadow_3_2606" result="shape"/>
</filter>
</defs>
</svg>
