<svg width="204" height="58" viewBox="0 0 204 58" fill="none" xmlns="http://www.w3.org/2000/svg">
<rect y="0.124023" width="203.018" height="57" rx="28.5" fill="#B50000"/>
<g clip-path="url(#clip0_3_2497)">
<path d="M42.5091 44.6233C42.3131 44.5606 42.1096 44.5106 41.9212 44.4285C41.0359 44.0435 40.5437 43.3541 40.391 42.4112C40.3077 41.8978 40.2244 41.3844 40.1355 40.8716C39.9276 39.667 38.7837 38.9864 37.6279 39.3871C37.107 39.5674 36.5967 39.7759 36.0789 39.965C34.8217 40.4252 33.612 39.9963 32.9384 38.838C32.0793 37.3637 31.2261 35.8861 30.3788 34.4051C29.712 33.2393 29.9405 31.9964 30.9717 31.1243C31.385 30.7749 31.8107 30.4399 32.224 30.0887C33.1756 29.2747 33.1738 27.9662 32.2196 27.1547C31.7913 26.7903 31.348 26.4434 30.921 26.0778C29.9543 25.2488 29.7239 23.9972 30.3525 22.8909C31.2103 21.3803 32.0787 19.8755 32.9578 18.3766C33.6133 17.2565 34.8361 16.8301 36.057 17.2747C36.5648 17.4594 37.0669 17.6603 37.576 17.8425C38.7825 18.2758 39.9233 17.6059 40.143 16.3399C40.2426 15.7657 40.3309 15.1891 40.4442 14.6187C40.5518 14.0621 40.8492 13.56 41.2855 13.1981C41.7219 12.8362 42.2703 12.6368 42.8372 12.6339C44.6179 12.6214 46.3987 12.6214 48.1798 12.6339C49.432 12.6433 50.4113 13.538 50.6217 14.8353C50.7062 15.3487 50.7888 15.8621 50.8771 16.3743C51.0862 17.584 52.2201 18.2645 53.3816 17.867C53.9025 17.6885 54.4134 17.48 54.9306 17.2897C56.1891 16.8276 57.3987 17.2509 58.0736 18.4067C58.9394 19.8889 59.7978 21.3755 60.6488 22.8665C61.2962 24.0022 61.0683 25.2526 60.0722 26.1022C59.6565 26.4597 59.2182 26.7997 58.7987 27.1597C57.8439 27.9737 57.8414 29.2779 58.7943 30.0931C59.2213 30.4587 59.6652 30.8043 60.0929 31.17C61.0615 31.9983 61.2963 33.2499 60.6689 34.3563C59.8074 35.8765 58.9337 37.3902 58.048 38.8975C57.4075 39.9869 56.1909 40.4139 54.9957 39.9907C54.4766 39.8066 53.9657 39.5993 53.4473 39.4121C52.2395 38.9738 51.0931 39.6438 50.8802 40.9054C50.7894 41.4382 50.7149 41.9748 50.6098 42.5051C50.3894 43.614 49.737 44.3208 48.6231 44.5757C48.5841 44.5885 48.5466 44.6053 48.511 44.6258L42.5091 44.6233ZM32.5082 24.1544C32.9233 24.4975 33.3222 24.8293 33.7247 25.1593C36.0019 27.0282 36.0076 30.2208 33.7373 32.0879C33.329 32.4235 32.9233 32.7609 32.5082 33.1047C33.3616 34.5829 34.2025 36.043 35.054 37.4962C35.089 37.5588 35.2449 37.5989 35.3188 37.5739C35.811 37.4067 36.2943 37.2157 36.7833 37.0385C37.381 36.8186 38.0196 36.7323 38.6542 36.7857C39.2888 36.8391 39.9039 37.0309 40.4565 37.3476C41.009 37.6642 41.4854 38.0981 41.8523 38.6187C42.2191 39.1392 42.4675 39.7338 42.5799 40.3607C42.6876 40.9417 42.7821 41.5253 42.8842 42.1138H48.136C48.2205 41.606 48.3088 41.1058 48.3864 40.6036C48.7922 37.9739 51.1889 36.2872 53.7247 36.8926C54.3777 37.0485 55.0038 37.3247 55.6343 37.5651C55.8334 37.6415 55.9186 37.6008 56.0212 37.4205C56.8095 36.038 57.6091 34.6618 58.4042 33.2837C58.4387 33.2211 58.4668 33.1585 58.4982 33.0896L57.2566 32.0672C55.0182 30.2227 55.0232 27.022 57.2672 25.18C57.6767 24.8437 58.0849 24.5056 58.4875 24.1732C58.4864 24.1474 58.4818 24.1219 58.4737 24.0974C57.6435 22.6548 56.8135 21.2125 55.9837 19.7703C55.9023 19.6282 55.8234 19.6219 55.6819 19.6764C55.1491 19.8824 54.6175 20.0915 54.0734 20.2687C53.4829 20.4614 52.858 20.5256 52.2407 20.4569C51.6233 20.3882 51.0278 20.1882 50.4941 19.8704C49.9604 19.5527 49.5008 19.1244 49.1463 18.6144C48.7917 18.1043 48.5504 17.5244 48.4384 16.9134C48.3295 16.3242 48.2324 15.7325 48.131 15.1459H42.8779C42.7934 15.6505 42.7051 16.1414 42.6306 16.6348C42.2324 19.2707 39.8481 20.9593 37.3086 20.3651C36.655 20.2124 36.0301 19.9325 35.399 19.6933C35.1924 19.6151 35.0966 19.6514 34.987 19.848C34.5005 20.7195 33.9946 21.5804 33.495 22.4451L32.5082 24.1544Z" fill="white"/>
<path d="M45.6741 34.7913C42.3332 34.9297 39.4825 32.2318 39.3435 28.7994C39.2082 25.4503 41.8874 22.6122 45.3272 22.4638C48.6801 22.316 51.5395 25.0221 51.6735 28.4707C51.8038 31.8135 49.114 34.6492 45.6741 34.7913ZM49.1803 28.6197C49.1753 26.6162 47.5236 24.9639 45.5201 24.9557C43.5165 24.9476 41.8367 26.6212 41.841 28.6316C41.8454 30.6314 43.4996 32.2887 45.5007 32.2963C47.5017 32.3038 49.1835 30.6302 49.1785 28.6197H49.1803Z" fill="white"/>
</g>
<path d="M77.1622 29.636L72.0262 33.26L73.5622 36.116L75.8182 34.436L74.3782 46.124H78.1463L80.1622 29.636H77.1622ZM83.5556 46.724C89.1236 46.004 92.9636 40.724 92.9636 34.82C92.9636 31.412 91.0676 29.444 88.2836 29.444C84.6596 29.444 81.9716 32.252 81.9716 36.14C81.9716 38.924 83.6996 40.292 85.7636 40.292C86.6036 40.292 87.5156 40.052 88.2836 39.596L88.3076 39.62C87.2756 41.588 85.4756 43.052 82.9556 43.82L83.5556 46.724ZM87.2756 37.34C86.1476 37.34 85.5716 36.716 85.5716 35.54C85.5716 33.908 86.5556 32.732 87.8756 32.732C88.7876 32.732 89.4356 33.452 89.4356 35.036C89.4356 35.444 89.4116 35.852 89.3636 36.236C88.8116 36.884 88.0676 37.34 87.2756 37.34ZM99.6656 46.34C104.298 46.34 106.65 41.228 106.65 35.948C106.65 31.748 104.802 29.444 101.538 29.444C96.8336 29.444 94.5296 34.58 94.5296 39.836C94.5296 44.108 96.4016 46.34 99.6656 46.34ZM99.8576 42.836C98.8736 42.836 98.3456 41.828 98.3456 40.1C98.3456 37.292 99.1136 32.924 101.298 32.924C102.33 32.924 102.81 33.932 102.81 35.756C102.81 38.564 102.066 42.836 99.8576 42.836ZM113.494 46.34C118.126 46.34 120.478 41.228 120.478 35.948C120.478 31.748 118.63 29.444 115.366 29.444C110.662 29.444 108.358 34.58 108.358 39.836C108.358 44.108 110.23 46.34 113.494 46.34ZM113.686 42.836C112.702 42.836 112.174 41.828 112.174 40.1C112.174 37.292 112.942 32.924 115.126 32.924C116.158 32.924 116.638 33.932 116.638 35.756C116.638 38.564 115.894 42.836 113.686 42.836ZM125.395 46.124H135.308L135.74 42.74H130.891V42.692L133.532 39.98C135.451 37.988 136.723 36.14 136.723 33.644C136.723 30.98 134.707 29.42 132.355 29.42C129.907 29.42 127.915 30.764 126.859 32.492L129.355 34.508C130.027 33.452 131.011 32.876 131.756 32.876C132.524 32.876 132.907 33.38 132.907 34.148C132.907 35.684 131.611 37.196 130.507 38.372L125.611 43.7L125.395 46.124ZM143.092 29.636L137.956 33.26L139.492 36.116L141.748 34.436L140.308 46.124H144.076L146.092 29.636H143.092ZM151.885 46.34C155.581 46.34 158.173 44.276 158.173 40.628C158.173 38.828 157.285 37.652 156.085 37.148V37.124C157.429 36.428 158.293 34.676 158.293 32.996C158.293 30.62 156.445 29.444 154.261 29.444C151.021 29.444 148.813 31.604 148.813 34.508C148.813 35.9 149.485 36.836 150.181 37.22V37.268C148.261 38.18 147.061 40.196 147.061 42.356C147.061 44.852 149.053 46.34 151.885 46.34ZM153.349 35.78C152.629 35.78 152.197 35.204 152.197 34.364C152.197 33.38 152.821 32.396 153.733 32.396C154.501 32.396 154.909 32.924 154.909 33.764C154.909 34.796 154.237 35.78 153.349 35.78ZM152.317 43.22C151.381 43.22 150.829 42.524 150.829 41.42C150.829 40.196 151.693 38.9 152.917 38.9C153.925 38.9 154.405 39.716 154.405 40.7C154.405 42.068 153.469 43.22 152.317 43.22ZM165.22 46.34C169.852 46.34 172.204 41.228 172.204 35.948C172.204 31.748 170.356 29.444 167.092 29.444C162.388 29.444 160.084 34.58 160.084 39.836C160.084 44.108 161.956 46.34 165.22 46.34ZM165.412 42.836C164.428 42.836 163.9 41.828 163.9 40.1C163.9 37.292 164.668 32.924 166.852 32.924C167.884 32.924 168.364 33.932 168.364 35.756C168.364 38.564 167.62 42.836 165.412 42.836Z" fill="white"/>
<path d="M71.8862 19.124H73.5382L74.0282 15.12H77.9482L77.4442 19.124H79.1102L80.3282 9.18402H78.6763L78.1302 13.636H74.2102L74.7562 9.18402H73.1042L71.8862 19.124ZM86.5893 8.73602C87.2193 8.73602 87.8353 8.14802 88.1993 7.22402L87.3173 6.86002C87.1213 7.30802 86.8413 7.60202 86.5613 7.60202C86.3653 7.60202 86.1833 7.42002 85.9733 7.26602C85.7353 7.09802 85.5113 6.86002 84.9513 6.86002C84.2933 6.86002 83.7613 7.46202 83.4113 8.26002L84.2793 8.73602C84.4893 8.28802 84.7693 7.99402 85.0633 7.99402C85.2593 7.99402 85.4553 8.13402 85.6653 8.30202C85.8753 8.47002 86.1133 8.73602 86.5893 8.73602ZM83.1033 11.368H84.6433L85.4133 10.304H85.4413L85.9453 11.368H87.4293L86.2113 9.31002H84.7553L83.1033 11.368ZM84.2513 19.236C86.6173 19.236 87.9053 17.36 87.9053 15.008C87.9053 13.202 86.7433 12.194 85.0073 12.194C82.7533 12.194 81.3813 14.154 81.3813 16.352C81.3813 18.186 82.5013 19.236 84.2513 19.236ZM84.2933 17.836C83.4253 17.836 82.9213 17.122 82.9213 16.17C82.9213 14.882 83.7053 13.594 84.9093 13.594C85.4973 13.594 86.3513 13.874 86.3513 15.148C86.3513 16.632 85.5253 17.836 84.2933 17.836ZM93.687 19.236C94.233 19.236 94.905 19.068 95.409 18.76L95.199 17.416C94.821 17.64 94.471 17.766 94.219 17.766C93.883 17.766 93.687 17.542 93.757 16.954L94.177 13.594H95.843L95.997 12.292H94.331L94.625 9.85602L93.071 10.164L92.791 12.292H92.063L91.909 13.594H92.637L92.189 17.234C92.049 18.424 92.511 19.236 93.687 19.236ZM96.6535 19.124H98.1935L98.5015 16.562C98.7255 14.854 99.5655 13.692 100.951 13.944L101.161 12.194C100.335 12.208 99.5515 12.642 98.9075 13.538H98.8795L99.0335 12.292H97.5075L96.6535 19.124ZM108.592 11.214L108.466 12.236C108.354 13.104 108.256 13.832 107.794 13.958C107.43 12.824 106.422 12.194 105.05 12.194C102.796 12.194 101.424 14.154 101.424 16.352C101.424 18.186 102.544 19.236 104.294 19.236C106.66 19.236 107.948 17.36 107.948 15.008V14.924C108.97 14.812 109.67 14.042 109.88 12.488L110.048 11.214H108.592ZM104.336 17.836C103.468 17.836 102.964 17.122 102.964 16.17C102.964 14.882 103.748 13.594 104.952 13.594C105.54 13.594 106.394 13.874 106.394 15.148C106.394 16.632 105.568 17.836 104.336 17.836ZM103.986 20.244C103.384 20.244 102.936 20.692 102.936 21.28C102.936 21.854 103.37 22.274 103.944 22.274C104.532 22.274 104.98 21.84 104.98 21.238C104.98 20.678 104.56 20.244 103.986 20.244ZM118.656 19.208L119.104 18.032C118.516 17.906 118.236 17.696 117.844 16.716L117.48 15.806C118.516 14.784 119.244 13.566 119.51 12.292H117.956C117.564 13.608 116.752 14.938 115.142 15.932L115.114 15.918L115.982 8.82002H114.456L113.182 19.124H114.708L114.89 17.584C115.38 17.36 115.856 17.08 116.29 16.786L116.43 17.136C116.962 18.424 117.256 19.222 118.334 19.236C118.432 19.236 118.544 19.222 118.656 19.208ZM123.621 10.612C123.831 10.612 124.041 10.752 124.265 10.92C124.503 11.074 124.825 11.368 125.329 11.368C125.987 11.368 126.575 10.766 126.953 9.74402L126.001 9.38002C125.805 9.82802 125.497 10.122 125.161 10.122C124.937 10.122 124.727 9.95402 124.503 9.80002C124.251 9.63202 124.027 9.38002 123.481 9.38002C122.767 9.38002 122.207 9.98202 121.829 10.878L122.781 11.368C122.977 10.92 123.271 10.612 123.621 10.612ZM125.455 12.292L125.105 15.064C124.923 16.646 123.719 17.836 122.893 17.836C122.277 17.822 122.039 17.472 122.179 16.352L122.711 12.292H121.185L120.611 16.492C120.345 18.438 121.003 19.236 122.417 19.236C123.439 19.236 124.195 18.69 124.727 17.906L124.755 17.92L124.727 18.158C124.489 20.202 123.635 20.608 122.515 20.608C121.815 20.608 121.241 20.384 120.653 20.006L120.149 21.336C120.863 21.798 121.731 21.994 122.515 21.994C124.195 21.994 125.875 21.322 126.239 18.27L126.967 12.292H125.455ZM132.679 19.236C133.225 19.236 133.897 19.068 134.401 18.76L134.191 17.416C133.813 17.64 133.463 17.766 133.211 17.766C132.875 17.766 132.679 17.542 132.749 16.954L133.169 13.594H134.835L134.989 12.292H133.323L133.617 9.85602L132.063 10.164L131.783 12.292H131.055L130.901 13.594H131.629L131.181 17.234C131.041 18.424 131.503 19.236 132.679 19.236ZM135.632 19.124H137.172L137.48 16.618C137.69 14.882 138.992 13.58 139.832 13.58C140.504 13.58 140.63 14.14 140.49 15.134L139.944 19.124H141.484L142.044 15.008C142.296 13.132 141.806 12.194 140.35 12.194C139.454 12.194 138.586 12.614 137.886 13.482L137.858 13.468L138.432 8.82002H136.906L135.632 19.124ZM145.427 19.236C146.421 19.236 147.163 18.69 147.681 17.906H147.709L147.555 19.124H149.095L149.935 12.292H148.395L148.045 15.204C147.849 16.744 146.631 17.836 145.903 17.836C145.287 17.836 145.035 17.472 145.189 16.352L145.735 12.292H144.209L143.621 16.492C143.355 18.438 144.013 19.236 145.427 19.236ZM152.874 11.368H154.414L155.184 10.304H155.212L155.716 11.368H157.2L155.982 9.31002H154.526L152.874 11.368ZM153.35 19.236C154.064 19.236 154.89 18.788 155.534 17.864L155.576 17.878L155.422 19.124H156.948L157.788 12.306H156.262L156.192 12.838L156.15 12.852C155.702 12.39 155.058 12.194 154.358 12.194C152.314 12.194 150.998 14.308 150.998 16.464C150.998 17.99 151.726 19.236 153.35 19.236ZM153.644 17.878C152.93 17.878 152.552 17.332 152.552 16.492C152.552 15.106 153.266 13.594 154.47 13.594C155.002 13.594 155.618 13.832 156.024 14.224L155.996 14.476C155.73 16.576 154.596 17.878 153.644 17.878ZM153.714 20.244C153.112 20.244 152.664 20.692 152.664 21.28C152.664 21.854 153.098 22.274 153.672 22.274C154.26 22.274 154.708 21.84 154.708 21.238C154.708 20.678 154.288 20.244 153.714 20.244ZM160.679 19.236C161.225 19.236 161.897 19.068 162.401 18.76L162.191 17.416C161.813 17.64 161.463 17.766 161.211 17.766C160.875 17.766 160.679 17.542 160.749 16.954L161.169 13.594H162.835L162.989 12.292H161.323L161.617 9.85602L160.063 10.164L159.783 12.292H159.055L158.901 13.594H159.629L159.181 17.234C159.041 18.424 159.503 19.236 160.679 19.236Z" fill="white"/>
<defs>
<clipPath id="clip0_3_2497">
<rect width="31.0183" height="32" fill="white" transform="translate(30 12.624)"/>
</clipPath>
</defs>
</svg>
