<svg width="70" height="51" viewBox="0 0 70 51" fill="none" xmlns="http://www.w3.org/2000/svg">
<g filter="url(#filter0_d_3_2627)">
<rect x="5" y="5.3418" width="60" height="40" rx="5" fill="white"/>
<path d="M14.9657 18.0098H9.06041L9 18.2966C13.6065 19.4745 16.6573 22.314 17.9107 25.7268L16.627 19.203C16.4156 18.2964 15.7661 18.0397 14.9657 18.0098Z" fill="#FAA61A"/>
<path d="M26.9725 18.0098L23.378 27.6894L22.9852 25.7262C22.3206 23.461 20.2365 20.9999 17.9106 19.7762L21.2031 32.1897H25.0844L30.8536 18.0098H26.9725Z" fill="#00579F"/>
<path d="M34.524 32.2047H30.8536L33.1494 18.0098H36.8195L34.524 32.2047Z" fill="#00579F"/>
<path d="M47.8298 18.6141C47.1059 18.3269 45.9576 18.0098 44.5378 18.0098C40.9132 18.0098 38.3608 19.9426 38.3451 22.706C38.315 24.7448 40.1726 25.8772 41.5619 26.557C42.9819 27.2516 43.4646 27.705 43.4646 28.3242C43.4501 29.2752 42.3171 29.7135 41.2604 29.7135C39.795 29.7135 39.0098 29.4875 37.8166 28.9585L37.3333 28.7317L36.8197 31.9181C37.6805 32.3103 39.2666 32.6584 40.9132 32.6736C44.7644 32.6736 47.2717 30.7707 47.3014 27.8259C47.316 26.21 46.3351 24.9718 44.2205 23.96C42.9367 23.3105 42.1506 22.8726 42.1506 22.208C42.1656 21.6039 42.8155 20.9851 44.2646 20.9851C45.4578 20.9548 46.3345 21.2416 46.9987 21.5286L47.3307 21.6793L47.8298 18.6141Z" fill="#00579F"/>
<path d="M53.5084 27.176C53.8107 26.3605 54.9738 23.2043 54.9738 23.2043C54.9585 23.2346 55.2754 22.3738 55.4567 21.8453L55.7132 23.0684C55.7132 23.0684 56.4082 26.4663 56.5592 27.176C55.9855 27.176 54.2333 27.176 53.5084 27.176ZM58.039 18.0098H55.2C54.3245 18.0098 53.6593 18.2663 53.2816 19.1875L47.8297 32.2045H51.6809C51.6809 32.2045 52.315 30.4526 52.4512 30.0752C52.8737 30.0752 56.6202 30.0752 57.1637 30.0752C57.2691 30.5736 57.6017 32.2045 57.6017 32.2045H61.0001L58.039 18.0098Z" fill="#00579F"/>
</g>
<defs>
<filter id="filter0_d_3_2627" x="0" y="0.341797" width="70" height="50" filterUnits="userSpaceOnUse" color-interpolation-filters="sRGB">
<feFlood flood-opacity="0" result="BackgroundImageFix"/>
<feColorMatrix in="SourceAlpha" type="matrix" values="0 0 0 0 0 0 0 0 0 0 0 0 0 0 0 0 0 0 127 0" result="hardAlpha"/>
<feOffset/>
<feGaussianBlur stdDeviation="2.5"/>
<feColorMatrix type="matrix" values="0 0 0 0 0 0 0 0 0 0 0 0 0 0 0 0 0 0 0.1 0"/>
<feBlend mode="normal" in2="BackgroundImageFix" result="effect1_dropShadow_3_2627"/>
<feBlend mode="normal" in="SourceGraphic" in2="effect1_dropShadow_3_2627" result="shape"/>
</filter>
</defs>
</svg>
