<svg width="31" height="30" viewBox="0 0 31 30" fill="none" xmlns="http://www.w3.org/2000/svg">
<g clip-path="url(#clip0_3_2363)">
<path d="M0 24.0831C0.108028 23.9593 0.210185 23.8289 0.325845 23.7133C2.33375 21.7026 4.34283 19.6935 6.35309 17.686C6.42824 17.6103 6.51689 17.5486 6.63548 17.4512C6.50339 17.3701 6.42765 17.3179 6.34663 17.275C5.83937 17.0038 5.32917 16.7378 4.82367 16.4637C3.83498 15.9276 3.49446 14.8832 3.97765 13.8669C4.23774 13.3209 4.50135 12.7772 4.77494 12.2382C4.86247 12.0798 4.90839 11.9017 4.90839 11.7207C4.90839 11.5397 4.86247 11.3616 4.77494 11.2032C4.50135 10.6642 4.23833 10.12 3.97882 9.57396C3.49446 8.55474 3.83029 7.51908 4.82074 6.97659C5.34248 6.69126 5.86814 6.41297 6.39771 6.14173C6.57022 6.06024 6.7192 5.93624 6.83063 5.78137C6.94206 5.6265 7.01229 5.44584 7.03472 5.25637C7.13276 4.63052 7.23786 4.00466 7.37113 3.38526C7.58718 2.38365 8.48663 1.75662 9.49939 1.88813C10.099 1.96642 10.6975 2.05331 11.2948 2.14881C11.6999 2.21339 12.0427 2.12474 12.3363 1.8259C12.6445 1.51297 12.9774 1.22412 13.2815 0.907669C13.672 0.502565 14.0929 0.153822 14.6471 0H15.3517C15.9171 0.155583 16.3415 0.516654 16.7384 0.927629C17.0367 1.23645 17.3613 1.51943 17.6619 1.8259C17.9461 2.11593 18.2796 2.21339 18.6747 2.15292C19.2724 2.06133 19.8706 1.97679 20.4695 1.89107C21.5421 1.74019 22.4657 2.42534 22.6647 3.52734C22.7698 4.10271 22.8766 4.67866 22.9635 5.25696C22.9851 5.44619 23.0551 5.62666 23.1668 5.78093C23.2785 5.9352 23.4281 6.05805 23.6011 6.13762C24.1054 6.39301 24.6027 6.66249 25.1018 6.92904C26.1873 7.50793 26.5214 8.54123 25.9824 9.65087C25.727 10.1793 25.4722 10.7041 25.211 11.2272C25.1297 11.3782 25.0872 11.5469 25.0872 11.7184C25.0872 11.8898 25.1297 12.0585 25.211 12.2095C25.4767 12.7414 25.7388 13.2753 25.9971 13.8111C26.5167 14.8861 26.1791 15.9247 25.1229 16.4918C24.5581 16.7965 23.9904 17.096 23.3481 17.5093C23.4561 17.5751 23.5829 17.6226 23.6698 17.7095C25.6824 19.7151 27.6917 21.7237 29.6976 23.7356C29.8191 23.8462 29.9153 23.9818 29.9795 24.133C30.0705 24.3984 29.8697 24.6321 29.5127 24.7149C28.4013 24.9732 27.2946 25.2526 26.1762 25.4722C25.74 25.5579 25.5562 25.7323 25.4716 26.1768C25.2573 27.2864 24.9755 28.3825 24.7237 29.4851C24.6714 29.7153 24.5904 29.9196 24.3362 29.9853C24.0914 30.0487 23.9334 29.9008 23.7773 29.7446C21.4789 27.4443 19.18 25.1452 16.8805 22.8473C16.8059 22.7721 16.7279 22.7005 16.6327 22.6095C16.1883 23.0892 15.6887 23.4391 15.0123 23.4414C14.336 23.4438 13.8264 23.1091 13.3743 22.6036C13.2815 22.6923 13.1982 22.7692 13.1171 22.8496L6.30318 29.6648C6.25445 29.7129 6.20748 29.7628 6.15758 29.8092C5.80532 30.138 5.41665 30.0317 5.30099 29.5614C5.12486 28.8516 4.96986 28.1377 4.80606 27.4249C4.68394 26.893 4.55713 26.3617 4.4444 25.828C4.40918 25.6601 4.3217 25.5902 4.16083 25.5538C2.96254 25.2838 1.76719 25.0014 0.568319 24.7354C0.326431 24.6814 0.129751 24.5898 0 24.3761V24.0831ZM11.4357 20.3298C12.0909 20.3209 12.5512 20.5188 12.944 20.8946C13.3802 21.3143 13.814 21.7365 14.2509 22.1557C14.7376 22.6218 15.2542 22.6253 15.7486 22.1557C16.1744 21.7529 16.5956 21.3456 17.012 20.9339C17.5228 20.4307 18.1275 20.2452 18.832 20.362C19.4092 20.4572 19.9898 20.5347 20.5699 20.6122C21.1705 20.6932 21.6267 20.3585 21.7341 19.765C21.8375 19.189 21.9414 18.6131 22.033 18.0353C22.1451 17.3308 22.5026 16.8083 23.1391 16.4789C23.6334 16.2247 24.1231 15.9611 24.6133 15.6992C25.3266 15.3182 25.4699 14.8632 25.1106 14.1281C24.871 13.6379 24.635 13.1453 24.389 12.6604C24.0714 12.031 24.0702 11.4081 24.389 10.7816C24.6575 10.2509 24.92 9.71721 25.1763 9.18059C25.4511 8.60582 25.2849 8.10384 24.7207 7.79737C24.1724 7.49912 23.6176 7.21026 23.0686 6.91671C22.5314 6.62316 22.188 6.18224 22.077 5.57693C21.9596 4.95401 21.8515 4.32933 21.7412 3.70523C21.6308 3.08114 21.1887 2.74649 20.5752 2.82809C20.1114 2.8868 19.6428 2.93554 19.1867 3.03593C18.2215 3.24729 17.4195 3.02184 16.759 2.26741C16.4578 1.92336 16.1073 1.62159 15.775 1.30514C15.2554 0.811381 14.7452 0.811381 14.2321 1.30514C13.8093 1.71063 13.3882 2.11789 12.9686 2.52691C12.4625 3.01832 11.8648 3.19386 11.1691 3.08055C10.582 2.98426 9.99491 2.90442 9.40193 2.82809C8.80896 2.75177 8.37039 3.08995 8.26647 3.67353C8.16255 4.25711 8.05863 4.82543 7.96763 5.40315C7.85432 6.12001 7.48914 6.64547 6.83862 6.97659C6.33489 7.23316 5.84054 7.50499 5.33856 7.76919C4.70566 8.1056 4.54245 8.59114 4.85068 9.22991C5.09609 9.73952 5.3368 10.2515 5.59572 10.7564C5.92919 11.4022 5.93154 12.0422 5.601 12.6909C5.33563 13.2123 5.08141 13.7395 4.82837 14.2673C4.55243 14.8438 4.71564 15.3464 5.27868 15.6517C5.8016 15.9347 6.32725 16.2132 6.85565 16.4871C7.48033 16.8136 7.83729 17.3302 7.95882 18.0171C8.05746 18.5743 8.15374 19.1326 8.25238 19.6886C8.38154 20.4172 8.81365 20.7172 9.54401 20.6051C10.2086 20.4947 10.8762 20.4084 11.4357 20.3298ZM17.3784 21.9149L23.9733 28.5105C23.9833 28.4788 24.0068 28.4154 24.0221 28.3496C24.2569 27.3246 24.5006 26.3 24.7266 25.2726C24.7929 24.9685 24.9432 24.7959 25.255 24.7301C26.0552 24.5587 26.8525 24.372 27.6498 24.1882C27.9539 24.1178 28.2563 24.0391 28.4835 23.9833L22.9259 18.4252C22.8484 18.872 22.7604 19.3693 22.6758 19.8671C22.478 21.0372 21.5392 21.713 20.3732 21.5298C19.8918 21.4541 19.3986 21.4306 18.9272 21.3179C18.2355 21.1535 17.7459 21.4042 17.3784 21.9161V21.9149ZM12.6416 21.9214C12.3075 21.5498 11.957 21.1764 11.35 21.2791C10.7928 21.3725 10.2303 21.4365 9.67142 21.521C8.43203 21.7077 7.52554 21.0513 7.32299 19.8184C7.24314 19.3328 7.15155 18.8497 7.06642 18.37L1.48127 23.9663C1.52281 23.9852 1.56581 24.0007 1.60985 24.0127C2.64433 24.2522 3.67764 24.4982 4.71564 24.7219C5.04853 24.7935 5.21645 24.9632 5.28044 25.2949C5.38377 25.8327 5.51881 26.3611 5.64092 26.8895C5.77009 27.4443 5.90219 27.9986 6.02724 28.5334C8.23907 26.3231 10.4439 24.1195 12.6416 21.9226V21.9214Z" fill="black"/>
<path d="M14.8944 4.68103C16.4044 4.69806 17.686 5.07674 18.8544 5.83528C19.0546 5.96562 19.1896 6.14528 19.0992 6.3719C19.0405 6.51339 18.892 6.67191 18.7522 6.71066C18.6125 6.74941 18.4287 6.6678 18.2972 6.58561C17.2686 5.93427 16.0711 5.59983 14.8538 5.62392C11.8596 5.66209 9.24051 8.0657 8.95752 11.0494C8.64283 14.3671 10.8222 17.1893 14.1188 17.7336C17.4254 18.2796 20.6944 15.7721 21.0466 12.4408C21.2286 10.7001 20.7736 9.1589 19.6734 7.80268C19.445 7.52146 19.4386 7.23436 19.6611 7.05412C19.8836 6.87388 20.1695 6.92319 20.3938 7.20735C22.0788 9.33973 22.525 11.7111 21.5451 14.2456C20.5699 16.7702 18.6589 18.2632 15.9858 18.6694C12.0627 19.2671 8.45437 16.4332 8.01522 12.4802C7.58722 8.62639 10.3537 5.1742 14.2245 4.73387C14.4857 4.70452 14.7493 4.69219 14.8944 4.68103Z" fill="black"/>
<path d="M14.0553 13.3667C14.6712 12.7209 15.2689 12.0915 15.8659 11.4627C16.463 10.8339 17.073 10.1851 17.6813 9.55165C17.9014 9.32209 18.1833 9.30918 18.3799 9.50116C18.5766 9.69314 18.5672 9.9503 18.3717 10.1828C18.34 10.2204 18.3048 10.2538 18.2713 10.2896C17.4368 11.1668 16.6028 12.0441 15.7691 12.9217C15.3387 13.3749 14.9101 13.8293 14.4774 14.2814C14.1481 14.626 13.9115 14.6243 13.5968 14.2685C12.938 13.5217 12.282 12.7725 11.6288 12.021C11.354 11.704 11.4527 11.2701 11.8296 11.2237C11.9893 11.2038 12.2171 11.303 12.331 11.4257C12.9116 12.0469 13.4629 12.6933 14.0553 13.3667Z" fill="black"/>
</g>
<defs>
<clipPath id="clip0_3_2363">
<rect width="30.0029" height="30" fill="white"/>
</clipPath>
</defs>
</svg>
