<svg width="34" height="30" viewBox="0 0 34 30" fill="none" xmlns="http://www.w3.org/2000/svg">
<g clip-path="url(#clip0_3_2356)">
<path d="M0.000770306 13.4483C0.252279 12.7797 0.748187 12.5528 1.44194 12.5638C3.0234 12.5884 4.61003 12.5981 6.18762 12.5638C7.15745 12.5418 7.73935 13.0435 7.64754 14.025C7.64596 14.1113 7.64942 14.1977 7.65789 14.2836C7.76715 14.219 7.85185 14.1763 7.92297 14.1226C11.554 11.4634 13.9184 7.98039 14.7835 3.53147C14.8808 3.01337 14.9501 2.49042 14.9911 1.96487C15.0809 0.894182 15.5975 0.283836 16.6592 0.043965C16.6899 0.032675 16.7191 0.017925 16.7465 0H17.0697C17.3012 0.0452586 17.5359 0.0788796 17.7641 0.137716C19.3993 0.559914 20.47 2.1556 20.2779 3.83405C19.9779 6.45452 19.696 9.07759 19.4096 11.6994C19.4057 11.731 19.4096 11.764 19.4096 11.8319C19.9825 11.8319 20.5521 11.8183 21.1191 11.8403C21.2859 11.8468 21.4928 11.9127 21.6027 12.0265C21.8691 12.3013 21.6738 12.7772 21.2794 12.7894C20.4615 12.8159 19.6424 12.8088 18.8225 12.794C18.5154 12.7881 18.3396 12.5353 18.3751 12.203C18.5296 10.7806 18.6894 9.35819 18.8458 7.93578C19.0042 6.50172 19.1801 5.06961 19.3133 3.63362C19.4426 2.24871 18.4029 1.08104 17.0135 0.998923C16.4439 0.965302 16.0159 1.3306 15.9693 1.90927C15.6842 5.4569 14.4124 8.61336 12.1999 11.3929C10.9866 12.9242 9.53176 14.2473 7.89259 15.3103C7.70638 15.4306 7.63784 15.5534 7.63849 15.7733C7.64495 19.3177 7.64495 22.8619 7.63849 26.4058C7.63849 26.6386 7.71284 26.7414 7.92685 26.8248C9.69064 27.5114 11.4473 28.2149 13.2111 28.9002C13.4226 28.9736 13.6448 29.0112 13.8687 29.0114C14.3859 29.0276 14.9031 29.0231 15.4204 29.0114C15.7094 29.0069 15.9712 29.0405 16.0669 29.3619C16.1626 29.6832 15.9441 29.8519 15.7094 30H13.3171L7.64366 27.7435C7.64366 27.9659 7.64366 28.1134 7.64366 28.2608C7.64366 29.2526 7.24344 29.6541 6.25357 29.6541C4.64818 29.6541 3.04215 29.6386 1.43741 29.6619C0.742363 29.6722 0.246457 29.442 -0.00181843 28.7709V20.9483C0.13719 20.7647 0.2859 20.5953 0.550987 20.6341C0.827064 20.6741 0.967362 20.8836 0.967362 21.2631C0.967362 23.6121 0.971892 25.9603 0.96284 28.3106C0.96284 28.5879 1.04301 28.6933 1.32814 28.6914C2.9872 28.6823 4.64668 28.6823 6.30659 28.6914C6.58332 28.6914 6.68095 28.6093 6.6803 28.3222C6.6734 23.5179 6.6734 18.7134 6.6803 13.9086C6.6803 13.6209 6.58332 13.5375 6.30724 13.5388C4.64819 13.5478 2.9887 13.5478 1.32879 13.5388C1.0456 13.5388 0.959606 13.6364 0.961545 13.917C0.972537 15.5547 0.961545 17.1918 0.969304 18.8308C0.969304 19.1101 0.927924 19.361 0.629217 19.4554C0.33051 19.5498 0.135896 19.3907 -0.00311279 19.1412L0.000770306 13.4483Z" fill="black"/>
<path d="M17.6509 30C17.5688 29.9509 17.4466 29.9211 17.4123 29.8487C17.3386 29.6948 17.2468 29.5041 17.283 29.356C17.314 29.2267 17.4931 29.109 17.6328 29.0328C17.7265 28.983 17.8649 29.0134 17.9832 29.0134C21.1729 29.0134 24.3625 29.0134 27.5522 29.0134C28.0927 29.0134 28.5809 28.884 28.9507 28.4703C29.4033 27.9588 29.5371 27.3627 29.2649 26.731C28.9617 26.0276 28.3772 25.692 27.6246 25.6817C26.5365 25.6662 25.4483 25.6778 24.3602 25.6771C24.2523 25.6811 24.1442 25.6772 24.0369 25.6655C23.7918 25.6267 23.6179 25.4612 23.6489 25.231C23.6716 25.0603 23.817 24.8832 23.9535 24.759C24.0298 24.6892 24.1992 24.7093 24.3265 24.7093C26.0289 24.706 27.7306 24.7138 29.4343 24.7021C30.2903 24.6957 30.986 24.1067 31.1089 23.3263C31.264 22.306 30.5263 21.4067 29.4828 21.4009C27.7701 21.3866 26.0561 21.397 24.344 21.3937C24.2157 21.4002 24.0872 21.3877 23.9625 21.3569C23.8566 21.3297 23.7647 21.2639 23.7048 21.1724C23.645 21.0808 23.6216 20.9702 23.6392 20.8623C23.6431 20.7527 23.6873 20.6484 23.7633 20.5695C23.8393 20.4905 23.9418 20.4423 24.0511 20.4343C24.1586 20.4243 24.2666 20.4215 24.3744 20.4259C26.3994 20.4259 28.425 20.4304 30.452 20.4226C30.861 20.4277 31.2578 20.283 31.5674 20.0157C31.8771 19.7485 32.0783 19.3771 32.133 18.9718C32.2416 18.1836 31.727 17.4032 30.922 17.1782C30.6822 17.1183 30.4353 17.0909 30.1882 17.0968C28.2485 17.0903 26.3089 17.0968 24.3692 17.0929C23.8675 17.0929 23.6392 16.9435 23.6373 16.6164C23.6354 16.2892 23.8746 16.1237 24.3634 16.1237C26.1511 16.1237 27.9395 16.1237 29.7298 16.1237C30.6059 16.1237 31.297 15.6278 31.4949 14.8843C31.7768 13.8233 30.986 12.8153 29.8533 12.8088C27.7843 12.8011 25.7153 12.8088 23.6464 12.8088C23.5604 12.8088 23.4744 12.8121 23.3877 12.8088C23.08 12.792 22.8867 12.609 22.8821 12.3343C22.8776 12.0459 23.0761 11.8571 23.3994 11.8409C23.4317 11.8409 23.464 11.8409 23.4964 11.8409C25.608 11.8409 27.719 11.8364 29.8326 11.8409C31.2375 11.8448 32.3005 12.77 32.4951 14.1601C32.5992 14.9062 32.3709 15.5631 31.8906 16.136C31.8162 16.2252 31.736 16.3093 31.6384 16.4185C32.4576 16.8323 32.8921 17.5222 33.1125 18.3692V19.145C32.8817 20.1149 32.3522 20.8429 31.3895 21.2392C32.0839 22.0565 32.3069 22.9642 31.9397 23.9593C31.5725 24.9543 30.7888 25.4741 29.7582 25.681L29.8875 25.8672C30.1322 26.2173 30.2872 26.6221 30.339 27.0461C30.3908 27.47 30.3377 27.9002 30.1846 28.2989C30.0314 28.6976 29.7827 29.0527 29.4604 29.3329C29.1381 29.6131 28.7519 29.81 28.3358 29.9062C28.2013 29.9386 28.0662 29.9709 27.9311 30H17.6509Z" fill="black"/>
<path d="M0 28.7715C0.248276 29.4426 0.744182 29.6728 1.43922 29.6625C3.04397 29.6392 4.65 29.656 6.25539 29.6547C7.24526 29.6547 7.64483 29.2532 7.64547 28.2614C7.64547 28.1133 7.64547 27.9659 7.64547 27.7441L13.319 30H0V28.7715Z" fill="black"/>
<path d="M2.12329 25.9778C2.12697 25.5253 2.31027 25.0927 2.63286 24.7754C2.95546 24.458 3.39091 24.2818 3.84344 24.2855C4.29596 24.2891 4.72849 24.4724 5.04587 24.795C5.36325 25.1176 5.53948 25.5531 5.53579 26.0056C5.5321 26.4581 5.3488 26.8906 5.02621 27.208C4.70362 27.5254 4.26816 27.7016 3.81564 27.6979C3.36311 27.6943 2.93059 27.511 2.61321 27.1884C2.29584 26.8658 2.1196 26.4303 2.12329 25.9778ZM3.09311 26.0114C3.09359 26.1085 3.11349 26.2045 3.15163 26.2938C3.18977 26.3831 3.2454 26.4639 3.31522 26.5314C3.38505 26.5988 3.46767 26.6517 3.55822 26.6867C3.64877 26.7218 3.74541 26.7384 3.84247 26.7356C4.03325 26.7302 4.21453 26.6512 4.34833 26.5151C4.48213 26.379 4.55805 26.1964 4.56014 26.0056C4.56119 25.9084 4.54276 25.8121 4.50595 25.7221C4.46913 25.6322 4.41467 25.5506 4.34578 25.4821C4.2769 25.4135 4.19499 25.3595 4.10487 25.3232C4.01476 25.2868 3.91828 25.2689 3.82113 25.2705C3.72411 25.269 3.62781 25.2873 3.53808 25.3242C3.44834 25.3611 3.36705 25.4159 3.29914 25.4852C3.23123 25.5545 3.17812 25.6369 3.14303 25.7273C3.10795 25.8178 3.09163 25.9144 3.09506 26.0114H3.09311Z" fill="black"/>
</g>
<defs>
<clipPath id="clip0_3_2356">
<rect width="33.1035" height="30" fill="white"/>
</clipPath>
</defs>
</svg>
