<svg width="31" height="30" viewBox="0 0 31 30" fill="none" xmlns="http://www.w3.org/2000/svg">
<g clip-path="url(#clip0_3_2343)">
<path d="M14.8257 29.9994C14.6561 29.8421 14.4735 29.6965 14.3185 29.5257C9.63375 24.3502 4.95052 19.173 0.268853 13.9939C-0.0768716 13.6118 -0.0874384 13.3864 0.227177 12.9932C1.72043 11.125 3.21329 9.25612 4.70576 7.38643C4.79119 7.26903 4.90434 7.17457 5.03512 7.11149C5.16589 7.0484 5.31025 7.01864 5.45531 7.02485C11.8208 7.03151 18.1869 7.03151 24.5535 7.02485C24.6988 7.01869 24.8432 7.04872 24.974 7.11224C25.1047 7.17577 25.2176 7.27079 25.3025 7.38877C26.7895 9.26081 28.2822 11.1295 29.7805 12.9949C29.8591 13.0924 29.9278 13.198 30.0012 13.2996V13.6517C29.9061 13.7738 29.8192 13.9024 29.7159 14.0168C25.0202 19.2103 20.3244 24.4023 15.6287 29.5926C15.486 29.736 15.3362 29.872 15.1796 30L14.8257 29.9994ZM21.1262 14.0767H8.87793C10.9176 18.6997 12.9439 23.2921 15.0024 27.9615C17.0615 23.2945 19.0877 18.7003 21.1274 14.0767H21.1262ZM20.9906 12.8781C20.0609 11.3291 19.161 9.82235 18.2477 8.32382C18.2002 8.24692 18.037 8.20642 17.9278 8.20642C15.9756 8.19938 14.0227 8.20642 12.0705 8.19644C11.8773 8.19644 11.777 8.25984 11.6807 8.42125C10.8437 9.82998 9.99787 11.2334 9.15674 12.6392C9.11389 12.7102 9.08161 12.7877 9.03935 12.8781H20.9906ZM1.91237 14.0614L12.8887 26.1964C12.55 25.2966 12.1685 24.432 11.787 23.568L7.70106 14.3138C7.64236 14.1847 7.61595 14.055 7.40757 14.0562C5.60499 14.065 3.80006 14.0614 1.91237 14.0614ZM17.0738 26.1736L17.1172 26.2023L28.0935 14.0614H27.7279C26.0685 14.0614 24.4086 14.0673 22.7492 14.055C22.4997 14.055 22.3776 14.1196 22.2749 14.3549C20.8721 17.561 19.4624 20.7638 18.0458 23.9636C17.7218 24.7005 17.3978 25.4371 17.0738 26.1736ZM1.82784 12.8681C1.87363 12.8772 1.91987 12.8839 1.96637 12.8881C3.79125 12.8881 5.61673 12.8881 7.44162 12.8945C7.62769 12.8945 7.69519 12.8024 7.77267 12.6727C8.6136 11.2663 9.4561 9.86109 10.3002 8.45706C10.343 8.38486 10.3788 8.30914 10.4281 8.21699C10.3618 8.20936 10.3254 8.20231 10.289 8.20231C8.77639 8.20231 7.26318 8.19762 5.75056 8.20936C5.6223 8.22318 5.50443 8.28633 5.42185 8.38545C4.90591 9.0094 4.40405 9.64567 3.89573 10.2778L1.82784 12.8681ZM28.1622 12.8775C28.1401 12.8359 28.1156 12.7955 28.0888 12.7566C26.9149 11.2849 25.7367 9.8155 24.5541 8.34847C24.4843 8.26218 24.3258 8.20818 24.2078 8.2076C22.7439 8.19821 21.2794 8.20114 19.8155 8.20231C19.7433 8.20231 19.6711 8.20936 19.5854 8.21405C19.5969 8.25056 19.6108 8.28625 19.6271 8.32088C20.5076 9.79359 21.388 11.2675 22.2814 12.7331C22.3342 12.82 22.4986 12.8822 22.6118 12.8828C24.3786 12.8922 26.1454 12.8893 27.9122 12.8887C27.9855 12.8887 28.0589 12.8822 28.1622 12.8775Z" fill="black"/>
<path d="M14.4148 2.3109C14.4148 1.7656 14.4148 1.21972 14.4148 0.674429C14.4148 0.26942 14.6419 0.00821731 14.9859 -2.5965e-07C15.3381 -0.00821783 15.5834 0.261202 15.5846 0.677363C15.5873 1.78791 15.5873 2.89846 15.5846 4.009C15.5846 4.41225 15.3551 4.67521 15.0123 4.68343C14.6601 4.69165 14.4171 4.42164 14.4148 4.00606C14.4148 3.44081 14.4148 2.87615 14.4148 2.3109Z" fill="black"/>
<path d="M12.0798 4.02779C12.0558 4.34534 11.9454 4.52789 11.72 4.63119C11.6187 4.68219 11.5038 4.69983 11.3919 4.68159C11.2799 4.66336 11.1766 4.61017 11.0967 4.52965C10.8666 4.31893 10.6506 4.09353 10.4299 3.87283C9.87811 3.32225 9.32284 2.77461 8.77695 2.21699C8.4459 1.8789 8.50108 1.42811 8.88437 1.23734C8.99249 1.17711 9.11781 1.15523 9.23994 1.17526C9.36207 1.1953 9.47383 1.25607 9.55703 1.34769C10.3397 2.12249 11.1178 2.90218 11.8914 3.68676C11.993 3.78889 12.0376 3.94855 12.0798 4.02779Z" fill="black"/>
<path d="M21.455 1.83373C21.4039 1.9206 21.344 2.09258 21.229 2.20998C20.4855 2.96952 19.7353 3.72181 18.9785 4.46687C18.6915 4.75038 18.3417 4.75508 18.0981 4.50209C17.8545 4.24911 17.8738 3.91982 18.1474 3.64336C18.9014 2.88108 19.6598 2.12272 20.4225 1.36826C20.6103 1.18161 20.8334 1.10941 21.0893 1.2227C21.3164 1.32307 21.428 1.50444 21.455 1.83373Z" fill="black"/>
<path d="M13.9716 16.4052C13.2884 16.4052 12.6046 16.4052 11.9213 16.4052C11.4946 16.4052 11.2404 16.1734 11.2475 15.8059C11.2551 15.4538 11.5058 15.236 11.9202 15.2354C13.3066 15.2331 14.6928 15.2331 16.0788 15.2354C16.4962 15.2354 16.7668 15.4796 16.758 15.8341C16.7492 16.1775 16.4862 16.4035 16.0806 16.4052C15.3774 16.407 14.6748 16.4052 13.9716 16.4052Z" fill="black"/>
<path d="M18.5236 16.4028C18.4087 16.4039 18.2961 16.3711 18.1998 16.3085C18.1035 16.2459 18.0278 16.1562 17.9821 16.0508C17.9365 15.9454 17.9229 15.8289 17.9432 15.7158C17.9635 15.6027 18.0166 15.4981 18.096 15.4151C18.1754 15.3321 18.2775 15.2743 18.3895 15.2491C18.5016 15.2238 18.6186 15.2321 18.726 15.273C18.8333 15.3139 18.9262 15.3855 18.9931 15.4789C19.0599 15.5724 19.0977 15.6834 19.1017 15.7982C19.1041 15.876 19.0909 15.9535 19.063 16.0262C19.0351 16.0989 18.9931 16.1653 18.9393 16.2216C18.8855 16.2778 18.821 16.3228 18.7496 16.354C18.6783 16.3851 18.6014 16.4017 18.5236 16.4028Z" fill="black"/>
</g>
<defs>
<clipPath id="clip0_3_2343">
<rect width="30.0012" height="30" fill="white"/>
</clipPath>
</defs>
</svg>
