<svg width="21" height="30" viewBox="0 0 21 30" fill="none" xmlns="http://www.w3.org/2000/svg">
<g clip-path="url(#clip0_3_2328)">
<path d="M13.3164 -3.22517e-06C13.3751 0.0269958 13.4338 0.05869 13.4925 0.0804066C14.3459 0.390308 14.8453 1.39456 14.5718 2.26087C14.5014 2.48332 14.3412 2.60247 14.1058 2.57547C13.8705 2.54847 13.7366 2.40467 13.722 2.16872C13.7096 1.98384 13.722 1.79719 13.7137 1.61231C13.6885 1.17093 13.4015 0.882161 12.9595 0.881574C10.7253 0.876096 8.49041 0.876096 6.25496 0.881574C5.76135 0.881574 5.48373 1.1856 5.48138 1.71267C5.47669 2.95287 5.48138 4.19306 5.48138 5.43325V6.47272C6.81197 5.86583 8.16544 5.55181 9.58993 5.55123C11.0096 5.55169 12.412 5.86301 13.6985 6.46332C13.7073 6.35298 13.7196 6.27198 13.7202 6.19157C13.7202 5.49781 13.7202 4.80464 13.7202 4.11147C13.7202 3.78749 13.8816 3.59145 14.1393 3.58323C14.4087 3.57326 14.59 3.77986 14.5971 4.11147C14.6012 4.33392 14.5971 4.55637 14.5971 4.8111C14.8054 4.8111 14.988 4.8111 15.1705 4.8111C15.9764 4.82226 16.5375 5.36576 16.551 6.1681C16.5627 6.88064 16.551 7.59376 16.5598 8.30689C16.5621 8.4382 16.6072 8.56516 16.6883 8.66844C17.8745 9.99139 18.6628 11.5127 19.0132 13.2577C19.0213 13.2959 19.0321 13.3336 19.0455 13.3704C19.0554 13.3968 19.0701 13.4208 19.0936 13.4678C19.3284 13.4678 19.5731 13.4596 19.8155 13.4678C20.0919 13.4727 20.356 13.5825 20.5544 13.775C20.7528 13.9675 20.8705 14.2282 20.8837 14.5043C20.9025 14.8261 20.9025 15.1487 20.8837 15.4704C20.8509 16.0714 20.4019 16.504 19.8032 16.5269C19.5802 16.5357 19.3559 16.5269 19.1476 16.5269C18.9997 17.0892 18.8799 17.6315 18.7127 18.1592C18.3065 19.4428 17.6274 20.5721 16.7388 21.5816C16.6317 21.7127 16.5699 21.875 16.5627 22.0441C16.5434 22.7173 16.558 23.3911 16.5533 24.0649C16.5463 24.95 16.0081 25.4859 15.1288 25.4906H14.5971V25.8251C14.5971 26.5881 14.6018 27.3512 14.5971 28.1101C14.5894 29.2182 13.8188 29.9912 12.7154 29.9935C10.6364 29.9971 8.55771 29.9971 6.47917 29.9935C5.364 29.9935 4.56224 29.1513 4.6045 28.0432C4.61683 27.7198 4.78059 27.5331 5.04647 27.5319C5.31235 27.5308 5.47141 27.7121 5.48256 28.0408C5.50838 28.7845 5.85174 29.1161 6.59774 29.1161H12.6297C13.3481 29.1161 13.7161 28.7528 13.7173 28.0414C13.7173 26.6556 13.7173 25.2693 13.7173 23.846C10.9716 25.0621 8.24116 25.0703 5.47963 23.8425C5.47963 24.4529 5.47963 25.0246 5.47963 25.5968C5.47963 25.7529 5.48432 25.9096 5.47963 26.0664C5.46789 26.341 5.29474 26.5271 5.05527 26.5318C4.8158 26.5365 4.62739 26.3557 4.60802 26.0828C4.59511 25.8997 4.60802 25.7148 4.60802 25.4906C4.37325 25.4906 4.15961 25.4953 3.94831 25.4906C3.60774 25.4871 3.28203 25.3506 3.04076 25.1102C2.79949 24.8698 2.66178 24.5446 2.65705 24.204C2.64355 23.4815 2.66175 22.7584 2.64473 22.0365C2.64002 21.8768 2.58289 21.7231 2.48215 21.5992C-0.809386 17.9508 -0.826994 12.4055 2.45632 8.75296C2.52358 8.68489 2.57607 8.60368 2.61051 8.51441C2.64494 8.42513 2.66059 8.3297 2.65646 8.2341C2.64473 7.56089 2.64825 6.88415 2.65646 6.2127C2.66233 5.36165 3.21934 4.81345 4.07744 4.80406C4.24178 4.80406 4.40612 4.80406 4.61037 4.80406V1.95332C4.61037 0.816425 4.89915 0.392655 5.94448 -0.00469971L13.3164 -3.22517e-06ZM9.60108 23.8882C14.3993 23.8882 18.3053 19.9834 18.3271 15.1693C18.3488 10.3553 14.4204 6.42987 9.60226 6.43045C4.78411 6.43104 0.8669 10.3518 0.881573 15.1693C0.896247 19.9869 4.80465 23.8912 9.60108 23.8894V23.8882ZM4.60274 5.69326C4.35799 5.69326 4.1332 5.64924 3.93833 5.70676C3.78632 5.75196 3.56856 5.91454 3.55858 6.03838C3.51632 6.57425 3.54039 7.11541 3.54039 7.6818C3.88492 7.44703 4.19834 7.23456 4.50531 7.01446C4.53104 6.99451 4.55248 6.96957 4.56831 6.94112C4.58415 6.91268 4.59406 6.88132 4.59746 6.84894C4.60685 6.47213 4.60274 6.09473 4.60274 5.69385V5.69326ZM15.6712 7.68356C15.6712 7.1336 15.6946 6.62708 15.6565 6.12349C15.6459 5.97969 15.4804 5.77133 15.3466 5.73083C15.1183 5.66568 14.8583 5.71263 14.5988 5.71263C14.5988 6.09649 14.5941 6.45687 14.6029 6.81666C14.605 6.85319 14.6142 6.88896 14.6301 6.9219C14.646 6.95484 14.6683 6.9843 14.6957 7.00858C15.0015 7.23045 15.3155 7.43998 15.6712 7.68415V7.68356ZM3.52748 22.6211C3.52748 22.9967 3.53863 23.3336 3.52748 23.6687C3.48874 24.6378 3.66071 24.6448 4.52527 24.6078C4.54229 24.6078 4.55814 24.5914 4.60274 24.5679C4.60274 24.2158 4.60627 23.8472 4.59864 23.4797C4.59739 23.4476 4.58968 23.416 4.57597 23.3868C4.56225 23.3577 4.54281 23.3316 4.51881 23.3101C4.20715 23.0841 3.88727 22.8687 3.52748 22.6211ZM14.6 24.6113C14.8524 24.6113 15.0566 24.6213 15.2597 24.6113C15.4792 24.5978 15.6483 24.4699 15.6571 24.2545C15.6788 23.7262 15.6641 23.198 15.6641 22.6322C15.312 22.8752 14.995 23.0918 14.6816 23.316C14.6597 23.3326 14.6414 23.3536 14.6279 23.3777C14.6145 23.4017 14.6062 23.4283 14.6035 23.4557C14.5971 23.8301 14.6 24.207 14.6 24.6113ZM19.1963 15.7181L19.9763 15.5315C19.9701 15.1672 19.964 14.8029 19.9581 14.4386L19.1951 14.3136L19.1963 15.7181Z" fill="black"/>
<path d="M9.79536 23.0108C5.6563 22.9943 2.33483 20.0702 1.82772 16.1765C1.27717 11.9506 4.17546 8.05331 8.39728 7.4024C10.6934 7.05024 12.7664 7.63718 14.583 9.09688C14.6608 9.15571 14.7331 9.22152 14.799 9.29351C14.9534 9.47311 14.961 9.67326 14.816 9.85403C14.6611 10.0471 14.4562 10.0759 14.2414 9.94677C14.1694 9.89695 14.1006 9.84265 14.0354 9.78419C11.94 8.14546 9.61283 7.70702 7.13185 8.65786C4.60803 9.62513 3.10489 11.5215 2.71282 14.2067C2.07364 18.5876 5.71264 22.4444 10.107 22.1016C13.4684 21.8398 16.1483 19.2779 16.5234 15.9388C16.7059 14.3136 16.352 12.7975 15.4751 11.41C15.4162 11.3325 15.3658 11.2489 15.3249 11.1605C15.2492 10.9457 15.2891 10.7497 15.491 10.6217C15.6929 10.4938 15.8848 10.5319 16.0462 10.6986C16.11 10.7726 16.1664 10.8526 16.2147 10.9375C19.2251 15.6371 16.4324 21.9601 10.9323 22.8928C10.4891 22.9679 10.0389 22.9896 9.79536 23.0108Z" fill="black"/>
<path d="M10.7926 14.0589L13.7419 12.5633C13.8258 12.5134 13.9143 12.4716 14.006 12.4383C14.2408 12.372 14.4339 12.433 14.546 12.6614C14.6523 12.8791 14.5836 13.0622 14.4005 13.2025C14.3203 13.258 14.2353 13.3059 14.1463 13.3457C13.2424 13.8041 12.3391 14.2637 11.4317 14.7162C11.2697 14.7972 11.1911 14.88 11.197 15.0872C11.221 15.7633 10.9199 16.2798 10.3166 16.585C9.72258 16.8855 9.13447 16.8262 8.61444 16.413C8.07563 15.9858 7.88312 15.4153 8.05509 14.7426C8.09676 14.5824 8.06976 14.4985 7.94357 14.4022C7.45642 14.0277 6.9763 13.6433 6.49501 13.2612C6.21739 13.0405 6.16163 12.8063 6.32832 12.5851C6.49501 12.3638 6.76324 12.3567 7.04673 12.5786C7.53037 12.9572 8.00872 13.3416 8.49764 13.7167C8.56514 13.7683 8.70307 13.8071 8.76704 13.7754C9.50013 13.388 10.1581 13.5019 10.7926 14.0589ZM10.3277 15.1453C10.3224 14.9533 10.2425 14.7709 10.105 14.6368C9.96748 14.5027 9.78317 14.4274 9.5911 14.4269C9.3993 14.4337 9.21756 14.5144 9.08388 14.6521C8.95021 14.7898 8.87496 14.9739 8.87387 15.1658C8.87878 15.3577 8.95887 15.5399 9.09686 15.6733C9.23486 15.8067 9.41973 15.8805 9.61164 15.8789C9.80355 15.8755 9.98637 15.7966 10.1204 15.6592C10.2545 15.5219 10.329 15.3372 10.3277 15.1453Z" fill="black"/>
</g>
<defs>
<clipPath id="clip0_3_2328">
<rect width="20.8978" height="30" fill="white"/>
</clipPath>
</defs>
</svg>
