<svg width="44" height="30" viewBox="0 0 44 30" fill="none" xmlns="http://www.w3.org/2000/svg">
<g clip-path="url(#clip0_3_2352)">
<path d="M38.349 17.3171C37.5014 18.1673 36.6909 18.9734 35.89 19.7866C35.8194 19.8762 35.7803 19.9866 35.7789 20.1006C35.6907 21.6556 34.9771 22.4546 33.446 22.7095C33.3914 22.7227 33.3377 22.7398 33.2855 22.7607C33.3296 24.7469 31.8249 25.6951 30.3943 25.539C29.9331 27.6275 28.8949 28.3014 26.8814 27.803C26.8568 27.8659 26.8359 27.9301 26.8187 27.9953C26.466 29.6799 24.7637 30.4922 23.2476 29.6764C22.3947 29.2169 21.5559 28.7282 20.7286 28.2237C20.4314 28.0421 20.2268 28.0112 19.9745 28.2899C19.726 28.5426 19.4609 28.7784 19.1807 28.9955C17.7395 30.2047 15.7639 29.6526 15.1615 27.8745C15.1394 27.8092 15.1112 27.7457 15.0856 27.6796C13.2079 28.4989 11.6406 27.4776 11.3222 25.7074C9.33506 25.7542 8.39045 24.9613 8.19112 23.0491C7.22093 22.9944 6.40245 22.6196 5.91735 21.7261C5.43931 20.8441 5.54251 19.9718 6.05847 19.1031L5.07064 18.3499C4.98244 18.4919 4.90571 18.6012 4.83691 18.7132C4.44266 19.3465 4.21952 19.4065 3.58449 19.0493C2.54815 18.4663 1.51622 17.8745 0.471947 17.3047C0.0618214 17.0816 -0.075769 16.8046 0.0309518 16.3345C1.20694 11.2425 2.37499 6.14901 3.5351 1.05405C3.5684 0.866489 3.62777 0.684505 3.71149 0.513392C3.90553 0.167652 4.31301 0.1359 4.69844 0.432249C5.91147 1.36245 7.12097 2.29707 8.32695 3.23609C9.45766 4.10838 10.5734 4.99214 11.72 5.84943C12.1001 6.13519 12.3426 6.43154 12.108 6.97661C13.2837 6.90253 14.4118 6.86107 15.5337 6.75171C16.8928 6.62029 18.2432 6.3848 19.6041 6.28954C20.2126 6.24721 20.8389 6.44918 21.4562 6.51974C21.6706 6.54444 21.9405 6.58677 22.1027 6.48711C23.1761 5.83003 24.268 5.76035 25.4358 6.21546C26.1864 6.50739 26.9775 6.69349 27.729 6.97661C29.1102 7.49522 30.4349 7.39291 31.7791 6.67233C31.5092 6.12285 31.9114 5.85913 32.2959 5.56278C34.5661 3.81409 36.8323 2.05952 39.0943 0.299069C39.7514 -0.209839 40.158 -0.0731311 40.3441 0.734771C41.5289 5.88442 42.7122 11.0344 43.8941 16.1846C43.9823 16.5665 43.8782 16.8408 43.5316 17.0339C42.4026 17.6628 41.2807 18.304 40.1491 18.9293C39.7223 19.1657 39.4533 19.0846 39.179 18.6647C38.9047 18.2449 38.6436 17.7951 38.349 17.3171ZM21.2384 27.1213C22.1274 27.631 22.9794 28.1532 23.8658 28.6074C24.1251 28.7406 24.4982 28.7538 24.7928 28.6956C25.2823 28.5951 25.5601 28.2158 25.6316 27.7254C25.703 27.235 25.4816 26.8434 25.0742 26.5612C23.6162 25.5469 22.1548 24.537 20.703 23.5122C20.3441 23.2581 20.285 22.9353 20.4808 22.6381C20.6766 22.3409 21.0355 22.28 21.4095 22.5243C21.9502 22.8771 22.4802 23.2458 23.0103 23.6145C24.3974 24.5776 25.7833 25.5425 27.168 26.5092C27.6196 26.8223 28.0967 26.8761 28.5721 26.5788C28.999 26.3142 29.164 25.9041 29.1093 25.4067C29.0643 24.9895 28.7971 24.7311 28.4734 24.5026C26.6271 23.1973 24.784 21.8872 22.9442 20.5725C22.7678 20.4428 22.5464 20.2488 22.5182 20.0583C22.4899 19.8678 22.6108 19.492 22.7572 19.4356C22.9856 19.3474 23.3569 19.3668 23.551 19.5035C25.6131 20.935 27.6513 22.4017 29.7011 23.8517C29.926 24.0105 30.1668 24.1772 30.4252 24.2521C30.7044 24.3308 31.0023 24.3087 31.2668 24.1897C31.5312 24.0706 31.7454 23.8623 31.8717 23.6012C32.016 23.3407 32.0584 23.0359 31.9908 22.7458C31.9232 22.4558 31.7503 22.2012 31.5056 22.0313C30.5046 21.286 29.4832 20.5672 28.4725 19.8351C27.1636 18.8885 25.8553 17.9409 24.5476 16.9925C24.3024 16.8161 24.1066 16.5885 24.2336 16.2931C24.3139 16.1052 24.5185 15.8971 24.7055 15.8521C24.8819 15.808 25.1333 15.9235 25.3 16.0417C27.6558 17.7175 30.001 19.4127 32.3559 21.0973C32.539 21.2424 32.7437 21.3579 32.9627 21.4395C33.24 21.5228 33.5378 21.506 33.8039 21.392C34.0701 21.278 34.2878 21.0741 34.4188 20.8159C34.7134 20.247 34.5617 19.6446 33.9911 19.1789C30.9923 16.7358 27.9936 14.3042 25.0107 11.8443C24.6252 11.5268 24.3218 11.4324 23.9064 11.727C23.7424 11.8434 23.5342 11.899 23.3419 11.9722C21.2534 12.766 19.1966 12.848 17.1786 11.7297C16.6494 11.436 16.3151 11.0126 16.3284 10.3917C16.3416 9.77076 16.6917 9.36857 17.2324 9.09074C18.1197 8.63475 18.9964 8.1576 19.8784 7.6875C19.9666 7.6381 20.0548 7.57019 20.1932 7.47406C20.1243 7.46107 20.0544 7.45399 19.9842 7.45289C17.2092 7.87602 14.4111 8.1305 11.6053 8.21493C11.436 8.2211 11.2119 8.38515 11.1158 8.5395C9.71784 10.7842 8.33841 13.0376 6.95369 15.2902C6.54797 15.9517 6.1405 16.6132 5.7189 17.2994C6.06288 17.564 6.39715 17.7995 6.70761 18.0641C6.91224 18.2405 7.04894 18.1999 7.23063 18.0324C7.65223 17.6434 8.07823 17.258 8.52716 16.9025C8.82864 16.6596 9.18336 16.4916 9.56228 16.4122C9.9412 16.3329 10.3335 16.3444 10.7071 16.4458C11.0808 16.5473 11.425 16.7358 11.7118 16.9959C11.9985 17.256 12.2195 17.5804 12.3568 17.9424C12.4088 18.0729 12.4582 18.207 12.5146 18.3516C13.4099 17.8833 14.2857 17.8321 15.1359 18.3596C15.9712 18.8782 16.3566 19.672 16.3875 20.6281C18.0712 20.8089 18.6356 21.3751 19.0643 23.274C21.0867 23.3631 22.2086 25.2488 21.2358 27.1213H21.2384ZM32.4679 7.74924C32.2968 7.81891 32.1601 7.86654 32.0269 7.92563C30.4552 8.66033 28.865 8.70355 27.2368 8.10203C26.3548 7.77658 25.4534 7.51639 24.56 7.2271C24.3233 7.14485 24.0721 7.11295 23.8224 7.13346C23.5727 7.15396 23.33 7.22641 23.11 7.34617C21.346 8.28108 19.5838 9.21716 17.8233 10.1544C17.4432 10.3573 17.4423 10.4658 17.8172 10.6836C18.7135 11.2016 19.7477 11.4307 20.7789 11.3398C21.9255 11.2516 22.9839 10.8609 23.9858 10.3202C24.5847 9.99743 24.664 10.008 25.1994 10.4446L26.7032 11.6697L35.2312 18.6206L37.6602 16.1969L32.4679 7.74924ZM3.93993 17.8436L10.7965 6.69085C8.73002 5.09092 6.69262 3.51569 4.62259 1.90958C4.58643 2.02953 4.56261 2.0948 4.54762 2.16271C3.47982 6.80786 2.41556 11.453 1.35482 16.0982C1.35042 16.1687 1.36303 16.2392 1.39158 16.3038C1.42013 16.3684 1.46378 16.4252 1.51887 16.4695C2.30119 16.936 3.09939 17.3726 3.93993 17.8436ZM33.117 6.473L39.9771 17.624C40.7762 17.1759 41.5365 16.7358 42.31 16.3222C42.5631 16.1863 42.6108 16.0523 42.5446 15.7683C41.6591 11.954 40.7836 8.13731 39.9181 4.3183C39.7205 3.45747 39.5185 2.59753 39.3007 1.68203L33.117 6.473ZM10.7842 24.5829C11.0532 24.4479 11.3619 24.3597 11.5841 24.1701C12.6328 23.2749 13.6647 22.3585 14.6887 21.436C15.2506 20.9297 15.2823 20.2312 14.8052 19.672C14.328 19.1128 13.5766 19.0317 13.0033 19.5256C11.936 20.4446 10.8865 21.3822 9.83691 22.325C9.64484 22.489 9.51227 22.7118 9.4598 22.9588C9.40733 23.2059 9.43789 23.4633 9.54674 23.6912C9.66041 23.9326 9.83364 24.1411 10.0501 24.2971C10.2666 24.4531 10.5192 24.5514 10.7842 24.5829ZM12.5076 25.4349C12.5905 26.0011 12.8207 26.3927 13.282 26.6185C13.4976 26.7353 13.7447 26.7812 13.9879 26.7495C14.2311 26.7178 14.4581 26.6103 14.6367 26.4421C15.5575 25.6439 16.4748 24.8422 17.3762 24.0219C17.5938 23.7986 17.7189 23.5012 17.7262 23.1894C17.7336 22.8777 17.6228 22.5747 17.416 22.3413C17.2091 22.1079 16.9217 21.9614 16.6113 21.9312C16.3009 21.901 15.9906 21.9894 15.7427 22.1786C14.8087 22.9847 13.8791 23.7953 12.9786 24.6367C12.7616 24.8369 12.6619 25.165 12.5076 25.4349ZM11.2975 19.0334C11.2887 18.3225 11.0497 17.9397 10.5919 17.7104C10.1086 17.4644 9.64199 17.5402 9.23804 17.8868C8.55597 18.4678 7.88389 19.0599 7.22181 19.6632C6.98931 19.8829 6.85287 20.1854 6.84214 20.5051C6.8314 20.8248 6.94724 21.1359 7.16448 21.3707C7.62047 21.8787 8.34988 21.951 8.86584 21.5127C9.5485 20.9323 10.232 20.3511 10.8768 19.7302C11.1026 19.5079 11.2155 19.1736 11.2975 19.0334ZM16.2181 27.1389C16.3063 27.6619 16.5127 28.0315 16.9334 28.2608C17.3744 28.5007 17.833 28.4963 18.2176 28.1858C18.8561 27.6707 19.4771 27.1274 20.0698 26.5594C20.5178 26.1264 20.4808 25.3811 20.0539 24.9216C19.627 24.4621 18.9073 24.3756 18.4222 24.7805C17.8145 25.2876 17.2148 25.808 16.6512 26.3627C16.4457 26.5585 16.3583 26.8769 16.2181 27.1389Z" fill="black"/>
</g>
<defs>
<clipPath id="clip0_3_2352">
<rect width="43.9213" height="30" fill="white"/>
</clipPath>
</defs>
</svg>
