<svg width="28" height="36" viewBox="0 0 28 36" fill="none" xmlns="http://www.w3.org/2000/svg">
<path d="M0.0354614 0.815186H1.21967V5.65887H3.81945V6.69384H0.0354614V0.815186Z" fill="white"/>
<path d="M4.52326 1.42793C4.52309 1.33864 4.54091 1.25023 4.57564 1.16798C4.61038 1.08573 4.66132 1.01131 4.72544 0.949173C4.78955 0.887034 4.86553 0.838444 4.94883 0.806301C5.03213 0.774158 5.12105 0.759121 5.21029 0.762085C5.29916 0.759857 5.38759 0.775307 5.47044 0.807539C5.5533 0.839771 5.62892 0.888142 5.69292 0.949843C5.75692 1.01154 5.80803 1.08535 5.84327 1.16696C5.87851 1.24858 5.89719 1.33638 5.89821 1.42528C5.898 1.51473 5.87993 1.60325 5.84507 1.68563C5.8102 1.76801 5.75924 1.8426 5.69516 1.90503C5.63109 1.96746 5.5552 2.01646 5.47194 2.04918C5.38868 2.08189 5.29972 2.09765 5.21029 2.09553C5.12093 2.09838 5.03192 2.0832 4.94856 2.05091C4.86519 2.01861 4.78919 1.96986 4.72508 1.90755C4.66096 1.84525 4.61005 1.77068 4.57537 1.68827C4.5407 1.60587 4.52298 1.51733 4.52326 1.42793ZM4.65572 2.64481H5.74014V6.69373H4.65572V2.64481Z" fill="white"/>
<path d="M6.86694 2.64495H7.95137V3.1748H7.95931C8.10445 2.99309 8.28827 2.84602 8.4974 2.74429C8.70652 2.64255 8.9357 2.58871 9.16825 2.58667C9.69809 2.58667 10.1211 2.78536 10.3613 3.22425H10.3772C10.7083 2.80214 11.2135 2.58667 11.7901 2.58667C12.6591 2.58667 13.2136 3.10857 13.2136 4.35283V6.69387H12.1327V4.60715C12.1327 3.96162 11.9341 3.55541 11.4263 3.55541C10.9706 3.55541 10.598 3.94485 10.598 4.67339V6.69387H9.51618V4.60715C9.51618 3.96162 9.30071 3.55541 8.80442 3.55541C8.30813 3.55541 7.95137 3.94485 7.95137 4.67339V6.69387H6.86694V2.64495Z" fill="white"/>
<path d="M14.1532 1.42793C14.153 1.33864 14.1708 1.25023 14.2056 1.16798C14.2403 1.08573 14.2913 1.01131 14.3554 0.949173C14.4195 0.887034 14.4955 0.838444 14.5788 0.806301C14.6621 0.774158 14.751 0.759121 14.8402 0.762085C14.9291 0.759857 15.0175 0.775307 15.1004 0.807539C15.1832 0.839771 15.2589 0.888142 15.3229 0.949843C15.3869 1.01154 15.438 1.08535 15.4732 1.16696C15.5085 1.24858 15.5271 1.33638 15.5282 1.42528C15.5279 1.51473 15.5099 1.60325 15.475 1.68563C15.4401 1.76801 15.3892 1.8426 15.3251 1.90503C15.261 1.96746 15.1851 2.01646 15.1019 2.04918C15.0186 2.08189 14.9297 2.09765 14.8402 2.09553C14.7509 2.09838 14.6619 2.0832 14.5785 2.05091C14.4951 2.01861 14.4191 1.96986 14.355 1.90755C14.2909 1.84525 14.24 1.77068 14.2053 1.68827C14.1706 1.60587 14.1529 1.51733 14.1532 1.42793ZM14.2857 2.64481H15.3701V6.69373H14.2857V2.64481Z" fill="white"/>
<path d="M16.5958 5.41851V3.54726H16.1128V2.64476H16.5932V1.32809L17.6776 1.2124V2.64476H18.7709V3.54726H17.6803V5.26573C17.6803 5.61897 17.7686 5.78763 18.0282 5.78763C18.2076 5.77729 18.3827 5.72914 18.5421 5.64634L18.815 6.51617C18.558 6.65217 18.2931 6.76697 17.7465 6.76697C17.0515 6.76697 16.5958 6.32543 16.5958 5.41851Z" fill="white"/>
<path d="M23.0962 5.02132H20.2562C20.3886 5.50966 20.7772 5.79931 21.3238 5.79931C21.5122 5.80556 21.6994 5.7677 21.8705 5.68873C22.0416 5.60977 22.1919 5.4919 22.3093 5.34452L23.0158 5.998C22.6767 6.43954 22.1548 6.76805 21.2496 6.76805C20.0071 6.76805 19.1302 5.93177 19.1302 4.66544C19.1302 3.42913 19.9833 2.58667 21.1843 2.58667C22.327 2.58667 23.1218 3.44767 23.1218 4.63188C23.1209 4.76434 23.1041 4.95509 23.0962 5.02132ZM20.2632 4.24333H22.0435C21.9358 3.81238 21.6461 3.53068 21.1737 3.53068C20.7366 3.53068 20.3886 3.77883 20.2632 4.24333Z" fill="white"/>
<path d="M23.7338 4.6812C23.7338 3.45637 24.5612 2.58654 25.6465 2.58654C25.8772 2.5794 26.1066 2.62317 26.3185 2.71475C26.5303 2.80633 26.7194 2.94345 26.8722 3.11638H26.8881V0.599609H27.9646V6.69285H26.9296V6.19656H26.9217C26.64 6.56127 26.2152 6.76791 25.6712 6.76791C24.5533 6.76703 23.7338 5.93164 23.7338 4.6812ZM26.9296 4.69003C26.9296 4.03567 26.4881 3.55527 25.8699 3.55527C25.2906 3.55527 24.835 3.99681 24.835 4.69003C24.835 5.33556 25.265 5.79123 25.8699 5.79123C26.4748 5.79123 26.9296 5.35411 26.9296 4.69003Z" fill="white"/>
<path d="M20.4081 35.5996C20.3092 35.4027 20.183 35.2155 20.1158 35.0089C19.586 33.3734 18.6058 32.1883 16.8997 31.7053C16.7769 31.6708 16.648 31.6523 16.5252 31.617C16.4222 31.5922 16.3316 31.5312 16.2698 31.4451C16.208 31.359 16.1793 31.2536 16.1888 31.148C16.1904 31.0419 16.2298 30.9398 16.2999 30.86C16.3699 30.7802 16.4661 30.728 16.5712 30.7127C18.5254 30.3012 19.6231 29.0189 20.1494 27.1689C20.2262 26.904 20.3666 26.7353 20.6369 26.7406C20.9071 26.7459 21.0387 26.9172 21.0952 27.1707C21.5217 29.1081 22.8039 30.1908 24.6443 30.703C24.8986 30.7736 25.0523 30.9158 25.0514 31.1772C25.0505 31.4386 24.8748 31.5896 24.6301 31.6443C23.8628 31.8227 23.15 32.1839 22.5523 32.697C21.8109 33.3101 21.3002 34.1571 21.104 35.0989C21.0643 35.2756 20.9212 35.4327 20.8258 35.5988L20.4081 35.5996ZM20.6007 33.7249C21.1844 32.5468 22.0825 31.7521 23.2234 31.1639C22.0639 30.5838 21.1826 29.7757 20.5954 28.6118C20.0178 29.7378 19.2345 30.5899 18.1139 31.1728C19.2522 31.7494 20.0231 32.6193 20.6007 33.7249Z" fill="white"/>
<path d="M21.0845 20.1661C21.0703 20.4849 20.8981 20.613 20.6544 20.6712C18.309 21.2373 16.2752 22.365 14.5947 24.0985C13.1564 25.5748 12.1904 27.4461 11.8201 29.4738C11.76 29.7828 11.6029 29.9471 11.337 29.9418C11.0359 29.9356 10.9335 29.7475 10.8567 29.4755C9.5965 25.0089 6.97111 21.8696 2.31287 20.7216C2.19807 20.6933 2.07797 20.6827 1.95963 20.6527C1.72032 20.5918 1.5702 20.4293 1.57727 20.1855C1.58433 19.9418 1.73533 19.7776 2.00026 19.7263C3.3702 19.4706 4.67675 18.9489 5.84607 18.1907C8.00608 16.7804 9.44726 14.8032 10.3727 12.4286C10.5624 11.9172 10.7245 11.396 10.8584 10.8673C10.9308 10.6024 11.0677 10.4258 11.3406 10.4328C11.6135 10.4399 11.7645 10.6236 11.8121 10.8858C12.0556 12.2177 12.5585 13.4887 13.2922 14.6266C14.6751 16.7892 16.632 18.2472 18.9889 19.185C19.5479 19.4076 20.1369 19.5515 20.7162 19.729C20.9547 19.8049 21.0792 19.9604 21.0845 20.1661ZM11.3035 12.6211C9.87025 16.1905 7.55659 18.8344 3.86709 20.1908C7.55836 21.549 9.87202 24.1965 11.3044 27.7597C12.6564 23.9819 15.3524 21.625 18.9872 20.1917C15.348 18.7532 12.6617 16.4024 11.3035 12.6211Z" fill="white"/>
</svg>
