<svg width="30" height="36" viewBox="0 0 30 36" fill="none" xmlns="http://www.w3.org/2000/svg">
<path d="M29.5754 33.1176C29.5316 33.2542 29.4863 33.3901 29.4439 33.5275C29.0742 34.7338 27.9942 35.585 26.7361 35.5894C22.8012 35.603 18.8664 35.603 14.9315 35.5894C13.3314 35.5821 12.0893 34.2742 12.0864 32.6397C12.079 28.7029 12.079 24.7666 12.0864 20.8308V20.3866C10.8793 20.0644 10.118 19.3088 9.79939 18.0981H7.02289C5.83265 18.0981 4.64241 18.0981 3.45216 18.0981C1.67666 18.0923 0.426504 16.8436 0.425043 15.0666C0.421633 11.276 0.421633 7.48533 0.425043 3.69468C0.425043 2.10111 1.26165 1.038 2.80991 0.651486C2.84299 0.638356 2.8742 0.620913 2.90271 0.599609H12.8879C13.1845 0.804924 13.2591 1.08915 13.2583 1.44425C13.2491 5.69522 13.2469 9.94644 13.2518 14.1979V14.6231C14.6561 15.1755 14.8051 15.3195 15.584 16.9167V12.2792C15.584 11.1328 15.6198 11.0977 16.7699 11.0977H18.2085C17.3968 10.02 17.0804 8.92108 17.5648 7.69065C18.2268 6.01014 19.2753 4.56709 20.3808 3.16057C20.6329 2.84127 21.0384 2.84785 21.2948 3.17226C22.374 4.55028 23.3948 5.9663 24.0655 7.60151C24.5426 8.76399 24.3358 9.83221 23.6403 10.8383C23.5898 10.9114 23.5467 10.9845 23.4795 11.0948C24.1605 11.0948 24.7947 11.0948 25.4223 11.0948C25.7219 11.0948 25.974 11.2051 26.0346 11.5018C26.0828 11.74 26.2231 11.7984 26.4043 11.8773C27.2453 12.2427 27.729 12.9002 27.8138 13.8019C27.8985 14.7035 27.5295 15.4378 26.774 15.9507C26.5665 16.0918 26.324 16.1809 26.0989 16.2927V16.9284C26.9903 16.9284 27.862 16.9422 28.7337 16.9218C29.0895 16.913 29.3723 16.9949 29.5776 17.293L29.5754 33.1176ZM13.2496 18.1157V18.4876C13.2496 23.1638 13.2496 27.8422 13.2496 32.5228C13.2496 33.7043 13.9744 34.4291 15.1573 34.4291C18.9348 34.4291 22.7123 34.4291 26.4898 34.4291C27.6954 34.4291 28.4085 33.7109 28.4085 32.4965C28.4085 27.8305 28.4085 23.1643 28.4085 18.4978V18.1157H13.2496ZM12.0652 1.76428H11.6838C8.96327 1.76428 6.24255 1.76428 3.52157 1.76428C2.30649 1.76428 1.59044 2.47521 1.59044 3.68299C1.59044 7.44978 1.59044 11.2168 1.59044 14.9841C1.59044 16.2167 2.30064 16.9291 3.5318 16.9291C6.25278 16.9291 8.97375 16.9291 11.6947 16.9291H12.0666L12.0652 1.76428ZM24.8948 12.2894H16.7772V16.9116H24.8948V12.2894ZM20.8294 4.46406C19.9738 5.6543 19.1489 6.79194 18.6447 8.11735C18.2378 9.19435 18.8026 10.4109 19.8869 10.8836C19.9913 10.9289 20.1061 10.9567 20.258 11.0115V8.79248H21.4096V10.9896C21.5004 10.9737 21.5901 10.9525 21.6784 10.926C22.8387 10.4876 23.4437 9.1885 22.9856 8.03844C22.4763 6.75395 21.677 5.63677 20.8294 4.46406ZM26.0902 15.006C26.4898 14.7225 26.6747 14.3923 26.6513 13.9692C26.633 13.5849 26.4811 13.2648 26.0902 13.0508V15.006ZM14.3076 16.9203C14.0752 16.4089 13.7691 16.0757 13.2766 15.893V16.9203H14.3076ZM12.0644 18.1223H11.0284C11.2512 18.6155 11.5581 18.9486 12.0644 19.1393V18.1223Z" fill="white"/>
<path d="M17.9214 14.5742V13.4607H19.0539V14.5742H17.9214Z" fill="white"/>
<path d="M21.3956 14.583H20.2704V13.4512H21.3956V14.583Z" fill="white"/>
<path d="M23.717 14.5839H22.6006V13.4492H23.717V14.5839Z" fill="white"/>
</svg>
