<svg width="30" height="36" viewBox="0 0 30 36" fill="none" xmlns="http://www.w3.org/2000/svg">
<path d="M29.2079 18.5061C29.0607 19.1353 28.6697 19.6167 28.2733 20.1035C24.2721 25.0213 20.2749 29.942 16.2815 34.8657C15.4879 35.8435 14.5067 35.8449 13.7117 34.8657C9.60742 29.8119 5.50381 24.7579 1.40088 19.7037C0.551812 18.6587 0.585364 17.5241 1.49264 16.5347C2.87785 15.0283 4.26649 13.5178 5.64349 12.0004C6.24606 11.3362 6.98009 11.0034 7.87436 11.0041C12.6218 11.0041 17.3693 11.0041 22.1168 11.0041C22.539 10.9949 22.9581 11.0787 23.3443 11.2497C23.7304 11.4207 24.0742 11.6747 24.3511 11.9935C25.6293 13.4018 26.9138 14.8032 28.2048 16.1978C28.6519 16.6771 29.0552 17.1695 29.2127 17.822L29.2079 18.5061ZM13.4467 32.9115L13.4994 32.8848C13.4741 32.791 13.4536 32.6958 13.4228 32.6047C12.8225 30.8395 12.2215 29.0749 11.6198 27.311C10.8753 25.1267 10.1315 22.9424 9.3883 20.7581C9.26916 20.4076 9.3883 20.122 9.67041 20.0248C9.95252 19.9276 10.2182 20.0727 10.3517 20.4219C10.3757 20.4856 10.3969 20.5507 10.4202 20.615C11.7992 24.6604 13.1783 28.7056 14.5574 32.7506C14.6909 33.1429 14.8271 33.5346 14.962 33.9263H15.0367C16.7713 28.8378 18.506 23.745 20.2407 18.6478H1.86171L13.4467 32.9115ZM28.1274 18.6512C27.9617 18.63 27.8973 18.6149 27.8323 18.6142C25.75 18.6142 23.6671 18.6183 21.5841 18.6067C21.3307 18.6067 21.2869 18.7519 21.2274 18.9272C19.678 23.4765 18.128 28.0264 16.5773 32.5766C16.5424 32.6773 16.5198 32.7821 16.4917 32.8855L16.5465 32.9115C20.3927 28.1759 24.2381 23.4402 28.1274 18.6512ZM16.2206 12.062C16.2537 12.116 16.29 12.1679 16.3294 12.2175C17.9203 13.9549 19.5144 15.6895 21.1116 17.4214C21.2082 17.5255 21.4074 17.5803 21.5594 17.581C23.5856 17.5912 25.611 17.5878 27.6365 17.5871C27.7453 17.5871 27.8542 17.5769 28.0541 17.5659L23.4199 12.5071L22.375 15.5699C22.2072 16.0629 21.973 16.2375 21.6382 16.1177C21.317 16.0034 21.241 15.7288 21.4013 15.257C21.6279 14.5901 21.8566 13.9238 22.086 13.2569C22.2161 12.8734 22.3421 12.4886 22.4838 12.062H16.2206ZM19.8414 17.5687L14.9963 12.2825C13.3803 14.0457 11.791 15.7808 10.1518 17.5687H19.8414ZM6.57199 12.5078L1.94867 17.555H8.29273C7.71687 15.8691 7.15265 14.2135 6.57199 12.5078ZM9.21233 17.075L13.8062 12.0613H7.50665L9.21233 17.075Z" fill="white"/>
<path d="M15.2011 0.599609C15.4607 0.795443 15.5141 1.06249 15.5134 1.37541C15.5065 3.58094 15.5065 5.78647 15.5065 7.99473C15.5122 8.11961 15.5025 8.2447 15.4778 8.36723C15.4148 8.6199 15.2374 8.74657 14.9779 8.73972C14.8683 8.74432 14.7608 8.70915 14.6751 8.6407C14.5894 8.57224 14.5313 8.47512 14.5116 8.36723C14.4878 8.24458 14.4784 8.11957 14.4835 7.99473C14.4835 5.78921 14.4835 3.58299 14.4781 1.37747C14.4781 1.06523 14.5294 0.798182 14.7903 0.602348L15.2011 0.599609Z" fill="white"/>
<path d="M10.6242 8.84294C10.4989 8.97989 10.3921 9.19489 10.236 9.23872C10.0798 9.28254 9.85868 9.18394 9.68407 9.10725C9.60875 9.0737 9.57383 8.94223 9.52795 8.85116C8.85052 7.49949 8.17469 6.14737 7.50045 4.7948C7.43609 4.66538 7.3368 4.49009 7.37789 4.38396C7.44636 4.20319 7.59358 3.97311 7.75244 3.92998C7.91129 3.88684 8.16944 4.00872 8.29406 4.14293C8.45771 4.31822 8.53509 4.57568 8.6467 4.7989C9.24013 5.98851 9.83357 7.17835 10.427 8.36842C10.4934 8.49921 10.5407 8.63821 10.6242 8.84294Z" fill="white"/>
<path d="M19.9118 9.28536C19.553 9.27783 19.3278 8.93751 19.4613 8.58145C19.5364 8.40339 19.621 8.22945 19.7146 8.06037C20.3291 6.82967 20.944 5.59989 21.5593 4.37102C21.6037 4.26641 21.661 4.16774 21.7298 4.07727C21.8962 3.88555 22.1085 3.82187 22.3413 3.94854C22.5741 4.07522 22.6775 4.27995 22.5974 4.54837C22.5735 4.62427 22.5428 4.69784 22.5056 4.76817C21.8209 6.14129 21.1361 7.51418 20.4514 8.88684C20.3371 9.11417 20.1953 9.29563 19.9118 9.28536Z" fill="white"/>
</svg>
