<svg width="40" height="32" viewBox="0 0 40 32" fill="none" xmlns="http://www.w3.org/2000/svg">
<path d="M5.84409 28.3691C5.71412 27.8057 5.59168 27.2412 5.45312 26.6795C5.16203 25.5022 4.85859 24.3282 4.57181 23.1499C4.55358 23.0644 4.51856 22.9833 4.46877 22.9114C4.41899 22.8395 4.35544 22.7782 4.28179 22.731C2.10027 21.2155 0.677069 19.1634 0.194255 16.5549C-0.469548 12.9646 0.573952 9.88838 3.2399 7.38194C3.56966 7.07152 3.95956 6.82608 4.3065 6.53178C4.42474 6.43339 4.51187 6.30279 4.5573 6.15584C4.99232 4.46357 5.4166 2.76755 5.83926 1.07206C5.85 1.03017 5.86235 0.988813 5.87685 0.937256H13.7179C13.952 1.87066 14.1858 2.80353 14.4193 3.73586C14.6223 4.54896 14.8178 5.36422 15.0331 6.1741C15.0737 6.31477 15.1589 6.43842 15.2759 6.52641C17.539 8.10607 18.9261 10.2505 19.437 12.9598C19.5095 13.3443 19.5369 13.7369 19.5874 14.1413H20.568C20.5745 13.9969 20.5815 13.8503 20.589 13.6881H21.5385V15.5994H20.5944C20.5852 15.4523 20.5761 15.3062 20.5659 15.1456H19.6035C19.5213 15.672 19.4671 16.195 19.3554 16.7031C18.8113 19.2036 17.4757 21.1875 15.3946 22.6644C15.1878 22.798 15.0426 23.0082 14.9907 23.2488C14.5783 24.9561 14.1486 26.6591 13.7243 28.3631L5.84409 28.3691ZM0.97245 14.6327C1.00252 19.4791 4.84786 23.4405 9.77643 23.4587C14.6261 23.477 18.5783 19.5597 18.6089 14.6682C18.6416 9.82984 14.6674 5.83736 9.79952 5.82501C4.96708 5.80944 0.995543 9.77399 0.97245 14.6327ZM5.67707 5.75036C8.43861 4.54144 11.1518 4.54359 13.9096 5.75036C13.5825 4.44048 13.2652 3.17249 12.951 1.90933C12.8795 1.90396 12.8355 1.89751 12.7899 1.89751C10.8092 1.89751 8.82798 1.89751 6.84732 1.89322C6.67653 1.89322 6.61316 1.95068 6.58254 2.11073C6.53528 2.35563 6.46278 2.59408 6.40209 2.83683C6.16633 3.79332 5.92787 4.7509 5.67814 5.75144L5.67707 5.75036ZM5.67707 23.5366C5.98802 24.7761 6.29092 25.9582 6.57664 27.144C6.6239 27.3395 6.69802 27.3975 6.89565 27.397C8.83156 27.3895 10.7678 27.3895 12.7045 27.397C12.9128 27.397 12.9762 27.3175 13.0197 27.1381C13.2936 26.0103 13.5761 24.8889 13.8543 23.7649C13.8699 23.702 13.8731 23.636 13.8854 23.55C11.1422 24.7477 8.42841 24.7445 5.67599 23.5377L5.67707 23.5366Z" fill="white"/>
<path d="M12.1616 17.3126L11.349 17.8551C10.9591 17.2708 10.5815 16.7095 10.2083 16.1451C9.9086 15.6913 9.50151 15.2681 9.34899 14.7686C9.19915 14.2777 9.30817 13.7068 9.30763 13.1709C9.30763 11.8132 9.30763 10.4553 9.30763 9.09728V8.77075H10.2883V9.08171C10.2883 10.8057 10.2851 12.5302 10.2942 14.2541C10.2978 14.4109 10.3438 14.5639 10.4274 14.6966C10.9913 15.5667 11.5697 16.4249 12.1616 17.3126Z" fill="white"/>
<path d="M28.4237 3.82056H35.596C35.8221 3.93549 35.9484 4.12077 36.0364 4.35761C36.5065 5.63796 36.9859 6.9149 37.4747 8.18844C37.5144 8.29209 37.6234 8.41562 37.7233 8.44301C39.1949 8.84473 39.9962 9.88017 39.9983 11.4113C40.0004 12.8496 40.0004 14.2876 39.9983 15.7255C39.9983 18.3965 39.9983 21.0672 39.9983 23.7379C39.9951 25.1954 39.1546 26.2701 37.7582 26.6143C37.6902 26.6263 37.627 26.6574 37.576 26.704C37.5251 26.7507 37.4884 26.8108 37.4704 26.8775C36.9945 28.1664 36.5107 29.45 36.0289 30.7357C35.8678 31.168 35.7325 31.262 35.277 31.262H28.7453C28.2883 31.262 28.1546 31.1686 27.9935 30.7357C27.5209 29.4752 27.0434 28.2164 26.5815 26.9521C26.5058 26.7459 26.4049 26.646 26.1863 26.5939C25.5869 26.4509 25.0512 26.1147 24.6616 25.6373C24.2721 25.1598 24.0503 24.5675 24.0305 23.9516C24.0128 23.3984 24.0225 22.8442 24.0225 22.2905C24.0225 18.6464 24.0225 15.0021 24.0225 11.3576C24.0225 9.88554 24.8592 8.81304 26.2743 8.46395C26.4419 8.4226 26.5004 8.33398 26.5536 8.19166C27.0284 6.91293 27.5133 5.63796 27.9838 4.35761C28.0713 4.12023 28.197 3.93549 28.4237 3.82056ZM25.1589 17.5155C25.1589 19.6143 25.1546 21.7137 25.1589 23.8125C25.1589 24.7926 25.8904 25.5311 26.8635 25.5311C30.19 25.5375 33.5182 25.5408 36.8479 25.5408C37.0697 25.5408 37.2985 25.5477 37.5133 25.5021C38.327 25.3292 38.8614 24.639 38.8619 23.7728C38.8648 20.3872 38.8648 17.0019 38.8619 13.617C38.8619 12.8222 38.8699 12.0268 38.8619 11.2319C38.862 11.0104 38.8183 10.791 38.7332 10.5864C38.648 10.3818 38.5232 10.1962 38.3659 10.0401C38.2086 9.88406 38.022 9.76072 37.8167 9.67723C37.6115 9.59373 37.3917 9.55172 37.1702 9.55364C33.8347 9.54648 30.4988 9.54344 27.1626 9.54451C26.9408 9.54451 26.7121 9.53968 26.4978 9.5864C25.6922 9.76363 25.1637 10.4457 25.1621 11.2985C25.1571 13.3705 25.156 15.4426 25.1589 17.515V17.5155ZM36.2824 8.37641C36.2869 8.34614 36.2869 8.31538 36.2824 8.28511C35.8871 7.22442 35.4945 6.1632 35.0864 5.10788C35.0579 5.03538 34.914 4.9661 34.8238 4.9661C32.9521 4.95751 31.0799 4.9618 29.2078 4.9559C29.038 4.9559 28.9596 5.0096 28.9006 5.17072C28.5359 6.16642 28.1589 7.15783 27.7878 8.15031C27.762 8.21959 27.748 8.29317 27.7249 8.37695L36.2824 8.37641ZM36.3119 26.711H27.7384C27.7339 26.7422 27.7339 26.7738 27.7384 26.805C28.1342 27.8651 28.5273 28.9264 28.9344 29.9817C28.9607 30.0504 29.0918 30.1192 29.1745 30.1192C31.0644 30.1272 32.9543 30.1224 34.8442 30.1299C35.0198 30.1299 35.0687 30.0477 35.1197 29.9102C35.4419 29.0408 35.7641 28.1734 36.0917 27.3055C36.1637 27.1159 36.233 26.9253 36.3109 26.711H36.3119Z" fill="white"/>
<path d="M31.4348 15.2357C31.4348 14.4951 31.4289 13.7545 31.4381 13.0139C31.4424 12.6438 31.6819 12.4 32.0068 12.3989C32.3317 12.3979 32.5627 12.6385 32.5836 13.0085C32.5879 13.0794 32.5836 13.1508 32.5836 13.2233C32.5836 14.4102 32.5997 15.5976 32.5745 16.784C32.5659 17.1642 32.6749 17.4285 32.9504 17.6889C33.6873 18.3871 34.394 19.1202 35.1121 19.8404C35.1901 19.9135 35.2619 19.9929 35.3269 20.0778C35.4075 20.1867 35.4452 20.3214 35.4328 20.4563C35.4204 20.5912 35.3588 20.7168 35.2598 20.8092C35.1681 20.9022 35.0463 20.9596 34.9162 20.971C34.7862 20.9824 34.6563 20.9471 34.5498 20.8715C34.4777 20.8191 34.4107 20.7601 34.3495 20.6954C33.473 19.8189 32.6008 18.9381 31.7179 18.067C31.6232 17.9797 31.5485 17.873 31.4989 17.7542C31.4493 17.6354 31.426 17.5072 31.4305 17.3785C31.4408 16.6637 31.4343 15.9494 31.4348 15.2357Z" fill="white"/>
</svg>
