<svg width="20" height="36" viewBox="0 0 20 36" fill="none" xmlns="http://www.w3.org/2000/svg">
<path d="M16.9074 35.5996H3.1192C3.03426 35.5722 2.94863 35.5428 2.863 35.5174C1.94644 35.2475 1.29155 34.4275 1.28196 33.4774C1.2678 31.9758 1.2678 30.474 1.28196 28.972C1.29008 28.5133 1.44472 28.0692 1.72326 27.7046C2.0018 27.34 2.38965 27.0741 2.83012 26.9457C3.06576 26.8772 3.31649 26.858 3.57268 26.8142C3.5446 26.7052 3.51857 26.5956 3.48774 26.4874C2.77943 23.9967 2.06997 21.5064 1.35937 19.0165C1.08536 18.0698 0.803816 17.1272 0.525696 16.1826V15.9086C0.594198 15.7812 0.662701 15.6531 0.735313 15.527C3.39595 10.8387 6.0559 6.15063 8.71517 1.46278C9.01384 0.935992 9.42896 0.603072 10.0448 0.599647C10.6743 0.595537 11.0991 0.929142 11.4025 1.471C14.0358 6.17483 16.674 10.875 19.3173 15.5715C19.3986 15.7071 19.4499 15.8585 19.4675 16.0156C19.4851 16.1727 19.4687 16.3318 19.4194 16.4819C18.6298 19.2001 17.8454 21.9197 17.0663 24.6406C16.8608 25.366 16.6553 26.0928 16.4422 26.8375L16.6519 26.8498C17.8486 26.9245 18.7378 27.8383 18.7467 29.0323C18.7581 30.49 18.7581 31.9477 18.7467 33.4055C18.7405 34.433 18.0897 35.2605 17.0971 35.529C17.0327 35.5469 16.9711 35.577 16.9074 35.5996ZM14.9119 26.8395C14.942 26.7669 14.964 26.7265 14.9763 26.6833C15.9509 23.2486 16.9224 19.813 17.8911 16.3764C17.9234 16.2151 17.8972 16.0475 17.8171 15.9038C15.5428 11.8329 13.2624 7.765 10.9757 3.70006C10.9305 3.61923 10.8723 3.54593 10.7702 3.39591C10.7702 3.61581 10.7702 3.73843 10.7702 3.8631C10.7634 7.06445 10.754 10.2656 10.7422 13.4665C10.7422 13.7405 10.8155 13.8775 11.0662 14.0145C11.9567 14.4878 12.378 15.5065 12.1218 16.4861C11.9955 16.9572 11.7149 17.3723 11.3248 17.6651C10.9347 17.958 10.4578 18.1115 9.97013 18.1013C9.48861 18.0923 9.02369 17.9237 8.64821 17.6221C8.27273 17.3205 8.00789 16.9029 7.89519 16.4347C7.66091 15.4414 8.1007 14.4481 9.00493 13.9898C9.22345 13.8788 9.28579 13.7542 9.28647 13.5219C9.29835 10.2754 9.31502 7.02883 9.33648 3.78227C9.33648 3.68568 9.33648 3.58841 9.33648 3.49182C9.24834 3.54933 9.17734 3.62956 9.13098 3.72404C6.82564 7.77893 4.52373 11.835 2.22524 15.8921C2.13803 16.0677 2.11641 16.2686 2.16427 16.4587C3.01142 19.4919 3.86816 22.5225 4.73449 25.5503C4.85779 25.9839 4.98178 26.4162 5.10303 26.8409L14.9119 26.8395ZM9.99548 34.1467H16.3402C17.0334 34.1467 17.2992 33.887 17.2992 33.2054C17.2992 31.8847 17.2992 30.5638 17.2992 29.2426C17.2992 28.5699 17.0368 28.302 16.3751 28.302C12.1344 28.302 7.89336 28.302 3.65215 28.302C2.9911 28.302 2.72873 28.5706 2.72736 29.2419C2.72736 30.5402 2.72736 31.8384 2.72736 33.1363C2.72736 33.9131 2.96507 34.1467 3.7549 34.1467H9.99548ZM10.029 16.6402C10.2181 16.6315 10.3967 16.5512 10.5287 16.4156C10.6606 16.2799 10.736 16.0991 10.7394 15.9099C10.7362 15.7149 10.6561 15.5289 10.5165 15.3926C10.3769 15.2562 10.1892 15.1805 9.99411 15.1818C9.79907 15.19 9.61514 15.2748 9.48227 15.4178C9.34939 15.5608 9.2783 15.7505 9.28442 15.9456C9.29632 16.1346 9.3801 16.3118 9.51857 16.441C9.65703 16.5702 9.83969 16.6414 10.029 16.6402Z" fill="white"/>
</svg>
