<svg width="34" height="36" viewBox="0 0 34 36" fill="none" xmlns="http://www.w3.org/2000/svg">
<path d="M0.328949 34.7483C0.632998 33.8143 0.941799 32.8813 1.24205 31.9463C1.52709 31.0494 1.81214 30.1496 2.09719 29.2527C2.24636 28.7842 2.43069 28.6493 2.93047 28.6474C3.78561 28.6474 4.64075 28.637 5.50254 28.6531C5.75718 28.6531 5.875 28.5961 5.95577 28.3339C6.43084 26.7708 6.93443 25.2145 7.42756 23.6572C7.59573 23.127 7.74111 23.0187 8.2922 23.0177C9.16064 23.0177 10.0281 23.0092 10.8966 23.0225C11.1199 23.0225 11.2149 22.9579 11.2766 22.7374C11.765 21.1554 12.2686 19.5772 12.7674 17.9981C12.929 17.4878 13.0962 17.3662 13.6406 17.3662H20.3772C20.9122 17.3662 21.0775 17.4907 21.2419 18.0095C21.7378 19.5782 22.2386 21.145 22.725 22.7165C22.7935 22.936 22.8847 23.0234 23.127 23.0187C23.9945 23.0025 24.8629 23.0111 25.7313 23.013C26.2615 23.013 26.4192 23.1299 26.5789 23.6325C27.0749 25.2012 27.5775 26.768 28.0592 28.3405C28.1352 28.5875 28.2445 28.6522 28.4887 28.6484C29.3343 28.6332 30.1809 28.6417 31.0275 28.6427C31.5976 28.6427 31.7572 28.7624 31.9244 29.2916L33.5787 34.5336C33.7563 35.0971 33.6984 35.2728 33.2224 35.5997H19.7387C19.352 35.3355 19.2209 35.0866 19.3064 34.7826C19.4014 34.4424 19.6541 34.2989 20.1568 34.298H21.4119C21.4193 34.2669 21.4225 34.2349 21.4214 34.203C20.9958 32.8509 20.5739 31.4979 20.133 30.1515C20.1017 30.0984 20.0583 30.0535 20.0062 30.0205C19.9542 29.9874 19.8951 29.9672 19.8337 29.9615C17.9458 29.9501 16.0588 29.9567 14.1718 29.9491C13.9675 29.9491 13.8867 30.0242 13.8354 30.2076C13.7052 30.6655 13.5561 31.1178 13.4126 31.572L12.5498 34.2989C13.0743 34.2989 13.5589 34.2894 14.0435 34.2989C14.5281 34.3084 14.8587 34.7455 14.6696 35.1541C14.5908 35.326 14.4045 35.4477 14.2668 35.593H0.328949V34.7483ZM12.5546 22.9968H21.4157C21.4202 22.959 21.4202 22.9207 21.4157 22.8828C20.992 21.5421 20.572 20.2005 20.1359 18.8637C20.1089 18.8139 20.0704 18.7713 20.0237 18.7394C19.9769 18.7075 19.9232 18.6872 19.867 18.6803C17.9591 18.6698 16.0502 18.6746 14.1423 18.6689C14.1086 18.6637 14.0742 18.6652 14.0412 18.6735C14.0081 18.6817 13.977 18.6965 13.9497 18.717C13.9225 18.7374 13.8996 18.7631 13.8824 18.7926C13.8652 18.822 13.8541 18.8546 13.8497 18.8884C13.691 19.4281 13.5161 19.962 13.3461 20.4979C13.0857 21.3208 12.8254 22.1426 12.5546 22.9968ZM10.7322 34.278C10.7377 34.2505 10.7396 34.2224 10.7379 34.1944C10.3122 32.8423 9.88941 31.4931 9.45043 30.1439C9.41901 30.0905 9.37528 30.0454 9.32288 30.0123C9.27049 29.9793 9.21095 29.9592 9.14924 29.9539C7.26223 29.9425 5.37522 29.9491 3.48821 29.9406C3.28203 29.9406 3.20317 30.0213 3.15376 30.2028C3.00173 30.7216 2.83356 31.2356 2.67108 31.7516C2.40789 32.5848 2.14469 33.4181 1.87485 34.2752L10.7322 34.278ZM32.0974 34.278C32.1036 34.2506 32.1058 34.2225 32.104 34.1944C31.6784 32.8433 31.2555 31.4912 30.8147 30.1439C30.7833 30.0905 30.7396 30.0453 30.6872 30.0122C30.6348 29.9792 30.5752 29.9592 30.5135 29.9539C28.6274 29.9425 26.7404 29.9491 24.8534 29.9415C24.6472 29.9415 24.5683 30.0194 24.518 30.2019C24.3869 30.6589 24.2386 31.1112 24.0952 31.5653L23.24 34.2752L32.0974 34.278ZM7.21947 28.6236H16.1015C16.0597 28.483 16.0274 28.37 15.9923 28.2588C15.6122 27.0606 15.2321 25.8654 14.8654 24.6634C14.7865 24.4059 14.6829 24.309 14.3998 24.3109C12.7617 24.3261 11.1218 24.3175 9.48274 24.3194C9.19104 24.3194 8.81763 24.2244 8.6276 24.3717C8.43757 24.519 8.39386 24.9057 8.30265 25.1917C7.93969 26.3243 7.58528 27.4597 7.21947 28.6236ZM17.9021 28.6236H26.7803C26.7385 28.484 26.7062 28.37 26.671 28.2578C26.291 27.0606 25.9109 25.8644 25.5442 24.6625C25.4662 24.405 25.3617 24.309 25.0795 24.3109C23.4405 24.3261 21.8005 24.3175 20.1615 24.3194C19.8698 24.3194 19.4964 24.2244 19.3064 24.3717C19.1164 24.519 19.0727 24.9057 18.9814 25.1917C18.6223 26.3252 18.2679 27.4597 17.9068 28.6236H17.9021ZM10.7759 29.9653C11.0676 30.8898 11.346 31.7706 11.6263 32.6561H11.7023C11.9816 31.7706 12.26 30.885 12.5479 29.9691L10.7759 29.9653ZM22.3041 32.6476L22.3858 32.6523C22.6642 31.7658 22.9436 30.8803 23.2286 29.9719H21.4604C21.7483 30.8869 22.0257 31.7677 22.3022 32.6476H22.3041ZM16.1196 24.3337C16.4122 25.2592 16.6897 26.139 16.9662 27.0112H17.045C17.3225 26.1285 17.5999 25.2458 17.8869 24.3356L16.1196 24.3337Z" fill="white"/>
<path d="M16.8073 35.5948C16.7551 35.5587 16.7028 35.5236 16.6515 35.4865C16.3997 35.3022 16.2886 35.058 16.3864 34.7549C16.422 34.6169 16.5048 34.4958 16.6204 34.4125C16.736 34.3292 16.8771 34.289 17.0192 34.2988C17.1559 34.2964 17.2894 34.3401 17.3981 34.4228C17.5069 34.5056 17.5846 34.6226 17.6188 34.7549C17.7138 35.058 17.6064 35.3022 17.3537 35.4865C17.3024 35.5236 17.2501 35.5587 17.1979 35.5948H16.8073Z" fill="white"/>
<path d="M14.1812 14.2953C14.148 14.606 14.013 14.8226 13.7185 14.9167C13.424 15.0108 13.1741 14.9367 13.0268 14.6982C12.6391 14.073 12.2714 13.4335 11.9227 12.7855C11.7697 12.5005 11.9037 12.1613 12.1726 11.995C12.4415 11.8287 12.8121 11.8496 12.9707 12.1005C13.3859 12.7589 13.7584 13.444 14.1442 14.1205C14.1661 14.1763 14.1786 14.2354 14.1812 14.2953Z" fill="white"/>
<path d="M20.5844 14.9507C20.0267 14.9421 19.6789 14.4756 19.8794 14.0794C20.2157 13.4143 20.6006 12.771 20.9939 12.1363C21.1612 11.8665 21.5374 11.8218 21.8111 11.9776C21.9533 12.0507 22.0611 12.1766 22.1114 12.3284C22.1617 12.4801 22.1504 12.6455 22.08 12.7891C21.7369 13.4285 21.3768 14.0585 20.9892 14.6723C20.8932 14.8243 20.669 14.8946 20.5844 14.9507Z" fill="white"/>
<path d="M17.6541 12.5221C17.6541 12.8471 17.6598 13.172 17.6541 13.497C17.6436 13.9179 17.3757 14.1906 16.989 14.184C16.6222 14.1783 16.3571 13.9084 16.3524 13.5056C16.3435 12.8556 16.3435 12.2057 16.3524 11.5558C16.3581 11.1425 16.6374 10.8575 17.0175 10.8641C17.3776 10.8708 17.6389 11.1492 17.656 11.5463C17.656 11.5682 17.656 11.59 17.656 11.6119L17.6541 12.5221Z" fill="white"/>
<path d="M9.14452 14.7017C9.25158 14.7367 9.35577 14.7799 9.45617 14.831C9.99396 15.135 10.5292 15.4432 11.0619 15.7555C11.4486 15.9835 11.5646 16.3493 11.3707 16.6866C11.1769 17.0239 10.8006 17.098 10.4063 16.8767C9.85049 16.5612 9.29465 16.2448 8.74641 15.917C8.6149 15.8486 8.51125 15.7366 8.45319 15.6002C8.39512 15.4638 8.38626 15.3114 8.42811 15.1692C8.51267 14.888 8.76921 14.697 9.14452 14.7017Z" fill="white"/>
<path d="M24.9304 14.6951C25.2506 14.7207 25.4578 14.8547 25.5585 15.1283C25.6649 15.4134 25.5956 15.6984 25.3466 15.8495C24.7224 16.24 24.0829 16.6096 23.434 16.9564C23.1489 17.1085 22.8011 16.9631 22.6415 16.6971C22.4676 16.412 22.5114 16.0319 22.8002 15.8571C23.4254 15.4685 24.0715 15.1141 24.7129 14.7511C24.782 14.7213 24.8555 14.7024 24.9304 14.6951Z" fill="white"/>
<path d="M1.00266 4.82115C1.00266 2.41536 2.55236 0.599609 5.11968 0.599609C6.28837 0.599609 7.53782 1.06233 8.38156 1.99919L7.23662 2.99306C6.95943 2.71545 6.62907 2.49662 6.26532 2.34968C5.90157 2.20275 5.51191 2.13072 5.11968 2.13792C3.76666 2.13792 2.70248 3.14413 2.70248 4.82115C2.70248 6.3414 3.65264 7.51579 5.18904 7.51579C5.77463 7.51962 6.34893 7.35469 6.84326 7.04071V5.83876H5.00471V4.43919H8.42526V7.97851C7.67369 8.57996 6.44704 8.99613 5.18619 8.99613C2.8184 8.99613 1.00266 7.45403 1.00266 4.82115Z" fill="white"/>
<path d="M9.67755 4.80975C9.67755 2.3688 11.3774 0.599609 13.8649 0.599609C16.2707 0.599609 18.0399 2.29944 18.0399 4.80975C18.0399 7.32006 16.2707 9.01988 13.8649 9.01988C11.3774 9.01988 9.67755 7.24975 9.67755 4.80975ZM16.34 4.80975C16.34 3.2591 15.2759 2.12556 13.8696 2.12556C12.3883 2.12556 11.3707 3.31706 11.3707 4.80975C11.3707 6.30244 12.3883 7.49299 13.8696 7.49299C15.2759 7.49299 16.34 6.35945 16.34 4.80975Z" fill="white"/>
<path d="M19.486 0.707764H21.1373V7.47476H24.7688V8.91996H19.486V0.707764Z" fill="white"/>
<path d="M26.0097 0.707764H28.7281C31.3306 0.707764 32.9962 2.39619 32.9962 4.82573C32.9962 7.25528 31.4 8.91996 28.7623 8.91996H26.0069L26.0097 0.707764ZM28.6578 7.47476C30.2541 7.47476 31.2955 6.32888 31.2955 4.82573C31.2955 3.28743 30.2427 2.1539 28.7509 2.1539H27.6174V7.47476H28.6578Z" fill="white"/>
</svg>
