<svg width="35" height="36" viewBox="0 0 35 36" fill="none" xmlns="http://www.w3.org/2000/svg">
<rect y="0.124023" width="35" height="35" rx="17.5" fill="#B2071D"/>
<path d="M25.084 13.6611C24.9082 12.958 24.3516 12.4014 23.6777 12.2256C22.418 11.874 17.4375 11.874 17.4375 11.874C17.4375 11.874 12.4277 11.874 11.168 12.2256C10.4941 12.4014 9.9375 12.958 9.76172 13.6611C9.41016 14.8916 9.41016 17.5283 9.41016 17.5283C9.41016 17.5283 9.41016 20.1357 9.76172 21.3955C9.9375 22.0986 10.4941 22.626 11.168 22.8018C12.4277 23.124 17.4375 23.124 17.4375 23.124C17.4375 23.124 22.418 23.124 23.6777 22.8018C24.3516 22.626 24.9082 22.0986 25.084 21.3955C25.4355 20.1357 25.4355 17.5283 25.4355 17.5283C25.4355 17.5283 25.4355 14.8916 25.084 13.6611ZM15.7969 19.9014V15.1553L19.957 17.5283L15.7969 19.9014Z" fill="black"/>
</svg>
