<svg width="35" height="36" viewBox="0 0 35 36" fill="none" xmlns="http://www.w3.org/2000/svg">
<rect y="0.124023" width="35" height="35" rx="17.5" fill="white"/>
<path d="M23.5938 11.874H11.4062C11.0156 11.874 10.6836 12.0107 10.4102 12.2842C10.1367 12.5576 10 12.8896 10 13.2803V21.7178C10 22.1084 10.1367 22.4404 10.4102 22.7139C10.6836 22.9873 11.0156 23.124 11.4062 23.124H23.5938C23.9844 23.124 24.3164 22.9873 24.5898 22.7139C24.8633 22.4404 25 22.1084 25 21.7178V13.2803C25 12.8896 24.8633 12.5576 24.5898 12.2842C24.3164 12.0107 23.9844 11.874 23.5938 11.874ZM23.5938 13.2803V14.4814C22.9102 15.0479 21.5918 16.083 19.6387 17.5869L19.375 17.8213C18.9844 18.1533 18.6719 18.3877 18.4375 18.5244C18.0664 18.7783 17.7539 18.9053 17.5 18.9053C17.2461 18.9053 16.9336 18.7783 16.5625 18.5244C16.3281 18.3877 16.0156 18.1533 15.625 17.8213L15.3613 17.5869C13.4082 16.0635 12.0898 15.0283 11.4062 14.4814V13.2803H23.5938ZM11.4062 21.7178V16.2686L14.7754 18.9639C15.2832 19.374 15.6836 19.667 15.9766 19.8428C16.5234 20.1553 17.0312 20.3115 17.5 20.3115C17.9688 20.3115 18.4668 20.1553 18.9941 19.8428C19.3066 19.667 19.707 19.374 20.1953 18.9639L23.5938 16.2686V21.7178H11.4062Z" fill="black"/>
</svg>
