<svg width="28" height="24" viewBox="0 0 28 24" fill="none" xmlns="http://www.w3.org/2000/svg">
<path d="M14.707 22.485L24.837 12.356C27.325 9.86699 27.692 5.77299 25.337 3.15699C24.7469 2.50009 24.0292 1.97027 23.2277 1.59986C22.4261 1.22945 21.5575 1.02621 20.6749 1.00254C19.7922 0.978861 18.9139 1.13525 18.0937 1.46216C17.2734 1.78908 16.5284 2.27966 15.904 2.90399L14 4.80799L12.356 3.16399C9.86696 0.674988 5.77296 0.307988 3.15696 2.66399C2.50009 3.25395 1.97029 3.97155 1.59989 4.77301C1.22949 5.57447 1.02626 6.443 1.00258 7.32559C0.978907 8.20819 1.13529 9.08636 1.46219 9.90652C1.78909 10.7267 2.27966 11.4717 2.90396 12.096L13.293 22.486C13.4805 22.6735 13.7348 22.7788 14 22.7788C14.2651 22.7788 14.5194 22.6735 14.707 22.486V22.485Z" stroke="white" stroke-linecap="round" stroke-linejoin="round"/>
</svg>
