<svg width="22" height="28" viewBox="0 0 22 28" fill="none" xmlns="http://www.w3.org/2000/svg">
<path d="M11 15C12.0609 15 13.0783 14.5786 13.8284 13.8284C14.5786 13.0783 15 12.0609 15 11C15 9.93913 14.5786 8.92172 13.8284 8.17157C13.0783 7.42143 12.0609 7 11 7C9.93913 7 8.92172 7.42143 8.17157 8.17157C7.42143 8.92172 7 9.93913 7 11C7 12.0609 7.42143 13.0783 8.17157 13.8284C8.92172 14.5786 9.93913 15 11 15V15Z" stroke="white" stroke-width="1.5" stroke-linecap="round" stroke-linejoin="round"/>
<path d="M21 11C21 20 11 27 11 27C11 27 1 20 1 11C1 8.34784 2.05357 5.8043 3.92893 3.92893C5.8043 2.05357 8.34784 1 11 1C13.6522 1 16.1957 2.05357 18.0711 3.92893C19.9464 5.8043 21 8.34784 21 11V11Z" stroke="white" stroke-width="1.5" stroke-linecap="round" stroke-linejoin="round"/>
</svg>
