<svg width="25" height="25" viewBox="0 0 25 25" fill="none" xmlns="http://www.w3.org/2000/svg">
<path d="M7.56 12.602C8.597 14.7228 10.3158 16.4342 12.441 17.462C12.5966 17.5357 12.7688 17.5676 12.9405 17.5544C13.1121 17.5413 13.2774 17.4836 13.42 17.387L16.55 15.301C16.6882 15.2087 16.8473 15.1523 17.0129 15.1369C17.1784 15.1216 17.3451 15.1477 17.498 15.213L23.353 17.723C23.5519 17.8075 23.7179 17.9543 23.8261 18.1413C23.9343 18.3284 23.9789 18.5455 23.953 18.76C23.7677 20.208 23.061 21.5388 21.9652 22.5033C20.8695 23.4678 19.4598 23.9999 18 24C13.4913 24 9.1673 22.2089 5.97919 19.0208C2.79107 15.8327 1 11.5087 1 7C1.00013 5.54033 1.53228 4.13075 2.49681 3.03517C3.46134 1.93958 4.79212 1.2331 6.24 1.048C6.45452 1.02213 6.67165 1.06665 6.85867 1.17486C7.0457 1.28308 7.19251 1.44912 7.277 1.648L9.789 7.508C9.8536 7.65941 9.87983 7.82443 9.86535 7.9884C9.85087 8.15238 9.79614 8.31025 9.706 8.448L7.626 11.626C7.5316 11.7691 7.4759 11.9342 7.46433 12.1053C7.45276 12.2763 7.48572 12.4475 7.56 12.602V12.602Z" stroke="white" stroke-width="1.5" stroke-linecap="round" stroke-linejoin="round"/>
</svg>
