<svg width="13" height="8" viewBox="0 0 13 8" fill="none" xmlns="http://www.w3.org/2000/svg">
<path d="M8.87891 0.958984C9.04297 0.794922 9.19792 0.794922 9.34375 0.958984L12.5156 4.13086C12.6797 4.27669 12.6797 4.42253 12.5156 4.56836L9.34375 7.74023C9.19792 7.9043 9.04297 7.9043 8.87891 7.74023L8.6875 7.54883C8.52344 7.40299 8.52344 7.24805 8.6875 7.08398L10.9844 4.81445H0.703125C0.484375 4.81445 0.375 4.70508 0.375 4.48633V4.21289C0.375 3.99414 0.484375 3.88477 0.703125 3.88477H10.9844L8.6875 1.61523C8.52344 1.45117 8.52344 1.29622 8.6875 1.15039L8.87891 0.958984Z" fill="white"/>
</svg>
