<svg width="14" height="17" viewBox="0 0 14 17" fill="none" xmlns="http://www.w3.org/2000/svg">
<path d="M6.76921 9.4191C7.38125 9.4191 7.96822 9.17596 8.40099 8.74319C8.83377 8.31041 9.0769 7.72344 9.0769 7.1114C9.0769 6.49937 8.83377 5.91239 8.40099 5.47962C7.96822 5.04684 7.38125 4.80371 6.76921 4.80371C6.15717 4.80371 5.5702 5.04684 5.13742 5.47962C4.70465 5.91239 4.46152 6.49937 4.46152 7.1114C4.46152 7.72344 4.70465 8.31041 5.13742 8.74319C5.5702 9.17596 6.15717 9.4191 6.76921 9.4191V9.4191Z" stroke="white" stroke-linecap="round" stroke-linejoin="round"/>
<path d="M12.5385 7.11103C12.5385 12.3033 6.76923 16.3418 6.76923 16.3418C6.76923 16.3418 1 12.3033 1 7.11103C1 5.58093 1.60783 4.11351 2.68977 3.03157C3.77171 1.94962 5.23914 1.3418 6.76923 1.3418C8.29933 1.3418 9.76675 1.94962 10.8487 3.03157C11.9306 4.11351 12.5385 5.58093 12.5385 7.11103V7.11103Z" stroke="white" stroke-linecap="round" stroke-linejoin="round"/>
</svg>
