<svg width="17" height="17" viewBox="0 0 17 17" fill="none" xmlns="http://www.w3.org/2000/svg">
<path d="M5.28587 8.8951C5.96338 10.2807 7.08631 11.3988 8.47479 12.0703C8.57646 12.1185 8.68893 12.1393 8.8011 12.1307C8.91327 12.1221 9.02126 12.0844 9.1144 12.0213L11.1593 10.6584C11.2497 10.5981 11.3536 10.5613 11.4617 10.5513C11.5699 10.5412 11.6788 10.5583 11.7787 10.601L15.604 12.2408C15.7339 12.296 15.8424 12.3919 15.9131 12.5141C15.9838 12.6363 16.0129 12.7782 15.996 12.9183C15.8749 13.8643 15.4132 14.7338 14.6973 15.3639C13.9814 15.9941 13.0604 16.3417 12.1067 16.3418C9.161 16.3418 6.33597 15.1716 4.25307 13.0887C2.17016 11.0058 1 8.1808 1 5.23512C1.00009 4.28148 1.34776 3.36055 1.97792 2.64477C2.60808 1.92898 3.47752 1.46742 4.42347 1.34648C4.56362 1.32958 4.70548 1.35867 4.82767 1.42937C4.94986 1.50007 5.04578 1.60855 5.10098 1.73848L6.74215 5.56702C6.78436 5.66594 6.80149 5.77375 6.79203 5.88088C6.78257 5.98802 6.74681 6.09116 6.68792 6.18115L5.32899 8.25745C5.26731 8.35095 5.23092 8.45883 5.22336 8.57059C5.21581 8.68234 5.23734 8.79415 5.28587 8.8951V8.8951Z" stroke="white" stroke-linecap="round" stroke-linejoin="round"/>
</svg>
