<svg width="31" height="31" viewBox="0 0 31 31" fill="none" xmlns="http://www.w3.org/2000/svg">
<g clip-path="url(#clip0_3_2809)">
<path d="M30.4449 7.21224C30.3417 6.82827 30.0898 6.50094 29.7451 6.30248C29.4002 6.10305 28.9901 6.04911 28.6054 6.15236C28.2212 6.25586 27.8939 6.50753 27.6954 6.85219L27.4454 7.28718C27.2079 7.15073 26.9045 7.23104 26.7656 7.46732L25.4958 9.63175L25.0608 9.38179C24.9456 9.31515 24.8084 9.29709 24.68 9.33175C24.5514 9.36666 24.442 9.45112 24.3759 9.56682C24.2404 9.80579 24.3229 10.1095 24.5609 10.2466L24.9959 10.4966L20.7466 17.8603L19.6968 20.665L19.1968 21.5997C18.9042 22.1089 18.9354 22.7418 19.2769 23.2195L18.1521 24.5992L17.8372 23.8095C17.6952 23.4575 17.3664 23.2163 16.9882 23.1868C16.6099 23.157 16.2474 23.344 16.0524 23.6694L15.8725 23.9743L15.7026 21.9746C15.6635 21.5016 15.2971 21.1212 14.826 21.0641C14.3547 21.0073 13.9084 21.2897 13.7578 21.7398L12.5281 25.4291C12.4421 25.69 12.5827 25.9712 12.843 26.0591C12.8918 26.0818 12.9443 26.0955 12.998 26.0989C13.2128 26.0996 13.4041 25.9627 13.473 25.7591L14.6976 22.0698L14.8726 24.0993C14.9088 24.5323 15.22 24.8923 15.6433 24.9905C16.0665 25.0886 16.5044 24.9021 16.7273 24.5294L16.9123 24.2242L17.2223 25.0093C17.3539 25.34 17.6515 25.5761 18.0037 25.6285C18.3559 25.681 18.7094 25.5421 18.932 25.2641L20.0968 23.7895C20.2257 23.8232 20.3585 23.84 20.4918 23.8395C21.0276 23.8437 21.5251 23.5615 21.7965 23.0994L22.2964 22.2646L24.2011 19.9501L28.4953 12.4963L28.9303 12.7462C29.0462 12.8126 29.1307 12.9222 29.1651 13.0513C29.1998 13.1795 29.1817 13.3162 29.1153 13.4312L27.1157 16.8956C27.0402 17.0094 27.0146 17.149 27.0449 17.2823C27.0751 17.4153 27.1584 17.5303 27.2755 17.6004C27.3908 17.6672 27.5279 17.6853 27.6563 17.6506C27.785 17.6157 27.8943 17.5313 27.9605 17.4156L29.9601 13.9511C30.1596 13.6062 30.2135 13.1961 30.11 12.8114C30.0065 12.4272 29.7549 12.0998 29.4102 11.9014L28.9752 11.6514L30.225 9.48675C30.3614 9.24925 30.2811 8.94608 30.0451 8.80694L30.2951 8.37195C30.4999 8.02167 30.554 7.60329 30.4449 7.21224V7.21224ZM28.5602 7.35211C28.6264 7.23641 28.7362 7.1517 28.8654 7.11729C28.9938 7.08555 29.1295 7.10337 29.2452 7.16733C29.3611 7.23348 29.4456 7.34332 29.4803 7.47221C29.512 7.6006 29.4942 7.73632 29.4302 7.85202L29.1803 8.28701L28.3103 7.78709L28.5602 7.35211ZM21.7465 21.3099L21.4965 21.1649L20.7566 20.7348L21.4665 18.8353L23.0412 19.745L21.7465 21.3099ZM20.2467 22.7545C20.0356 22.6073 19.9706 22.3242 20.0968 22.0996L20.3468 21.6649L21.2165 22.1648L20.9666 22.5946C20.8965 22.7162 20.7789 22.8026 20.6419 22.8331C20.505 22.8634 20.3617 22.8351 20.2467 22.7545ZM23.6111 18.9253L21.8814 17.9255L25.8808 10.9965L27.6105 11.9963L23.6111 18.9253ZM28.1104 11.1315L26.3807 10.1317L27.3805 8.40198L29.1102 9.40181L28.1104 11.1315Z" fill="white"/>
<path d="M8.38856 22.5045L6.61909 24.2693L5.55921 23.2094C5.36418 23.0156 5.04929 23.0156 4.85425 23.2094C4.75954 23.3034 4.70633 23.4311 4.70633 23.5644C4.70633 23.6976 4.75954 23.8255 4.85425 23.9193L5.91413 24.9791C6.1016 25.1651 6.35497 25.2694 6.61909 25.2691C6.88467 25.2706 7.14024 25.1664 7.32893 24.9791L9.09352 23.2094C9.26341 23.011 9.25194 22.7154 9.0674 22.5308C8.88262 22.3461 8.58701 22.3346 8.38856 22.5045Z" fill="white"/>
<path d="M2.49963 23.8492C2.49963 26.1962 4.40214 28.0985 6.74891 28.0985C9.09568 28.0985 10.9982 26.1962 10.9982 23.8492C10.9982 23.5732 10.7743 23.3493 10.4983 23.3493C10.2222 23.3493 9.99836 23.5732 9.99836 23.8492C9.99836 25.6438 8.54353 27.0987 6.74891 27.0987C4.95429 27.0987 3.49946 25.6438 3.49946 23.8492C3.49946 22.0546 4.95429 20.5998 6.74891 20.5998C7.4524 20.5978 8.1371 20.8261 8.69853 21.2498C8.91944 21.4156 9.23286 21.3707 9.39836 21.1497C9.56411 20.9288 9.51944 20.6157 9.29853 20.4499C8.0109 19.4843 6.28805 19.329 4.8486 20.0486C3.4089 20.7685 2.49963 22.2399 2.49963 23.8492Z" fill="white"/>
<path d="M18.4969 4.10237C18.773 4.10237 18.9968 3.87877 18.9968 3.60245C18.9968 3.32638 18.773 3.10254 18.4969 3.10254H5.49912C5.22305 3.10254 4.99921 3.32638 4.99921 3.60245V5.60211C4.99921 5.87843 5.22305 6.10203 5.49912 6.10203H18.4969C18.773 6.10203 18.9968 5.87843 18.9968 5.60211C18.9968 5.32604 18.773 5.1022 18.4969 5.1022H5.99904V4.10237H18.4969Z" fill="white"/>
<path d="M6.99891 7.10205C6.72283 7.10205 6.49899 7.32589 6.49899 7.60196C6.49899 7.87828 6.72283 8.10188 6.99891 8.10188H16.9972C17.2733 8.10188 17.4971 7.87828 17.4971 7.60196C17.4971 7.32589 17.2733 7.10205 16.9972 7.10205H6.99891Z" fill="white"/>
<path d="M19.9966 10.6016H8.99848C8.7224 10.6016 8.49857 10.8254 8.49857 11.1015C8.49857 11.3778 8.7224 11.6014 8.99848 11.6014H19.9966C20.2727 11.6014 20.4965 11.3778 20.4965 11.1015C20.4965 10.8254 20.2727 10.6016 19.9966 10.6016Z" fill="white"/>
<path d="M14.9975 14.101C14.9975 13.8249 14.7737 13.6011 14.4976 13.6011H4.49933C4.22326 13.6011 3.99942 13.8249 3.99942 14.101C3.99942 14.3773 4.22326 14.6009 4.49933 14.6009H14.4976C14.7737 14.6009 14.9975 14.3773 14.9975 14.101Z" fill="white"/>
<path d="M19.9967 13.6011H16.4973C16.2212 13.6011 15.9973 13.8249 15.9973 14.101C15.9973 14.3773 16.2212 14.6009 16.4973 14.6009H19.9967C20.2727 14.6009 20.4966 14.3773 20.4966 14.101C20.4966 13.8249 20.2727 13.6011 19.9967 13.6011Z" fill="white"/>
<path d="M9.49848 17.1004C9.77456 17.1004 9.9984 16.8768 9.9984 16.6005C9.9984 16.3244 9.77456 16.1006 9.49848 16.1006H4.49933C4.22326 16.1006 3.99942 16.3244 3.99942 16.6005C3.99942 16.8768 4.22326 17.1004 4.49933 17.1004H9.49848Z" fill="white"/>
<path d="M11.4981 17.1004H14.9975C15.2736 17.1004 15.4974 16.8768 15.4974 16.6005C15.4974 16.3244 15.2736 16.1006 14.9975 16.1006H11.4981C11.222 16.1006 10.9982 16.3244 10.9982 16.6005C10.9982 16.8768 11.222 17.1004 11.4981 17.1004Z" fill="white"/>
<path d="M22.9962 23.0991C22.7201 23.0991 22.4963 23.3229 22.4963 23.599V28.5982C22.4963 28.8745 22.2724 29.0981 21.9963 29.0981H1.99974C1.72367 29.0981 1.49983 28.8745 1.49983 28.5982V1.60277C1.49983 1.3267 1.72367 1.10286 1.99974 1.10286H21.9963C22.2724 1.10286 22.4963 1.3267 22.4963 1.60277V10.9913C22.4963 11.2674 22.7201 11.4912 22.9962 11.4912C23.2722 11.4912 23.4961 11.2674 23.4961 10.9913V1.60277C23.4961 0.774544 22.8246 0.103027 21.9963 0.103027H1.99974C1.17152 0.103027 0.5 0.774544 0.5 1.60277V28.5982C0.5 29.4266 1.17152 30.0979 1.99974 30.0979H21.9963C22.8246 30.0979 23.4961 29.4266 23.4961 28.5982V23.599C23.4961 23.3229 23.2722 23.0991 22.9962 23.0991Z" fill="white"/>
</g>
<defs>
<clipPath id="clip0_3_2809">
<rect width="30" height="30" fill="white" transform="translate(0.5 0.0981445)"/>
</clipPath>
</defs>
</svg>
