<svg width="38" height="37" viewBox="0 0 38 37" fill="none" xmlns="http://www.w3.org/2000/svg">
<g clip-path="url(#clip0_3_2840)">
<path d="M37.6958 25.71C37.5056 26.3538 37.1764 26.8878 36.5253 27.1951C36.7887 27.7291 36.9131 28.2778 36.7375 28.8484C36.5546 29.4263 36.1742 29.8287 35.6255 30.1067C36.1595 31.2406 35.9108 32.1697 34.9159 32.9232C35.1793 33.3987 35.3402 33.8888 35.2305 34.4448C35.0622 35.33 34.316 36.0323 33.4162 36.0616C32.4944 36.0908 31.5654 36.0762 30.6436 36.0762C30.2705 36.0762 30.0364 35.8494 30.0364 35.5422C30.0364 35.2276 30.2632 35.0008 30.6436 34.9935C31.4556 34.9789 32.275 35.0081 33.087 34.9789C33.3577 34.9642 33.6649 34.8691 33.8844 34.7082C34.1478 34.518 34.2502 34.1961 34.1331 33.8523C34.0161 33.5011 33.7893 33.2451 33.4162 33.2158C32.9553 33.1719 32.4944 33.1865 32.0336 33.1865C31.441 33.1792 30.8411 33.1939 30.2486 33.1865C29.8023 33.1792 29.5755 32.989 29.5755 32.6452C29.5755 32.3014 29.8096 32.0965 30.2486 32.0965C31.3898 32.0892 32.5383 32.1112 33.6796 32.0819C33.9722 32.0746 34.3087 31.9648 34.5428 31.7966C34.8427 31.5844 34.8939 31.2113 34.7476 30.8675C34.594 30.5017 34.3087 30.2969 33.8917 30.2969C32.8456 30.2969 31.7995 30.2969 30.7533 30.2969C30.5851 30.2969 30.4095 30.3042 30.2412 30.2969C29.8023 30.2823 29.5682 30.0847 29.5682 29.7482C29.5682 29.4044 29.795 29.2069 30.2412 29.2069C31.6751 29.1995 33.1163 29.2142 34.5501 29.1922C34.8427 29.1849 35.1793 29.0825 35.4207 28.9216C35.7206 28.7167 35.8084 28.3656 35.6621 28.0071C35.5085 27.6267 35.2232 27.3999 34.7988 27.3999C33.4016 27.3999 31.997 27.3999 30.5997 27.3999C30.468 27.3999 30.329 27.4072 30.1973 27.3999C29.795 27.3853 29.5609 27.1731 29.5609 26.8439C29.5609 26.5147 29.795 26.3026 30.2047 26.3026C31.9677 26.3026 33.7308 26.3099 35.5011 26.2953C35.7645 26.2953 36.0571 26.2002 36.2766 26.0612C36.5473 25.8929 36.657 25.5856 36.5912 25.2564C36.5253 24.9126 36.3132 24.6566 35.9693 24.5615C35.7865 24.5103 35.5889 24.4956 35.3914 24.4956C33.5771 24.4883 31.7629 24.5029 29.9559 24.4883C28.8147 24.481 28.01 23.669 28.0612 22.5789C28.0758 22.3302 28.149 22.0742 28.2295 21.8328C28.6025 20.75 28.9903 19.682 29.3561 18.5993C29.5536 18.036 29.5463 17.4946 29.0781 17.0484C28.5733 16.5655 28.0173 16.6387 27.6588 17.2312C26.759 18.7163 25.8885 20.2233 24.9448 21.6864C24.4766 22.418 23.9206 23.1057 23.328 23.7494C22.7574 24.3713 21.9307 24.4371 21.1406 24.481C20.9504 24.4956 20.7602 24.481 20.5481 24.481C20.5481 27.3121 20.5481 30.0994 20.5481 32.9378C20.8773 32.9378 21.1919 32.9378 21.5064 32.9378C22.2526 32.9305 22.9257 33.1646 23.4085 33.7133C24.3376 34.7521 25.4715 35.1617 26.8395 35.0154C27.198 34.9789 27.571 35.0008 27.9368 35.0081C28.3319 35.0228 28.5733 35.2569 28.566 35.5714C28.5587 35.886 28.3172 36.0981 27.9441 36.0981C27.1394 36.1055 26.3347 36.1128 25.5373 36.0835C24.8277 36.0616 24.1839 35.7982 23.6279 35.352C23.4231 35.1837 23.2256 35.0008 23.0281 34.8179C22.2234 34.0644 21.6966 33.9035 20.5554 34.0644C20.5408 34.1522 20.5188 34.2473 20.5042 34.3424C20.3798 34.9642 19.9409 35.3666 19.3118 35.3739C17.4536 35.3885 15.5881 35.3885 13.73 35.3739C12.9252 35.3666 12.4278 34.796 12.4278 33.9254C12.4205 31.5917 12.4278 29.2508 12.4278 26.9171C12.4278 26.7708 12.4278 26.6318 12.4278 26.4489C12.0766 26.4489 11.7621 26.4269 11.4548 26.4635C11.3451 26.4781 11.228 26.6245 11.1622 26.7415C10.5623 27.8096 9.96244 28.885 9.37719 29.9604C9.15772 30.3627 8.87973 30.6627 8.3969 30.6627C7.91407 30.6627 7.62876 30.37 7.4093 29.9677C6.83137 28.9216 6.24612 27.8974 5.69745 26.8586C5.52188 26.5367 5.31704 26.4196 4.95126 26.4269C4.28554 26.4489 3.61251 26.4343 2.94679 26.3977C1.52025 26.3172 0.298548 25.0809 0.313179 23.3983C0.327811 20.7208 0.320495 18.0433 0.320495 15.3658C0.320495 14.3343 0.320495 13.2955 0.320495 12.264C0.320495 10.2814 1.51294 9.09632 3.50277 9.089C6.30464 9.089 9.0992 9.089 11.9011 9.089C12.0474 9.089 12.1864 9.089 12.3619 9.089C12.3034 8.4306 12.2376 7.80877 12.1864 7.18695C11.8938 3.39016 14.8785 0.0981445 18.6899 0.0981445C21.009 0.0981445 22.8818 1.0638 24.1986 2.99512C24.7326 3.7852 24.974 3.65352 25.4349 2.9878C26.8614 0.895543 28.8879 -0.0408516 31.4117 0.149354C34.2282 0.361506 36.4668 2.21966 37.213 4.91912C37.2423 5.01422 37.2642 5.10932 37.2715 5.20442C37.2935 5.50436 37.1545 5.7092 36.8765 5.77504C36.5985 5.84088 36.3644 5.73846 36.2546 5.46047C36.0864 5.04348 35.9693 4.60455 35.7645 4.2095C34.1185 0.997962 29.934 0.193247 27.2272 2.57081C26.8102 2.93659 26.4883 3.40479 26.1665 3.85836C25.3983 4.94106 24.1766 4.94838 23.4451 3.82909C22.2599 2.01483 20.5847 1.11501 18.4339 1.19548C15.4199 1.30522 13.013 4.07051 13.2691 7.07721C13.3203 7.6332 13.4008 8.18918 13.4447 8.74517C13.4666 9.03048 13.591 9.09632 13.8616 9.09632C16.6342 9.089 19.4069 9.07437 22.1868 9.10363C22.6989 9.11095 23.2475 9.19873 23.7011 9.40357C24.8423 9.92298 25.3471 10.896 25.3544 12.1396C25.3617 14.2319 25.3544 16.3241 25.3544 18.4164C25.3544 18.5334 25.3544 18.6505 25.3544 18.7675C25.3764 18.7748 25.3983 18.7822 25.4203 18.7822C25.7568 18.2262 26.0933 17.6702 26.4298 17.1142C26.5103 16.9825 26.5981 16.8435 26.6712 16.7045C27.059 16.0169 27.6076 15.5779 28.427 15.6218C29.2756 15.6657 29.8828 16.1193 30.2924 16.8435C30.3875 17.0118 30.4461 17.1947 30.5558 17.4361C31.1703 16.8435 31.7775 16.3022 32.3335 15.7169C33.8405 14.1294 35.0842 12.3664 35.7499 10.2668C35.9913 9.49867 36.123 8.68664 36.2839 7.88924C36.3717 7.45031 36.5985 7.21621 36.9423 7.28205C37.2788 7.34057 37.4251 7.61857 37.3739 8.04287C37.0008 11.1374 35.6182 13.7637 33.5259 16.0169C32.6115 17.0045 31.5654 17.8604 30.5778 18.7895C30.4607 18.8992 30.351 19.0455 30.2998 19.1991C29.934 20.2014 29.5828 21.2109 29.2317 22.2205C28.9756 22.9667 29.2683 23.369 30.0657 23.369C31.7848 23.369 33.4967 23.369 35.2158 23.369C36.6497 23.369 37.1764 23.7348 37.6885 25.0516C37.6958 25.2784 37.6958 25.4979 37.6958 25.71ZM20.5481 23.3837C20.9139 23.369 21.265 23.369 21.6088 23.3324C22.1136 23.2812 22.5379 23.0837 22.8525 22.6594C23.2475 22.1107 23.6792 21.5767 24.0596 21.0134C24.1766 20.8378 24.2498 20.5891 24.2498 20.377C24.2644 17.6848 24.2571 15 24.2571 12.3079C24.2571 10.8667 23.5767 10.1863 22.1356 10.1863C19.7653 10.1863 17.3878 10.1863 15.0175 10.1863C11.1476 10.1863 7.27762 10.1863 3.40767 10.1863C2.11281 10.1863 1.4032 10.9106 1.4032 12.2054C1.4032 15.9291 1.4032 19.6527 1.4032 23.3763C1.4032 24.5907 2.14208 25.3296 3.35646 25.3369C3.92708 25.3442 4.49769 25.3515 5.06831 25.3296C5.76329 25.3077 6.24612 25.6076 6.57532 26.2148C7.10204 27.1878 7.6434 28.1534 8.18475 29.1191C8.23596 29.2142 8.3018 29.3093 8.37495 29.4336C9.00409 28.2997 9.6186 27.2097 10.2185 26.1124C10.5111 25.5783 10.9354 25.3077 11.5499 25.3296C11.8206 25.3442 12.0986 25.3296 12.4058 25.3296C12.4058 24.6273 12.3985 23.9908 12.4058 23.3471C12.4205 22.4985 12.9399 21.9425 13.7958 21.9352C15.5954 21.9132 17.3951 21.9205 19.1947 21.9352C19.9482 21.9425 20.4091 22.3814 20.5115 23.1349C20.5261 23.2081 20.5335 23.2812 20.5481 23.3837ZM15.9027 34.2766C15.9027 30.5017 15.9027 26.7781 15.9027 23.0325C15.2443 23.0325 14.6151 23.0325 13.986 23.0325C13.5544 23.0325 13.5105 23.0764 13.5105 23.5153C13.5105 25.432 13.5105 27.356 13.5105 29.2727C13.5105 30.7943 13.5105 32.3087 13.5105 33.8303C13.5105 34.0644 13.5251 34.2692 13.847 34.2692C14.52 34.2692 15.2004 34.2766 15.9027 34.2766ZM17.0512 23.0325C17.0512 26.7927 17.0512 30.5164 17.0512 34.2766C17.6877 34.2766 18.3095 34.2766 18.924 34.2766C19.4288 34.2766 19.4288 34.2766 19.4288 33.7791C19.4288 30.926 19.4288 28.0656 19.4288 25.2126C19.4288 24.6054 19.4288 23.9982 19.4288 23.391C19.4288 23.2081 19.4069 23.0398 19.1728 23.0398C18.4705 23.0325 17.7682 23.0325 17.0512 23.0325Z" fill="white"/>
<path d="M7.53285 19.4554C6.56719 19.4554 5.78442 18.6726 5.78442 17.7216C5.78442 16.7705 6.58182 15.9658 7.51822 15.9658C8.50582 15.9658 9.2959 16.7486 9.28127 17.7216C9.27396 18.6799 8.4985 19.4554 7.53285 19.4554ZM7.55479 17.0778C7.18901 17.0778 6.89639 17.3485 6.88908 17.7069C6.88176 18.0581 7.1817 18.3507 7.54016 18.3507C7.89863 18.3507 8.19125 18.0508 8.18393 17.6996C8.18393 17.3558 7.90594 17.0851 7.55479 17.0778Z" fill="white"/>
<path d="M12.5806 19.4556C11.6149 19.4482 10.8322 18.6655 10.8322 17.7145C10.8395 16.7634 11.6369 15.9587 12.5806 15.9733C13.5828 15.9807 14.3436 16.7488 14.3363 17.7364C14.3217 18.6947 13.5462 19.4556 12.5806 19.4556ZM12.6025 17.0707C12.2514 17.0634 11.9368 17.356 11.9368 17.7071C11.9368 18.0437 12.2148 18.3363 12.5586 18.3509C12.9244 18.3655 13.2243 18.1022 13.239 17.7364C13.2463 17.3853 12.961 17.078 12.6025 17.0707Z" fill="white"/>
<path d="M19.3841 17.6923C19.3914 18.6726 18.6086 19.4553 17.6283 19.4553C16.67 19.448 15.8799 18.6579 15.8945 17.7142C15.9019 16.7632 16.6627 15.9877 17.5991 15.9731C18.5867 15.9512 19.3841 16.7193 19.3841 17.6923ZM17.6356 18.3507C17.9941 18.358 18.2794 18.08 18.2867 17.7215C18.2941 17.3631 18.0087 17.0704 17.6576 17.0704C17.2991 17.0631 17.0065 17.3484 17.0065 17.7069C16.9919 18.0654 17.2699 18.3507 17.6356 18.3507Z" fill="white"/>
</g>
<defs>
<clipPath id="clip0_3_2840">
<rect width="37.39" height="36" fill="white" transform="translate(0.304993 0.0981445)"/>
</clipPath>
</defs>
</svg>
